solid OpenSCAD_Model
  facet normal 0.195173 -0.980769 0
    outer loop
      vertex 57.7 -33.2 0
      vertex 58 -33.1403 2.4
      vertex 57.7 -33.2 2.4
    endloop
  endfacet
  facet normal 0.195173 -0.980769 0
    outer loop
      vertex 58 -33.1403 2.4
      vertex 57.7 -33.2 0
      vertex 58 -33.1403 0
    endloop
  endfacet
  facet normal 0 -1 0
    outer loop
      vertex 3 -33.2 0
      vertex 57.7 -33.2 2.4
      vertex 3 -33.2 2.4
    endloop
  endfacet
  facet normal 0 -1 -0
    outer loop
      vertex 57.7 -33.2 2.4
      vertex 3 -33.2 0
      vertex 57.7 -33.2 0
    endloop
  endfacet
  facet normal 0 0 -1
    outer loop
      vertex 58 -33.1403 0
      vertex 56.1086 -29.9592 0
      vertex 56.2 -29.5 0
    endloop
  endfacet
  facet normal 0 0 -1
    outer loop
      vertex 58 -33.1403 0
      vertex 55.8485 -30.3485 0
      vertex 56.1086 -29.9592 0
    endloop
  endfacet
  facet normal 0 0 -1
    outer loop
      vertex 57.7 -33.2 0
      vertex 55.4592 -30.6087 0
      vertex 55.8485 -30.3485 0
    endloop
  endfacet
  facet normal 0 0 -1
    outer loop
      vertex 57.7 -33.2 0
      vertex 55 -30.7 0
      vertex 55.4592 -30.6087 0
    endloop
  endfacet
  facet normal 0 0 -1
    outer loop
      vertex 57.7 -33.2 0
      vertex 6 -30.7 0
      vertex 55 -30.7 0
    endloop
  endfacet
  facet normal 0 0 -1
    outer loop
      vertex 3 3 0
      vertex 4.8 -29.5 0
      vertex 3 -33.2 0
    endloop
  endfacet
  facet normal -0 0 -1
    outer loop
      vertex 4.89136 -29.9592 0
      vertex 3 -33.2 0
      vertex 4.8 -29.5 0
    endloop
  endfacet
  facet normal -0 0 -1
    outer loop
      vertex 5.15147 -30.3485 0
      vertex 3 -33.2 0
      vertex 4.89136 -29.9592 0
    endloop
  endfacet
  facet normal -0 0 -1
    outer loop
      vertex 5.54079 -30.6087 0
      vertex 3 -33.2 0
      vertex 5.15147 -30.3485 0
    endloop
  endfacet
  facet normal -0 0 -1
    outer loop
      vertex 6 -30.7 0
      vertex 3 -33.2 0
      vertex 5.54079 -30.6087 0
    endloop
  endfacet
  facet normal 0 0 -1
    outer loop
      vertex 3 -33.2 0
      vertex 6 -30.7 0
      vertex 57.7 -33.2 0
    endloop
  endfacet
  facet normal 0 0 -1
    outer loop
      vertex 55.8485 -30.3485 0
      vertex 58 -33.1403 0
      vertex 57.7 -33.2 0
    endloop
  endfacet
  facet normal 0 0 -1
    outer loop
      vertex 58 -33.1403 0
      vertex 56.2 -29.5 0
      vertex 58 3 0
    endloop
  endfacet
  facet normal 0 0 -1
    outer loop
      vertex 56.2 -0.3 0
      vertex 58 3 0
      vertex 56.2 -29.5 0
    endloop
  endfacet
  facet normal 0 0 -1
    outer loop
      vertex 56.1086 0.159213 0
      vertex 58 3 0
      vertex 56.2 -0.3 0
    endloop
  endfacet
  facet normal 0 0 -1
    outer loop
      vertex 55.8485 0.548526 0
      vertex 58 3 0
      vertex 56.1086 0.159213 0
    endloop
  endfacet
  facet normal 0 0 -1
    outer loop
      vertex 55.4592 0.808642 0
      vertex 58 3 0
      vertex 55.8485 0.548526 0
    endloop
  endfacet
  facet normal 0 0 -1
    outer loop
      vertex 55 0.899997 0
      vertex 58 3 0
      vertex 55.4592 0.808642 0
    endloop
  endfacet
  facet normal 0 0 -1
    outer loop
      vertex 6 0.899997 0
      vertex 58 3 0
      vertex 55 0.899997 0
    endloop
  endfacet
  facet normal 0 0 -1
    outer loop
      vertex 6 0.899997 0
      vertex 3 3 0
      vertex 58 3 0
    endloop
  endfacet
  facet normal 0 0 -1
    outer loop
      vertex 5.54079 0.808642 0
      vertex 3 3 0
      vertex 6 0.899997 0
    endloop
  endfacet
  facet normal 0 0 -1
    outer loop
      vertex 5.15147 0.548526 0
      vertex 3 3 0
      vertex 5.54079 0.808642 0
    endloop
  endfacet
  facet normal 0 0 -1
    outer loop
      vertex 4.89136 0.159213 0
      vertex 3 3 0
      vertex 5.15147 0.548526 0
    endloop
  endfacet
  facet normal 0 0 -1
    outer loop
      vertex 4.8 -0.3 0
      vertex 3 3 0
      vertex 4.89136 0.159213 0
    endloop
  endfacet
  facet normal 0 0 -1
    outer loop
      vertex 4.8 -29.5 0
      vertex 3 3 0
      vertex 4.8 -0.3 0
    endloop
  endfacet
  facet normal 0 0 -1
    outer loop
      vertex 55 -30.7 0
      vertex 56.2 -29.5 0
      vertex 56.1086 -29.9592 0
    endloop
  endfacet
  facet normal 0 0 -1
    outer loop
      vertex 56.2 -29.5 0
      vertex 54.2 -23.3 0
      vertex 56.2 -0.3 0
    endloop
  endfacet
  facet normal 0 0 -1
    outer loop
      vertex 55 -30.7 0
      vertex 56.1086 -29.9592 0
      vertex 55.8485 -30.3485 0
    endloop
  endfacet
  facet normal 0 0 -1
    outer loop
      vertex 54.2 -6.5 0
      vertex 56.2 -0.3 0
      vertex 54.2 -23.3 0
    endloop
  endfacet
  facet normal 0 0 -1
    outer loop
      vertex 55 -30.7 0
      vertex 55.8485 -30.3485 0
      vertex 55.4592 -30.6087 0
    endloop
  endfacet
  facet normal 0 0 -1
    outer loop
      vertex 54.1086 -6.04077 0
      vertex 56.2 -0.3 0
      vertex 54.2 -6.5 0
    endloop
  endfacet
  facet normal 0 0 -1
    outer loop
      vertex 49.8485 -28.1485 0
      vertex 56.2 -29.5 0
      vertex 55 -30.7 0
    endloop
  endfacet
  facet normal 0 0 -1
    outer loop
      vertex 53.8485 -5.65146 0
      vertex 56.2 -0.3 0
      vertex 54.1086 -6.04077 0
    endloop
  endfacet
  facet normal 0 0 -1
    outer loop
      vertex 49.8485 -1.65147 0
      vertex 56.2 -0.3 0
      vertex 53.8485 -5.65146 0
    endloop
  endfacet
  facet normal 0 0 -1
    outer loop
      vertex 56.2 -29.5 0
      vertex 54.1086 -23.7592 0
      vertex 54.2 -23.3 0
    endloop
  endfacet
  facet normal 0 0 -1
    outer loop
      vertex 56.2 -29.5 0
      vertex 53.8485 -24.1485 0
      vertex 54.1086 -23.7592 0
    endloop
  endfacet
  facet normal 0 0 -1
    outer loop
      vertex 56.2 -29.5 0
      vertex 49.8485 -28.1485 0
      vertex 53.8485 -24.1485 0
    endloop
  endfacet
  facet normal 0 0 -1
    outer loop
      vertex 55 -30.7 0
      vertex 49.4592 -28.4086 0
      vertex 49.8485 -28.1485 0
    endloop
  endfacet
  facet normal 0 0 -1
    outer loop
      vertex 55 -30.7 0
      vertex 49 -28.5 0
      vertex 49.4592 -28.4086 0
    endloop
  endfacet
  facet normal 0 0 -1
    outer loop
      vertex 6 -30.7 0
      vertex 49 -28.5 0
      vertex 55 -30.7 0
    endloop
  endfacet
  facet normal -0 0 -1
    outer loop
      vertex 6.89136 -27.7592 0
      vertex 4.8 -29.5 0
      vertex 6.8 -27.3 0
    endloop
  endfacet
  facet normal -0 0 -1
    outer loop
      vertex 7.15147 -28.1485 0
      vertex 4.8 -29.5 0
      vertex 6.89136 -27.7592 0
    endloop
  endfacet
  facet normal 0 0 -1
    outer loop
      vertex 4.8 -29.5 0
      vertex 7.15147 -28.1485 0
      vertex 6 -30.7 0
    endloop
  endfacet
  facet normal -0 0 -1
    outer loop
      vertex 7.54079 -28.4086 0
      vertex 6 -30.7 0
      vertex 7.15147 -28.1485 0
    endloop
  endfacet
  facet normal -0 0 -1
    outer loop
      vertex 8 -28.5 0
      vertex 6 -30.7 0
      vertex 7.54079 -28.4086 0
    endloop
  endfacet
  facet normal -0 0 -1
    outer loop
      vertex 49 -28.5 0
      vertex 6 -30.7 0
      vertex 8 -28.5 0
    endloop
  endfacet
  facet normal 0 0 -1
    outer loop
      vertex 56.2 -0.3 0
      vertex 55 0.899997 0
      vertex 56.1086 0.159213 0
    endloop
  endfacet
  facet normal 0 0 -1
    outer loop
      vertex 56.1086 0.159213 0
      vertex 55 0.899997 0
      vertex 55.8485 0.548526 0
    endloop
  endfacet
  facet normal 0 0 -1
    outer loop
      vertex 55.8485 0.548526 0
      vertex 55 0.899997 0
      vertex 55.4592 0.808642 0
    endloop
  endfacet
  facet normal -0 0 -1
    outer loop
      vertex 56.2 -0.3 0
      vertex 49.8485 -1.65147 0
      vertex 55 0.899997 0
    endloop
  endfacet
  facet normal 0 0 -1
    outer loop
      vertex 49.4592 -1.39136 0
      vertex 55 0.899997 0
      vertex 49.8485 -1.65147 0
    endloop
  endfacet
  facet normal 0 0 -1
    outer loop
      vertex 49 -1.3 0
      vertex 55 0.899997 0
      vertex 49.4592 -1.39136 0
    endloop
  endfacet
  facet normal 0 0 -1
    outer loop
      vertex 6 0.899997 0
      vertex 49 -1.3 0
      vertex 8 -1.3 0
    endloop
  endfacet
  facet normal 0 0 -1
    outer loop
      vertex 49 -1.3 0
      vertex 6 0.899997 0
      vertex 55 0.899997 0
    endloop
  endfacet
  facet normal 0 0 -1
    outer loop
      vertex 7.54079 -1.39136 0
      vertex 6 0.899997 0
      vertex 8 -1.3 0
    endloop
  endfacet
  facet normal 0 0 -1
    outer loop
      vertex 7.15147 -1.65147 0
      vertex 6 0.899997 0
      vertex 7.54079 -1.39136 0
    endloop
  endfacet
  facet normal 0 0 -1
    outer loop
      vertex 4.8 -0.3 0
      vertex 7.15147 -1.65147 0
      vertex 6.89136 -2.04079 0
    endloop
  endfacet
  facet normal 0 0 -1
    outer loop
      vertex 4.8 -0.3 0
      vertex 6.89136 -2.04079 0
      vertex 6.8 -2.5 0
    endloop
  endfacet
  facet normal -0 0 -1
    outer loop
      vertex 6.8 -27.3 0
      vertex 4.8 -29.5 0
      vertex 6.8 -2.5 0
    endloop
  endfacet
  facet normal 0 0 -1
    outer loop
      vertex 4.8 -29.5 0
      vertex 6 -30.7 0
      vertex 5.54079 -30.6087 0
    endloop
  endfacet
  facet normal 0 0 -1
    outer loop
      vertex 4.8 -0.3 0
      vertex 6.8 -2.5 0
      vertex 4.8 -29.5 0
    endloop
  endfacet
  facet normal 0 0 -1
    outer loop
      vertex 4.8 -29.5 0
      vertex 5.54079 -30.6087 0
      vertex 5.15147 -30.3485 0
    endloop
  endfacet
  facet normal 0 0 -1
    outer loop
      vertex 7.15147 -1.65147 0
      vertex 4.8 -0.3 0
      vertex 6 0.899997 0
    endloop
  endfacet
  facet normal 0 0 -1
    outer loop
      vertex 4.8 -29.5 0
      vertex 5.15147 -30.3485 0
      vertex 4.89136 -29.9592 0
    endloop
  endfacet
  facet normal 0 0 -1
    outer loop
      vertex 6 0.899997 0
      vertex 4.8 -0.3 0
      vertex 5.54079 0.808642 0
    endloop
  endfacet
  facet normal 0 0 -1
    outer loop
      vertex 5.54079 0.808642 0
      vertex 4.8 -0.3 0
      vertex 5.15147 0.548526 0
    endloop
  endfacet
  facet normal 0 0 -1
    outer loop
      vertex 5.15147 0.548526 0
      vertex 4.8 -0.3 0
      vertex 4.89136 0.159213 0
    endloop
  endfacet
  facet normal -0 0.707107 0.707107
    outer loop
      vertex 53.6255 -27.2 1.5
      vertex 54.7 -28.1 2.4
      vertex 54.7 -27.2 1.5
    endloop
  endfacet
  facet normal 0 0.707107 0.707107
    outer loop
      vertex 54.7 -28.1 2.4
      vertex 53.6255 -27.2 1.5
      vertex 52.7255 -28.1 2.4
    endloop
  endfacet
  facet normal 0 0.707111 0.707102
    outer loop
      vertex 4.8 -27.3 1.59999
      vertex 3 -28.1 2.4
      vertex 4.95914 -28.1 2.4
    endloop
  endfacet
  facet normal -0 0.707071 0.707142
    outer loop
      vertex 3 -27.2 1.5
      vertex 4.8 -27.3 1.59999
      vertex 4.8 -27.2 1.5
    endloop
  endfacet
  facet normal 3.92837e-06 0.707107 0.707107
    outer loop
      vertex 4.8 -27.3 1.59999
      vertex 3 -27.2 1.5
      vertex 3 -28.1 2.4
    endloop
  endfacet
  facet normal -0.707107 0 0.707107
    outer loop
      vertex 54.7 -3.6745 1.5
      vertex 55.6 -2.8 2.4
      vertex 54.7 -2.8 1.5
    endloop
  endfacet
  facet normal -0.707119 2.54924e-05 0.707094
    outer loop
      vertex 55.2627 -4.23724 2.06274
      vertex 55.6 -2.8 2.4
      vertex 54.7 -3.6745 1.5
    endloop
  endfacet
  facet normal -0.707065 0 0.707149
    outer loop
      vertex 55.6 -2.8 2.4
      vertex 55.2627 -4.23724 2.06274
      vertex 55.6 -4.742 2.4
    endloop
  endfacet
  facet normal -0.707135 9.70078e-05 0.707078
    outer loop
      vertex 54.7 -26.1255 1.5
      vertex 55.6 -25.6 2.4
      vertex 55.2255 -25.6 2.02547
    endloop
  endfacet
  facet normal -0.707107 0 0.707107
    outer loop
      vertex 55.6 -27.2 2.4
      vertex 54.7 -26.1255 1.5
      vertex 54.7 -27.2 1.5
    endloop
  endfacet
  facet normal -0.707107 0 0.707107
    outer loop
      vertex 54.7 -26.1255 1.5
      vertex 55.6 -27.2 2.4
      vertex 55.6 -25.6 2.4
    endloop
  endfacet
  facet normal -0.57735 -0.57735 0.57735
    outer loop
      vertex 55.6 -2.8 2.4
      vertex 54.7 -1.9 2.4
      vertex 54.7 -2.8 1.5
    endloop
  endfacet
  facet normal -0.57735 0.57735 0.57735
    outer loop
      vertex 54.7 -28.1 2.4
      vertex 55.6 -27.2 2.4
      vertex 54.7 -27.2 1.5
    endloop
  endfacet
  facet normal 0 -0 1
    outer loop
      vertex 54.7 -3.6745 1.5
      vertex 54.7 -2.8 1.5
      vertex 53.8255 -2.8 1.5
    endloop
  endfacet
  facet normal 0 -0 1
    outer loop
      vertex 54.7 -27.2 1.5
      vertex 54.7 -26.1255 1.5
      vertex 53.6255 -27.2 1.5
    endloop
  endfacet
  facet normal -0 0 1
    outer loop
      vertex 3 -2.8 1.5
      vertex 4.8 -4.8 1.5
      vertex 4.8 -2.8 1.5
    endloop
  endfacet
  facet normal 0 0 1
    outer loop
      vertex 4.8 -4.8 1.5
      vertex 3 -2.8 1.5
      vertex 3 -4.8 1.5
    endloop
  endfacet
  facet normal -0 0 1
    outer loop
      vertex 3 -25.6 1.5
      vertex 4.8 -27.2 1.5
      vertex 4.8 -25.6 1.5
    endloop
  endfacet
  facet normal 0 0 1
    outer loop
      vertex 4.8 -27.2 1.5
      vertex 3 -25.6 1.5
      vertex 3 -27.2 1.5
    endloop
  endfacet
  facet normal -0 0 1
    outer loop
      vertex 3 -5.6 1.5
      vertex 4.8 -14.8 1.5
      vertex 4.8 -5.6 1.5
    endloop
  endfacet
  facet normal 0 0 1
    outer loop
      vertex 4.8 -14.8 1.5
      vertex 3 -5.6 1.5
      vertex 3 -14.8 1.5
    endloop
  endfacet
  facet normal -0 0 1
    outer loop
      vertex 3 -15.6 1.5
      vertex 4.8 -24.8 1.5
      vertex 4.8 -15.6 1.5
    endloop
  endfacet
  facet normal 0 0 1
    outer loop
      vertex 4.8 -24.8 1.5
      vertex 3 -15.6 1.5
      vertex 3 -24.8 1.5
    endloop
  endfacet
  facet normal 0 -0.707107 0.707107
    outer loop
      vertex 53.8255 -2.8 1.5
      vertex 54.7 -1.9 2.4
      vertex 52.9255 -1.9 2.4
    endloop
  endfacet
  facet normal 0 -0.707107 0.707107
    outer loop
      vertex 54.7 -1.9 2.4
      vertex 53.8255 -2.8 1.5
      vertex 54.7 -2.8 1.5
    endloop
  endfacet
  facet normal 0 -0.707107 0.707107
    outer loop
      vertex 3 -1.9 2.4
      vertex 4.8 -2.5 1.8
      vertex 4.91935 -1.9 2.4
    endloop
  endfacet
  facet normal -9.69193e-17 -0.707107 0.707107
    outer loop
      vertex 3 -2.8 1.5
      vertex 4.8 -2.5 1.8
      vertex 3 -1.9 2.4
    endloop
  endfacet
  facet normal 0 -0.707107 0.707107
    outer loop
      vertex 4.8 -2.5 1.8
      vertex 3 -2.8 1.5
      vertex 4.8 -2.8 1.5
    endloop
  endfacet
  facet normal 0 -1 0
    outer loop
      vertex 3 -5.6 1.5
      vertex 4.8 -5.6 2.4
      vertex 3 -5.6 2.4
    endloop
  endfacet
  facet normal 0 -1 -0
    outer loop
      vertex 4.8 -5.6 2.4
      vertex 3 -5.6 1.5
      vertex 4.8 -5.6 1.5
    endloop
  endfacet
  facet normal 0 1 -0
    outer loop
      vertex 4.8 -4.8 1.5
      vertex 3 -4.8 2.4
      vertex 4.8 -4.8 2.4
    endloop
  endfacet
  facet normal 0 1 0
    outer loop
      vertex 3 -4.8 2.4
      vertex 4.8 -4.8 1.5
      vertex 3 -4.8 1.5
    endloop
  endfacet
  facet normal 0 -1 0
    outer loop
      vertex 3 -15.6 1.5
      vertex 4.8 -15.6 2.4
      vertex 3 -15.6 2.4
    endloop
  endfacet
  facet normal 0 -1 -0
    outer loop
      vertex 4.8 -15.6 2.4
      vertex 3 -15.6 1.5
      vertex 4.8 -15.6 1.5
    endloop
  endfacet
  facet normal 0 1 -0
    outer loop
      vertex 4.8 -14.8 1.5
      vertex 3 -14.8 2.4
      vertex 4.8 -14.8 2.4
    endloop
  endfacet
  facet normal 0 1 0
    outer loop
      vertex 3 -14.8 2.4
      vertex 4.8 -14.8 1.5
      vertex 3 -14.8 1.5
    endloop
  endfacet
  facet normal -0 -1 0
    outer loop
      vertex 55.6 -25.6 2.4
      vertex 55.2255 -25.6 2.4
      vertex 55.2255 -25.6 2.02547
    endloop
  endfacet
  facet normal 0 -1 0
    outer loop
      vertex 3 -25.6 1.5
      vertex 4.8 -25.6 2.4
      vertex 3 -25.6 2.4
    endloop
  endfacet
  facet normal 0 -1 -0
    outer loop
      vertex 4.8 -25.6 2.4
      vertex 3 -25.6 1.5
      vertex 4.8 -25.6 1.5
    endloop
  endfacet
  facet normal 0 1 -0
    outer loop
      vertex 4.8 -24.8 1.5
      vertex 3 -24.8 2.4
      vertex 4.8 -24.8 2.4
    endloop
  endfacet
  facet normal 0 1 0
    outer loop
      vertex 3 -24.8 2.4
      vertex 4.8 -24.8 1.5
      vertex 3 -24.8 1.5
    endloop
  endfacet
  facet normal -0.980784 0.195094 0
    outer loop
      vertex 4.91935 -1.9 2.4
      vertex 4.8 -2.5 1.8
      vertex 4.8 -2.5 2.4
    endloop
  endfacet
  facet normal -0.980783 -0.195102 -0
    outer loop
      vertex 4.8 -27.3 2.4
      vertex 4.8 -27.3 1.59999
      vertex 4.95914 -28.1 2.4
    endloop
  endfacet
  facet normal -1 0 0
    outer loop
      vertex 4.8 -2.8 1.5
      vertex 4.8 -2.5 2.4
      vertex 4.8 -2.5 1.8
    endloop
  endfacet
  facet normal -1 0 0
    outer loop
      vertex 4.8 -4.8 2.4
      vertex 4.8 -2.8 1.5
      vertex 4.8 -4.8 1.5
    endloop
  endfacet
  facet normal -1 0 0
    outer loop
      vertex 4.8 -2.8 1.5
      vertex 4.8 -4.8 2.4
      vertex 4.8 -2.5 2.4
    endloop
  endfacet
  facet normal -1 0 0
    outer loop
      vertex 4.8 -27.2 1.5
      vertex 4.8 -25.6 2.4
      vertex 4.8 -25.6 1.5
    endloop
  endfacet
  facet normal -1 0 0
    outer loop
      vertex 4.8 -27.3 2.4
      vertex 4.8 -27.2 1.5
      vertex 4.8 -27.3 1.59999
    endloop
  endfacet
  facet normal -1 0 0
    outer loop
      vertex 4.8 -27.2 1.5
      vertex 4.8 -27.3 2.4
      vertex 4.8 -25.6 2.4
    endloop
  endfacet
  facet normal -1 0 0
    outer loop
      vertex 4.8 -14.8 1.5
      vertex 4.8 -5.6 2.4
      vertex 4.8 -5.6 1.5
    endloop
  endfacet
  facet normal -1 -0 0
    outer loop
      vertex 4.8 -5.6 2.4
      vertex 4.8 -14.8 1.5
      vertex 4.8 -14.8 2.4
    endloop
  endfacet
  facet normal -1 0 0
    outer loop
      vertex 4.8 -24.8 1.5
      vertex 4.8 -15.6 2.4
      vertex 4.8 -15.6 1.5
    endloop
  endfacet
  facet normal -1 -0 0
    outer loop
      vertex 4.8 -15.6 2.4
      vertex 4.8 -24.8 1.5
      vertex 4.8 -24.8 2.4
    endloop
  endfacet
  facet normal 0.707107 -0.707107 2.79128e-15
    outer loop
      vertex 53.6255 -27.2 1.5
      vertex 55.2255 -25.6 2.4
      vertex 52.7255 -28.1 2.4
    endloop
  endfacet
  facet normal 0.707107 -0.707107 2.84128e-15
    outer loop
      vertex 54.7 -26.1255 1.5
      vertex 55.2255 -25.6 2.4
      vertex 53.6255 -27.2 1.5
    endloop
  endfacet
  facet normal 0.707107 -0.707107 0
    outer loop
      vertex 55.2255 -25.6 2.4
      vertex 54.7 -26.1255 1.5
      vertex 55.2255 -25.6 2.02547
    endloop
  endfacet
  facet normal 0.831447 0.555605 0
    outer loop
      vertex 55.6 -4.742 2.4
      vertex 55.2627 -4.23724 2.06274
      vertex 55.2627 -4.23724 2.4
    endloop
  endfacet
  facet normal 0.707132 0.707082 0
    outer loop
      vertex 54.7 -3.6745 1.5
      vertex 55.2627 -4.23724 2.4
      vertex 55.2627 -4.23724 2.06274
    endloop
  endfacet
  facet normal 0.707107 0.707107 3.1427e-05
    outer loop
      vertex 55.2627 -4.23724 2.4
      vertex 54.7 -3.6745 1.5
      vertex 53.8255 -2.8 1.5
    endloop
  endfacet
  facet normal 0.707113 0.707101 1.21017e-05
    outer loop
      vertex 55.2627 -4.23724 2.4
      vertex 53.8255 -2.8 1.5
      vertex 52.9255 -1.9 2.4
    endloop
  endfacet
  facet normal 0.831495 -0.555533 0
    outer loop
      vertex 6.89136 -2.04079 2.4
      vertex 7.15147 -1.65147 0
      vertex 7.15147 -1.65147 2.4
    endloop
  endfacet
  facet normal 0.831495 -0.555533 0
    outer loop
      vertex 7.15147 -1.65147 0
      vertex 6.89136 -2.04079 2.4
      vertex 6.89136 -2.04079 0
    endloop
  endfacet
  facet normal -1 0 0
    outer loop
      vertex 54.2 -23.3 0
      vertex 54.2 -6.5 2.4
      vertex 54.2 -6.5 0
    endloop
  endfacet
  facet normal -1 -0 0
    outer loop
      vertex 54.2 -6.5 2.4
      vertex 54.2 -23.3 0
      vertex 54.2 -23.3 2.4
    endloop
  endfacet
  facet normal 0 -1 0
    outer loop
      vertex 8 -1.3 2.4
      vertex 16.5 -1.3 1.6
      vertex 16.5 -1.3 2.4
    endloop
  endfacet
  facet normal 0 -1 0
    outer loop
      vertex 8 -1.3 0
      vertex 25.5 -1.3 1.6
      vertex 16.5 -1.3 1.6
    endloop
  endfacet
  facet normal 0 -1 0
    outer loop
      vertex 49 -1.3 0
      vertex 25.5 -1.3 1.6
      vertex 8 -1.3 0
    endloop
  endfacet
  facet normal 0 -1 0
    outer loop
      vertex 25.5 -1.3 1.6
      vertex 49 -1.3 0
      vertex 39 -1.3 1.6
    endloop
  endfacet
  facet normal 0 -1 0
    outer loop
      vertex 8 -1.3 0
      vertex 16.5 -1.3 1.6
      vertex 8 -1.3 2.4
    endloop
  endfacet
  facet normal 0 -1 0
    outer loop
      vertex 25.5 -1.3 1.6
      vertex 39 -1.3 2.4
      vertex 25.5 -1.3 2.4
    endloop
  endfacet
  facet normal 0 -1 -0
    outer loop
      vertex 39 -1.3 2.4
      vertex 25.5 -1.3 1.6
      vertex 39 -1.3 1.6
    endloop
  endfacet
  facet normal 0 -1 0
    outer loop
      vertex 48 -1.3 1.6
      vertex 49 -1.3 2.4
      vertex 48 -1.3 2.4
    endloop
  endfacet
  facet normal 0 -1 0
    outer loop
      vertex 48 -1.3 1.6
      vertex 49 -1.3 0
      vertex 49 -1.3 2.4
    endloop
  endfacet
  facet normal 0 -1 0
    outer loop
      vertex 39 -1.3 1.6
      vertex 49 -1.3 0
      vertex 48 -1.3 1.6
    endloop
  endfacet
  facet normal 0.980778 -0.195126 0
    outer loop
      vertex 6.8 -2.5 2.4
      vertex 6.89136 -2.04079 0
      vertex 6.89136 -2.04079 2.4
    endloop
  endfacet
  facet normal 0.980778 -0.195126 0
    outer loop
      vertex 6.89136 -2.04079 0
      vertex 6.8 -2.5 2.4
      vertex 6.8 -2.5 0
    endloop
  endfacet
  facet normal -0.831491 0.555538 0
    outer loop
      vertex 53.8485 -24.1485 0
      vertex 54.1086 -23.7592 2.4
      vertex 54.1086 -23.7592 0
    endloop
  endfacet
  facet normal -0.831491 0.555538 0
    outer loop
      vertex 54.1086 -23.7592 2.4
      vertex 53.8485 -24.1485 0
      vertex 53.8485 -24.1485 2.4
    endloop
  endfacet
  facet normal 0.980777 0.19513 0
    outer loop
      vertex 6.89136 -27.7592 2.4
      vertex 6.8 -27.3 0
      vertex 6.8 -27.3 2.4
    endloop
  endfacet
  facet normal 0.980777 0.19513 0
    outer loop
      vertex 6.8 -27.3 0
      vertex 6.89136 -27.7592 2.4
      vertex 6.89136 -27.7592 0
    endloop
  endfacet
  facet normal 0.555518 0.831504 -0
    outer loop
      vertex 7.54079 -28.4086 0
      vertex 7.15147 -28.1485 2.4
      vertex 7.54079 -28.4086 2.4
    endloop
  endfacet
  facet normal 0.555518 0.831504 0
    outer loop
      vertex 7.15147 -28.1485 2.4
      vertex 7.54079 -28.4086 0
      vertex 7.15147 -28.1485 0
    endloop
  endfacet
  facet normal -0.980761 0.195212 0
    outer loop
      vertex 54.1086 -23.7592 0
      vertex 54.2 -23.3 2.4
      vertex 54.2 -23.3 0
    endloop
  endfacet
  facet normal -0.980761 0.195212 0
    outer loop
      vertex 54.2 -23.3 2.4
      vertex 54.1086 -23.7592 0
      vertex 54.1086 -23.7592 2.4
    endloop
  endfacet
  facet normal 0.195208 0.980762 -0
    outer loop
      vertex 8 -28.5 0
      vertex 7.54079 -28.4086 2.4
      vertex 8 -28.5 2.4
    endloop
  endfacet
  facet normal 0.195208 0.980762 0
    outer loop
      vertex 7.54079 -28.4086 2.4
      vertex 8 -28.5 0
      vertex 7.54079 -28.4086 0
    endloop
  endfacet
  facet normal 0.555533 -0.831495 0
    outer loop
      vertex 7.15147 -1.65147 0
      vertex 7.54079 -1.39136 2.4
      vertex 7.15147 -1.65147 2.4
    endloop
  endfacet
  facet normal 0.555533 -0.831495 0
    outer loop
      vertex 7.54079 -1.39136 2.4
      vertex 7.15147 -1.65147 0
      vertex 7.54079 -1.39136 0
    endloop
  endfacet
  facet normal -0.555553 -0.831481 0
    outer loop
      vertex 49.4592 -1.39136 0
      vertex 49.8485 -1.65147 2.4
      vertex 49.4592 -1.39136 2.4
    endloop
  endfacet
  facet normal -0.555553 -0.831481 -0
    outer loop
      vertex 49.8485 -1.65147 2.4
      vertex 49.4592 -1.39136 0
      vertex 49.8485 -1.65147 0
    endloop
  endfacet
  facet normal 1 -0 0
    outer loop
      vertex 6.8 -27.3 2.4
      vertex 6.8 -2.5 0
      vertex 6.8 -2.5 2.4
    endloop
  endfacet
  facet normal 1 0 0
    outer loop
      vertex 6.8 -2.5 0
      vertex 6.8 -27.3 2.4
      vertex 6.8 -27.3 0
    endloop
  endfacet
  facet normal 0.831481 0.555553 0
    outer loop
      vertex 7.15147 -28.1485 2.4
      vertex 6.89136 -27.7592 0
      vertex 6.89136 -27.7592 2.4
    endloop
  endfacet
  facet normal 0.831481 0.555553 0
    outer loop
      vertex 6.89136 -27.7592 0
      vertex 7.15147 -28.1485 2.4
      vertex 7.15147 -28.1485 0
    endloop
  endfacet
  facet normal -0.707107 0.707107 0
    outer loop
      vertex 49.8485 -28.1485 0
      vertex 53.8485 -24.1485 2.4
      vertex 53.8485 -24.1485 0
    endloop
  endfacet
  facet normal -0.707107 0.707107 0
    outer loop
      vertex 53.8485 -24.1485 2.4
      vertex 49.8485 -28.1485 0
      vertex 49.8485 -28.1485 2.4
    endloop
  endfacet
  facet normal 0.195126 -0.980778 0
    outer loop
      vertex 7.54079 -1.39136 0
      vertex 8 -1.3 2.4
      vertex 7.54079 -1.39136 2.4
    endloop
  endfacet
  facet normal 0.195126 -0.980778 0
    outer loop
      vertex 8 -1.3 2.4
      vertex 7.54079 -1.39136 0
      vertex 8 -1.3 0
    endloop
  endfacet
  facet normal -0.195212 0.980761 0
    outer loop
      vertex 49.4592 -28.4086 0
      vertex 49 -28.5 2.4
      vertex 49.4592 -28.4086 2.4
    endloop
  endfacet
  facet normal -0.195212 0.980761 0
    outer loop
      vertex 49 -28.5 2.4
      vertex 49.4592 -28.4086 0
      vertex 49 -28.5 0
    endloop
  endfacet
  facet normal 0 1 0
    outer loop
      vertex 49 -28.5 2.4
      vertex 48 -28.5 1.6
      vertex 48 -28.5 2.4
    endloop
  endfacet
  facet normal 0 1 0
    outer loop
      vertex 49 -28.5 0
      vertex 39 -28.5 1.6
      vertex 48 -28.5 1.6
    endloop
  endfacet
  facet normal 0 1 0
    outer loop
      vertex 39 -28.5 1.6
      vertex 49 -28.5 0
      vertex 25.5 -28.5 1.6
    endloop
  endfacet
  facet normal 0 1 0
    outer loop
      vertex 8 -28.5 0
      vertex 25.5 -28.5 1.6
      vertex 49 -28.5 0
    endloop
  endfacet
  facet normal 0 1 -0
    outer loop
      vertex 49 -28.5 0
      vertex 48 -28.5 1.6
      vertex 49 -28.5 2.4
    endloop
  endfacet
  facet normal 0 1 -0
    outer loop
      vertex 39 -28.5 1.6
      vertex 25.5 -28.5 2.4
      vertex 39 -28.5 2.4
    endloop
  endfacet
  facet normal 0 1 0
    outer loop
      vertex 25.5 -28.5 2.4
      vertex 39 -28.5 1.6
      vertex 25.5 -28.5 1.6
    endloop
  endfacet
  facet normal 0 1 -0
    outer loop
      vertex 16.5 -28.5 1.6
      vertex 8 -28.5 2.4
      vertex 16.5 -28.5 2.4
    endloop
  endfacet
  facet normal 0 1 0
    outer loop
      vertex 16.5 -28.5 1.6
      vertex 8 -28.5 0
      vertex 8 -28.5 2.4
    endloop
  endfacet
  facet normal 0 1 0
    outer loop
      vertex 25.5 -28.5 1.6
      vertex 8 -28.5 0
      vertex 16.5 -28.5 1.6
    endloop
  endfacet
  facet normal -0.831498 -0.555528 0
    outer loop
      vertex 54.1086 -6.04077 0
      vertex 53.8485 -5.65146 2.4
      vertex 53.8485 -5.65146 0
    endloop
  endfacet
  facet normal -0.831498 -0.555528 0
    outer loop
      vertex 53.8485 -5.65146 2.4
      vertex 54.1086 -6.04077 0
      vertex 54.1086 -6.04077 2.4
    endloop
  endfacet
  facet normal -0.555538 0.831491 0
    outer loop
      vertex 49.8485 -28.1485 0
      vertex 49.4592 -28.4086 2.4
      vertex 49.8485 -28.1485 2.4
    endloop
  endfacet
  facet normal -0.555538 0.831491 0
    outer loop
      vertex 49.4592 -28.4086 2.4
      vertex 49.8485 -28.1485 0
      vertex 49.4592 -28.4086 0
    endloop
  endfacet
  facet normal -0.707106 -0.707108 0
    outer loop
      vertex 49.8485 -1.65147 0
      vertex 53.8485 -5.65146 2.4
      vertex 49.8485 -1.65147 2.4
    endloop
  endfacet
  facet normal -0.707106 -0.707108 -0
    outer loop
      vertex 53.8485 -5.65146 2.4
      vertex 49.8485 -1.65147 0
      vertex 53.8485 -5.65146 0
    endloop
  endfacet
  facet normal -0.19513 -0.980777 0
    outer loop
      vertex 49 -1.3 0
      vertex 49.4592 -1.39136 2.4
      vertex 49 -1.3 2.4
    endloop
  endfacet
  facet normal -0.19513 -0.980777 -0
    outer loop
      vertex 49.4592 -1.39136 2.4
      vertex 49 -1.3 0
      vertex 49.4592 -1.39136 0
    endloop
  endfacet
  facet normal -0.980763 -0.1952 0
    outer loop
      vertex 54.2 -6.5 0
      vertex 54.1086 -6.04077 2.4
      vertex 54.1086 -6.04077 0
    endloop
  endfacet
  facet normal -0.980763 -0.1952 0
    outer loop
      vertex 54.1086 -6.04077 2.4
      vertex 54.2 -6.5 0
      vertex 54.2 -6.5 2.4
    endloop
  endfacet
  facet normal 0 -1 0
    outer loop
      vertex 16.5 -0.3 1.6
      vertex 25.5 -0.3 2.4
      vertex 16.5 -0.3 2.4
    endloop
  endfacet
  facet normal 0 -1 -0
    outer loop
      vertex 25.5 -0.3 2.4
      vertex 16.5 -0.3 1.6
      vertex 25.5 -0.3 1.6
    endloop
  endfacet
  facet normal 1 -0 0
    outer loop
      vertex 16.5 -1.3 2.4
      vertex 16.5 -0.3 1.6
      vertex 16.5 -0.3 2.4
    endloop
  endfacet
  facet normal 1 0 0
    outer loop
      vertex 16.5 -0.3 1.6
      vertex 16.5 -1.3 2.4
      vertex 16.5 -1.3 1.6
    endloop
  endfacet
  facet normal -0 0 1
    outer loop
      vertex 16.5 -0.3 1.6
      vertex 25.5 -1.3 1.6
      vertex 25.5 -0.3 1.6
    endloop
  endfacet
  facet normal 0 0 1
    outer loop
      vertex 25.5 -1.3 1.6
      vertex 16.5 -0.3 1.6
      vertex 16.5 -1.3 1.6
    endloop
  endfacet
  facet normal -1 0 0
    outer loop
      vertex 25.5 -1.3 1.6
      vertex 25.5 -0.3 2.4
      vertex 25.5 -0.3 1.6
    endloop
  endfacet
  facet normal -1 -0 0
    outer loop
      vertex 25.5 -0.3 2.4
      vertex 25.5 -1.3 1.6
      vertex 25.5 -1.3 2.4
    endloop
  endfacet
  facet normal -1 0 0
    outer loop
      vertex 25.5 -29.5 1.6
      vertex 25.5 -28.5 2.4
      vertex 25.5 -28.5 1.6
    endloop
  endfacet
  facet normal -1 -0 0
    outer loop
      vertex 25.5 -28.5 2.4
      vertex 25.5 -29.5 1.6
      vertex 25.5 -29.5 2.4
    endloop
  endfacet
  facet normal 0 1 -0
    outer loop
      vertex 25.5 -29.5 1.6
      vertex 16.5 -29.5 2.4
      vertex 25.5 -29.5 2.4
    endloop
  endfacet
  facet normal 0 1 0
    outer loop
      vertex 16.5 -29.5 2.4
      vertex 25.5 -29.5 1.6
      vertex 16.5 -29.5 1.6
    endloop
  endfacet
  facet normal 1 -0 0
    outer loop
      vertex 16.5 -29.5 2.4
      vertex 16.5 -28.5 1.6
      vertex 16.5 -28.5 2.4
    endloop
  endfacet
  facet normal 1 0 0
    outer loop
      vertex 16.5 -28.5 1.6
      vertex 16.5 -29.5 2.4
      vertex 16.5 -29.5 1.6
    endloop
  endfacet
  facet normal -0 0 1
    outer loop
      vertex 16.5 -28.5 1.6
      vertex 25.5 -29.5 1.6
      vertex 25.5 -28.5 1.6
    endloop
  endfacet
  facet normal 0 0 1
    outer loop
      vertex 25.5 -29.5 1.6
      vertex 16.5 -28.5 1.6
      vertex 16.5 -29.5 1.6
    endloop
  endfacet
  facet normal 0 -1 0
    outer loop
      vertex 39 -0.3 1.6
      vertex 48 -0.3 2.4
      vertex 39 -0.3 2.4
    endloop
  endfacet
  facet normal 0 -1 -0
    outer loop
      vertex 48 -0.3 2.4
      vertex 39 -0.3 1.6
      vertex 48 -0.3 1.6
    endloop
  endfacet
  facet normal 1 -0 0
    outer loop
      vertex 39 -1.3 2.4
      vertex 39 -0.3 1.6
      vertex 39 -0.3 2.4
    endloop
  endfacet
  facet normal 1 0 0
    outer loop
      vertex 39 -0.3 1.6
      vertex 39 -1.3 2.4
      vertex 39 -1.3 1.6
    endloop
  endfacet
  facet normal -0 0 1
    outer loop
      vertex 39 -0.3 1.6
      vertex 48 -1.3 1.6
      vertex 48 -0.3 1.6
    endloop
  endfacet
  facet normal 0 0 1
    outer loop
      vertex 48 -1.3 1.6
      vertex 39 -0.3 1.6
      vertex 39 -1.3 1.6
    endloop
  endfacet
  facet normal -1 0 0
    outer loop
      vertex 48 -1.3 1.6
      vertex 48 -0.3 2.4
      vertex 48 -0.3 1.6
    endloop
  endfacet
  facet normal -1 -0 0
    outer loop
      vertex 48 -0.3 2.4
      vertex 48 -1.3 1.6
      vertex 48 -1.3 2.4
    endloop
  endfacet
  facet normal -1 0 0
    outer loop
      vertex 48 -29.5 1.6
      vertex 48 -28.5 2.4
      vertex 48 -28.5 1.6
    endloop
  endfacet
  facet normal -1 -0 0
    outer loop
      vertex 48 -28.5 2.4
      vertex 48 -29.5 1.6
      vertex 48 -29.5 2.4
    endloop
  endfacet
  facet normal 0 1 -0
    outer loop
      vertex 48 -29.5 1.6
      vertex 39 -29.5 2.4
      vertex 48 -29.5 2.4
    endloop
  endfacet
  facet normal 0 1 0
    outer loop
      vertex 39 -29.5 2.4
      vertex 48 -29.5 1.6
      vertex 39 -29.5 1.6
    endloop
  endfacet
  facet normal 1 -0 0
    outer loop
      vertex 39 -29.5 2.4
      vertex 39 -28.5 1.6
      vertex 39 -28.5 2.4
    endloop
  endfacet
  facet normal 1 0 0
    outer loop
      vertex 39 -28.5 1.6
      vertex 39 -29.5 2.4
      vertex 39 -29.5 1.6
    endloop
  endfacet
  facet normal -0 0 1
    outer loop
      vertex 39 -28.5 1.6
      vertex 48 -29.5 1.6
      vertex 48 -28.5 1.6
    endloop
  endfacet
  facet normal 0 0 1
    outer loop
      vertex 48 -29.5 1.6
      vertex 39 -28.5 1.6
      vertex 39 -29.5 1.6
    endloop
  endfacet
  facet normal 1 -0 0
    outer loop
      vertex 58 -33.1403 2.4
      vertex 58 3 0
      vertex 58 3 2.4
    endloop
  endfacet
  facet normal 1 0 0
    outer loop
      vertex 58 3 0
      vertex 58 -33.1403 2.4
      vertex 58 -33.1403 0
    endloop
  endfacet
  facet normal 0 1 -0
    outer loop
      vertex 58 3 0
      vertex 3 3 2.4
      vertex 58 3 2.4
    endloop
  endfacet
  facet normal 0 1 0
    outer loop
      vertex 3 3 2.4
      vertex 58 3 0
      vertex 3 3 0
    endloop
  endfacet
  facet normal -1 0 0
    outer loop
      vertex 3 3 0
      vertex 3 -1.9 2.4
      vertex 3 3 2.4
    endloop
  endfacet
  facet normal -1 0 0
    outer loop
      vertex 3 3 0
      vertex 3 -2.8 1.5
      vertex 3 -1.9 2.4
    endloop
  endfacet
  facet normal -1 0 0
    outer loop
      vertex 3 3 0
      vertex 3 -4.8 1.5
      vertex 3 -2.8 1.5
    endloop
  endfacet
  facet normal -1 0 0
    outer loop
      vertex 3 -4.8 1.5
      vertex 3 -5.6 1.5
      vertex 3 -4.8 2.4
    endloop
  endfacet
  facet normal -1 0 0
    outer loop
      vertex 3 3 0
      vertex 3 -5.6 1.5
      vertex 3 -4.8 1.5
    endloop
  endfacet
  facet normal -1 0 0
    outer loop
      vertex 3 3 0
      vertex 3 -14.8 1.5
      vertex 3 -5.6 1.5
    endloop
  endfacet
  facet normal -1 0 0
    outer loop
      vertex 3 -14.8 1.5
      vertex 3 -15.6 1.5
      vertex 3 -14.8 2.4
    endloop
  endfacet
  facet normal -1 0 0
    outer loop
      vertex 3 3 0
      vertex 3 -15.6 1.5
      vertex 3 -14.8 1.5
    endloop
  endfacet
  facet normal -1 0 0
    outer loop
      vertex 3 -33.2 0
      vertex 3 -15.6 1.5
      vertex 3 3 0
    endloop
  endfacet
  facet normal -1 0 0
    outer loop
      vertex 3 -24.8 1.5
      vertex 3 -25.6 1.5
      vertex 3 -24.8 2.4
    endloop
  endfacet
  facet normal -1 -0 0
    outer loop
      vertex 3 -15.6 1.5
      vertex 3 -33.2 0
      vertex 3 -24.8 1.5
    endloop
  endfacet
  facet normal -1 -0 0
    outer loop
      vertex 3 -24.8 1.5
      vertex 3 -33.2 0
      vertex 3 -25.6 1.5
    endloop
  endfacet
  facet normal -1 -0 0
    outer loop
      vertex 3 -25.6 1.5
      vertex 3 -33.2 0
      vertex 3 -27.2 1.5
    endloop
  endfacet
  facet normal -1 0 0
    outer loop
      vertex 3 -33.2 0
      vertex 3 -28.1 2.4
      vertex 3 -27.2 1.5
    endloop
  endfacet
  facet normal -1 -0 0
    outer loop
      vertex 3 -28.1 2.4
      vertex 3 -33.2 0
      vertex 3 -33.2 2.4
    endloop
  endfacet
  facet normal -1 -0 0
    outer loop
      vertex 3 -4.8 2.4
      vertex 3 -5.6 1.5
      vertex 3 -5.6 2.4
    endloop
  endfacet
  facet normal -1 -0 0
    outer loop
      vertex 3 -14.8 2.4
      vertex 3 -15.6 1.5
      vertex 3 -15.6 2.4
    endloop
  endfacet
  facet normal -1 -0 0
    outer loop
      vertex 3 -24.8 2.4
      vertex 3 -25.6 1.5
      vertex 3 -25.6 2.4
    endloop
  endfacet
  facet normal -0 0 1
    outer loop
      vertex 3 -24.8 2.4
      vertex 4.8 -25.6 2.4
      vertex 4.8 -24.8 2.4
    endloop
  endfacet
  facet normal 0 0 1
    outer loop
      vertex 4.8 -25.6 2.4
      vertex 3 -24.8 2.4
      vertex 3 -25.6 2.4
    endloop
  endfacet
  facet normal -0 0 1
    outer loop
      vertex 3 -14.8 2.4
      vertex 4.8 -15.6 2.4
      vertex 4.8 -14.8 2.4
    endloop
  endfacet
  facet normal 0 0 1
    outer loop
      vertex 4.8 -15.6 2.4
      vertex 3 -14.8 2.4
      vertex 3 -15.6 2.4
    endloop
  endfacet
  facet normal -0 0 1
    outer loop
      vertex 3 -4.8 2.4
      vertex 4.8 -5.6 2.4
      vertex 4.8 -4.8 2.4
    endloop
  endfacet
  facet normal 0 0 1
    outer loop
      vertex 4.8 -5.6 2.4
      vertex 3 -4.8 2.4
      vertex 3 -5.6 2.4
    endloop
  endfacet
  facet normal 0 0 1
    outer loop
      vertex 16.5 -28.5 2.4
      vertex 8 -28.5 2.4
      vertex 16.5 -29.5 2.4
    endloop
  endfacet
  facet normal 0 0 1
    outer loop
      vertex 39 -28.5 2.4
      vertex 25.5 -28.5 2.4
      vertex 39 -29.5 2.4
    endloop
  endfacet
  facet normal 0 0 1
    outer loop
      vertex 49 -1.3 2.4
      vertex 48 -0.3 2.4
      vertex 48 -1.3 2.4
    endloop
  endfacet
  facet normal 0 0 1
    outer loop
      vertex 39 -1.3 2.4
      vertex 25.5 -0.3 2.4
      vertex 25.5 -1.3 2.4
    endloop
  endfacet
  facet normal 0 0 1
    outer loop
      vertex 4.8 -5.6 2.4
      vertex 6.8 -2.5 2.4
      vertex 4.8 -4.8 2.4
    endloop
  endfacet
  facet normal 0 0 1
    outer loop
      vertex 4.8 -14.8 2.4
      vertex 6.8 -2.5 2.4
      vertex 4.8 -5.6 2.4
    endloop
  endfacet
  facet normal 0 0 1
    outer loop
      vertex 6.8 -2.5 2.4
      vertex 4.8 -14.8 2.4
      vertex 6.8 -27.3 2.4
    endloop
  endfacet
  facet normal -0 0 1
    outer loop
      vertex 4.8 -15.6 2.4
      vertex 6.8 -27.3 2.4
      vertex 4.8 -14.8 2.4
    endloop
  endfacet
  facet normal -0 0 1
    outer loop
      vertex 4.8 -24.8 2.4
      vertex 6.8 -27.3 2.4
      vertex 4.8 -15.6 2.4
    endloop
  endfacet
  facet normal -0 0 1
    outer loop
      vertex 4.8 -25.6 2.4
      vertex 6.8 -27.3 2.4
      vertex 4.8 -24.8 2.4
    endloop
  endfacet
  facet normal 0 0 1
    outer loop
      vertex 4.8 -27.3 2.4
      vertex 6.8 -27.3 2.4
      vertex 4.8 -25.6 2.4
    endloop
  endfacet
  facet normal 0 0 1
    outer loop
      vertex 6.8 -27.3 2.4
      vertex 4.8 -27.3 2.4
      vertex 4.95914 -28.1 2.4
    endloop
  endfacet
  facet normal 0 0 1
    outer loop
      vertex 53.8485 -5.65146 2.4
      vertex 55.6 -4.742 2.4
      vertex 55.2627 -4.23724 2.4
    endloop
  endfacet
  facet normal 0 0 1
    outer loop
      vertex 54.2 -23.3 2.4
      vertex 55.6 -4.742 2.4
      vertex 54.2 -6.5 2.4
    endloop
  endfacet
  facet normal 0 0 1
    outer loop
      vertex 55.6 -4.742 2.4
      vertex 54.2 -23.3 2.4
      vertex 55.6 -25.6 2.4
    endloop
  endfacet
  facet normal 0 0 1
    outer loop
      vertex 55.6 -4.742 2.4
      vertex 54.1086 -6.04077 2.4
      vertex 54.2 -6.5 2.4
    endloop
  endfacet
  facet normal 0 0 1
    outer loop
      vertex 55.6 -4.742 2.4
      vertex 53.8485 -5.65146 2.4
      vertex 54.1086 -6.04077 2.4
    endloop
  endfacet
  facet normal 0 0 1
    outer loop
      vertex 52.9255 -1.9 2.4
      vertex 53.8485 -5.65146 2.4
      vertex 55.2627 -4.23724 2.4
    endloop
  endfacet
  facet normal 0 0 1
    outer loop
      vertex 53.8485 -5.65146 2.4
      vertex 52.9255 -1.9 2.4
      vertex 49.8485 -1.65147 2.4
    endloop
  endfacet
  facet normal -0 0 1
    outer loop
      vertex 55.6 -25.6 2.4
      vertex 58 -33.1403 2.4
      vertex 58 3 2.4
    endloop
  endfacet
  facet normal 0 0 1
    outer loop
      vertex 55.6 -4.742 2.4
      vertex 58 3 2.4
      vertex 55.6 -2.8 2.4
    endloop
  endfacet
  facet normal 0 0 1
    outer loop
      vertex 58 3 2.4
      vertex 54.7 -1.9 2.4
      vertex 55.6 -2.8 2.4
    endloop
  endfacet
  facet normal 0 0 1
    outer loop
      vertex 58 3 2.4
      vertex 52.9255 -1.9 2.4
      vertex 54.7 -1.9 2.4
    endloop
  endfacet
  facet normal -0 0 1
    outer loop
      vertex 48 -0.3 2.4
      vertex 52.9255 -1.9 2.4
      vertex 58 3 2.4
    endloop
  endfacet
  facet normal 0 0 1
    outer loop
      vertex 52.9255 -1.9 2.4
      vertex 49.4592 -1.39136 2.4
      vertex 49.8485 -1.65147 2.4
    endloop
  endfacet
  facet normal 0 0 1
    outer loop
      vertex 52.9255 -1.9 2.4
      vertex 48 -0.3 2.4
      vertex 49.4592 -1.39136 2.4
    endloop
  endfacet
  facet normal 0 0 1
    outer loop
      vertex 49.4592 -1.39136 2.4
      vertex 48 -0.3 2.4
      vertex 49 -1.3 2.4
    endloop
  endfacet
  facet normal 0 0 1
    outer loop
      vertex 58 3 2.4
      vertex 39 -0.3 2.4
      vertex 48 -0.3 2.4
    endloop
  endfacet
  facet normal 0 0 1
    outer loop
      vertex 39 -0.3 2.4
      vertex 25.5 -0.3 2.4
      vertex 39 -1.3 2.4
    endloop
  endfacet
  facet normal 0 0 1
    outer loop
      vertex 58 3 2.4
      vertex 25.5 -0.3 2.4
      vertex 39 -0.3 2.4
    endloop
  endfacet
  facet normal -0 0 1
    outer loop
      vertex 3 3 2.4
      vertex 25.5 -0.3 2.4
      vertex 58 3 2.4
    endloop
  endfacet
  facet normal 0 0 1
    outer loop
      vertex 16.5 -0.3 2.4
      vertex 8 -1.3 2.4
      vertex 16.5 -1.3 2.4
    endloop
  endfacet
  facet normal 0 0 1
    outer loop
      vertex 4.8 -2.5 2.4
      vertex 6.8 -2.5 2.4
      vertex 4.91935 -1.9 2.4
    endloop
  endfacet
  facet normal 0 0 1
    outer loop
      vertex 4.8 -4.8 2.4
      vertex 6.8 -2.5 2.4
      vertex 4.8 -2.5 2.4
    endloop
  endfacet
  facet normal 0 0 1
    outer loop
      vertex 6.89136 -2.04079 2.4
      vertex 4.91935 -1.9 2.4
      vertex 6.8 -2.5 2.4
    endloop
  endfacet
  facet normal 0 0 1
    outer loop
      vertex 7.15147 -1.65147 2.4
      vertex 4.91935 -1.9 2.4
      vertex 6.89136 -2.04079 2.4
    endloop
  endfacet
  facet normal 0 0 1
    outer loop
      vertex 7.54079 -1.39136 2.4
      vertex 4.91935 -1.9 2.4
      vertex 7.15147 -1.65147 2.4
    endloop
  endfacet
  facet normal 0 0 1
    outer loop
      vertex 3 3 2.4
      vertex 7.54079 -1.39136 2.4
      vertex 8 -1.3 2.4
    endloop
  endfacet
  facet normal 0 0 1
    outer loop
      vertex 25.5 -0.3 2.4
      vertex 3 3 2.4
      vertex 16.5 -0.3 2.4
    endloop
  endfacet
  facet normal 0 0 1
    outer loop
      vertex 3 3 2.4
      vertex 8 -1.3 2.4
      vertex 16.5 -0.3 2.4
    endloop
  endfacet
  facet normal 0 0 1
    outer loop
      vertex 7.54079 -1.39136 2.4
      vertex 3 3 2.4
      vertex 4.91935 -1.9 2.4
    endloop
  endfacet
  facet normal 0 0 1
    outer loop
      vertex 4.91935 -1.9 2.4
      vertex 3 3 2.4
      vertex 3 -1.9 2.4
    endloop
  endfacet
  facet normal 0 0 1
    outer loop
      vertex 55.6 -25.6 2.4
      vertex 58 3 2.4
      vertex 55.6 -4.742 2.4
    endloop
  endfacet
  facet normal -0 0 1
    outer loop
      vertex 55.6 -27.2 2.4
      vertex 58 -33.1403 2.4
      vertex 55.6 -25.6 2.4
    endloop
  endfacet
  facet normal -0 0 1
    outer loop
      vertex 54.7 -28.1 2.4
      vertex 58 -33.1403 2.4
      vertex 55.6 -27.2 2.4
    endloop
  endfacet
  facet normal 0 0 1
    outer loop
      vertex 58 -33.1403 2.4
      vertex 54.7 -28.1 2.4
      vertex 57.7 -33.2 2.4
    endloop
  endfacet
  facet normal -0 0 1
    outer loop
      vertex 52.7255 -28.1 2.4
      vertex 57.7 -33.2 2.4
      vertex 54.7 -28.1 2.4
    endloop
  endfacet
  facet normal 0 0 1
    outer loop
      vertex 49.4592 -28.4086 2.4
      vertex 52.7255 -28.1 2.4
      vertex 49.8485 -28.1485 2.4
    endloop
  endfacet
  facet normal 0 0 1
    outer loop
      vertex 48 -29.5 2.4
      vertex 52.7255 -28.1 2.4
      vertex 49.4592 -28.4086 2.4
    endloop
  endfacet
  facet normal 0 0 1
    outer loop
      vertex 48 -29.5 2.4
      vertex 49.4592 -28.4086 2.4
      vertex 49 -28.5 2.4
    endloop
  endfacet
  facet normal 0 0 1
    outer loop
      vertex 48 -29.5 2.4
      vertex 49 -28.5 2.4
      vertex 48 -28.5 2.4
    endloop
  endfacet
  facet normal 0 0 1
    outer loop
      vertex 52.7255 -28.1 2.4
      vertex 48 -29.5 2.4
      vertex 57.7 -33.2 2.4
    endloop
  endfacet
  facet normal -0 0 1
    outer loop
      vertex 39 -29.5 2.4
      vertex 57.7 -33.2 2.4
      vertex 48 -29.5 2.4
    endloop
  endfacet
  facet normal 0 0 1
    outer loop
      vertex 25.5 -29.5 2.4
      vertex 39 -29.5 2.4
      vertex 25.5 -28.5 2.4
    endloop
  endfacet
  facet normal 0 0 1
    outer loop
      vertex 39 -29.5 2.4
      vertex 25.5 -29.5 2.4
      vertex 57.7 -33.2 2.4
    endloop
  endfacet
  facet normal 0 0 1
    outer loop
      vertex 3 -33.2 2.4
      vertex 25.5 -29.5 2.4
      vertex 16.5 -29.5 2.4
    endloop
  endfacet
  facet normal 0 0 1
    outer loop
      vertex 4.95914 -28.1 2.4
      vertex 6.89136 -27.7592 2.4
      vertex 6.8 -27.3 2.4
    endloop
  endfacet
  facet normal -0 0 1
    outer loop
      vertex 4.95914 -28.1 2.4
      vertex 7.15147 -28.1485 2.4
      vertex 6.89136 -27.7592 2.4
    endloop
  endfacet
  facet normal 0 0 1
    outer loop
      vertex 4.95914 -28.1 2.4
      vertex 7.54079 -28.4086 2.4
      vertex 7.15147 -28.1485 2.4
    endloop
  endfacet
  facet normal 0 0 1
    outer loop
      vertex 3 -33.2 2.4
      vertex 7.54079 -28.4086 2.4
      vertex 4.95914 -28.1 2.4
    endloop
  endfacet
  facet normal 0 0 1
    outer loop
      vertex 3 -33.2 2.4
      vertex 4.95914 -28.1 2.4
      vertex 3 -28.1 2.4
    endloop
  endfacet
  facet normal 0 0 1
    outer loop
      vertex 7.54079 -28.4086 2.4
      vertex 3 -33.2 2.4
      vertex 8 -28.5 2.4
    endloop
  endfacet
  facet normal 0 0 1
    outer loop
      vertex 25.5 -29.5 2.4
      vertex 3 -33.2 2.4
      vertex 57.7 -33.2 2.4
    endloop
  endfacet
  facet normal 0 0 1
    outer loop
      vertex 8 -28.5 2.4
      vertex 3 -33.2 2.4
      vertex 16.5 -29.5 2.4
    endloop
  endfacet
  facet normal -0 0 1
    outer loop
      vertex 54.1086 -23.7592 2.4
      vertex 55.6 -25.6 2.4
      vertex 54.2 -23.3 2.4
    endloop
  endfacet
  facet normal 0 0 1
    outer loop
      vertex 55.6 -25.6 2.4
      vertex 54.1086 -23.7592 2.4
      vertex 55.2255 -25.6 2.4
    endloop
  endfacet
  facet normal -0 0 1
    outer loop
      vertex 53.8485 -24.1485 2.4
      vertex 55.2255 -25.6 2.4
      vertex 54.1086 -23.7592 2.4
    endloop
  endfacet
  facet normal 0 0 1
    outer loop
      vertex 53.8485 -24.1485 2.4
      vertex 52.7255 -28.1 2.4
      vertex 55.2255 -25.6 2.4
    endloop
  endfacet
  facet normal 0 -0 1
    outer loop
      vertex 52.7255 -28.1 2.4
      vertex 53.8485 -24.1485 2.4
      vertex 49.8485 -28.1485 2.4
    endloop
  endfacet
endsolid OpenSCAD_Model
