solid OpenSCAD_Model
  facet normal 0.195173 0 0.980769
    outer loop
      vertex 57.7 -37.6 33.2
      vertex 58 -40 33.1403
      vertex 58 -37.6 33.1403
    endloop
  endfacet
  facet normal 0.195173 0 0.980769
    outer loop
      vertex 58 -40 33.1403
      vertex 57.7 -37.6 33.2
      vertex 57.7 -40 33.2
    endloop
  endfacet
  facet normal -0 0 1
    outer loop
      vertex 3 -37.6 33.2
      vertex 57.7 -40 33.2
      vertex 57.7 -37.6 33.2
    endloop
  endfacet
  facet normal 0 0 1
    outer loop
      vertex 57.7 -40 33.2
      vertex 3 -37.6 33.2
      vertex 3 -40 33.2
    endloop
  endfacet
  facet normal 0 -1 0
    outer loop
      vertex 6 -40 30.7
      vertex 57.7 -40 33.2
      vertex 3 -40 33.2
    endloop
  endfacet
  facet normal 0 -1 0
    outer loop
      vertex 57.7 -40 33.2
      vertex 6 -40 30.7
      vertex 55 -40 30.7
    endloop
  endfacet
  facet normal 0 -1 0
    outer loop
      vertex 3 -40 33.2
      vertex 5.54079 -40 30.6087
      vertex 6 -40 30.7
    endloop
  endfacet
  facet normal 0 -1 0
    outer loop
      vertex 3 -40 33.2
      vertex 5.15147 -40 30.3485
      vertex 5.54079 -40 30.6087
    endloop
  endfacet
  facet normal 0 -1 0
    outer loop
      vertex 3 -40 33.2
      vertex 4.89136 -40 29.9592
      vertex 5.15147 -40 30.3485
    endloop
  endfacet
  facet normal 0 -1 0
    outer loop
      vertex 3 -40 33.2
      vertex 4.8 -40 29.5
      vertex 4.89136 -40 29.9592
    endloop
  endfacet
  facet normal 0 -1 0
    outer loop
      vertex 3 -40 -3
      vertex 4.8 -40 29.5
      vertex 3 -40 33.2
    endloop
  endfacet
  facet normal 0 -1 -0
    outer loop
      vertex 6 -40 -0.899997
      vertex 3 -40 -3
      vertex 55 -40 -0.899997
    endloop
  endfacet
  facet normal 0 -1 -0
    outer loop
      vertex 5.54079 -40 -0.808642
      vertex 3 -40 -3
      vertex 6 -40 -0.899997
    endloop
  endfacet
  facet normal 0 -1 -0
    outer loop
      vertex 5.15147 -40 -0.548526
      vertex 3 -40 -3
      vertex 5.54079 -40 -0.808642
    endloop
  endfacet
  facet normal 0 -1 -0
    outer loop
      vertex 4.89136 -40 -0.159213
      vertex 3 -40 -3
      vertex 5.15147 -40 -0.548526
    endloop
  endfacet
  facet normal 0 -1 -0
    outer loop
      vertex 4.8 -40 0.3
      vertex 3 -40 -3
      vertex 4.89136 -40 -0.159213
    endloop
  endfacet
  facet normal 0 -1 -0
    outer loop
      vertex 4.8 -40 29.5
      vertex 3 -40 -3
      vertex 4.8 -40 0.3
    endloop
  endfacet
  facet normal 0 -1 0
    outer loop
      vertex 55.4592 -40 30.6087
      vertex 57.7 -40 33.2
      vertex 55 -40 30.7
    endloop
  endfacet
  facet normal 0 -1 0
    outer loop
      vertex 55.8485 -40 30.3485
      vertex 57.7 -40 33.2
      vertex 55.4592 -40 30.6087
    endloop
  endfacet
  facet normal 0 -1 -0
    outer loop
      vertex 57.7 -40 33.2
      vertex 55.8485 -40 30.3485
      vertex 58 -40 33.1403
    endloop
  endfacet
  facet normal 0 -1 0
    outer loop
      vertex 56.1086 -40 29.9592
      vertex 58 -40 33.1403
      vertex 55.8485 -40 30.3485
    endloop
  endfacet
  facet normal 0 -1 0
    outer loop
      vertex 56.2 -40 29.5
      vertex 58 -40 33.1403
      vertex 56.1086 -40 29.9592
    endloop
  endfacet
  facet normal 0 -1 0
    outer loop
      vertex 58 -40 -3
      vertex 56.2 -40 29.5
      vertex 56.2 -40 0.3
    endloop
  endfacet
  facet normal 0 -1 0
    outer loop
      vertex 56.2 -40 29.5
      vertex 58 -40 -3
      vertex 58 -40 33.1403
    endloop
  endfacet
  facet normal 0 -1 0
    outer loop
      vertex 56.1086 -40 -0.159213
      vertex 58 -40 -3
      vertex 56.2 -40 0.3
    endloop
  endfacet
  facet normal 0 -1 0
    outer loop
      vertex 55.8485 -40 -0.548526
      vertex 58 -40 -3
      vertex 56.1086 -40 -0.159213
    endloop
  endfacet
  facet normal 0 -1 0
    outer loop
      vertex 55.4592 -40 -0.808642
      vertex 58 -40 -3
      vertex 55.8485 -40 -0.548526
    endloop
  endfacet
  facet normal 0 -1 0
    outer loop
      vertex 55 -40 -0.899997
      vertex 58 -40 -3
      vertex 55.4592 -40 -0.808642
    endloop
  endfacet
  facet normal 0 -1 0
    outer loop
      vertex 58 -40 -3
      vertex 55 -40 -0.899997
      vertex 3 -40 -3
    endloop
  endfacet
  facet normal 0 -1 0
    outer loop
      vertex 4.8 -40 29.5
      vertex 6 -40 30.7
      vertex 5.54079 -40 30.6087
    endloop
  endfacet
  facet normal 0 -1 0
    outer loop
      vertex 6 -40 30.7
      vertex 49 -40 28.5
      vertex 55 -40 30.7
    endloop
  endfacet
  facet normal 0 -1 0
    outer loop
      vertex 4.8 -40 29.5
      vertex 5.54079 -40 30.6087
      vertex 5.15147 -40 30.3485
    endloop
  endfacet
  facet normal 0 -1 0
    outer loop
      vertex 49.4592 -40 28.4086
      vertex 55 -40 30.7
      vertex 49 -40 28.5
    endloop
  endfacet
  facet normal 0 -1 0
    outer loop
      vertex 4.8 -40 29.5
      vertex 5.15147 -40 30.3485
      vertex 4.89136 -40 29.9592
    endloop
  endfacet
  facet normal 0 -1 0
    outer loop
      vertex 49.8485 -40 28.1485
      vertex 55 -40 30.7
      vertex 49.4592 -40 28.4086
    endloop
  endfacet
  facet normal 0 -1 -0
    outer loop
      vertex 6 -40 30.7
      vertex 4.8 -40 29.5
      vertex 7.15147 -40 28.1485
    endloop
  endfacet
  facet normal -0 -1 0
    outer loop
      vertex 56.2 -40 29.5
      vertex 55 -40 30.7
      vertex 49.8485 -40 28.1485
    endloop
  endfacet
  facet normal 0 -1 0
    outer loop
      vertex 6 -40 30.7
      vertex 8 -40 28.5
      vertex 49 -40 28.5
    endloop
  endfacet
  facet normal 0 -1 0
    outer loop
      vertex 6 -40 30.7
      vertex 7.54079 -40 28.4086
      vertex 8 -40 28.5
    endloop
  endfacet
  facet normal 0 -1 0
    outer loop
      vertex 6 -40 30.7
      vertex 7.15147 -40 28.1485
      vertex 7.54079 -40 28.4086
    endloop
  endfacet
  facet normal 0 -1 0
    outer loop
      vertex 4.8 -40 29.5
      vertex 6.89136 -40 27.7592
      vertex 7.15147 -40 28.1485
    endloop
  endfacet
  facet normal 0 -1 0
    outer loop
      vertex 4.8 -40 29.5
      vertex 6.8 -40 27.3
      vertex 6.89136 -40 27.7592
    endloop
  endfacet
  facet normal 0 -1 0
    outer loop
      vertex 4.8 -40 29.5
      vertex 6.8 -40 2.5
      vertex 6.8 -40 27.3
    endloop
  endfacet
  facet normal 0 -1 -0
    outer loop
      vertex 7.54079 -40 1.39136
      vertex 6 -40 -0.899997
      vertex 8 -40 1.3
    endloop
  endfacet
  facet normal 0 -1 -0
    outer loop
      vertex 7.15147 -40 1.65147
      vertex 6 -40 -0.899997
      vertex 7.54079 -40 1.39136
    endloop
  endfacet
  facet normal 0 -1 0
    outer loop
      vertex 6 -40 -0.899997
      vertex 7.15147 -40 1.65147
      vertex 4.8 -40 0.3
    endloop
  endfacet
  facet normal 0 -1 -0
    outer loop
      vertex 6.89136 -40 2.04079
      vertex 4.8 -40 0.3
      vertex 7.15147 -40 1.65147
    endloop
  endfacet
  facet normal 0 -1 -0
    outer loop
      vertex 6.8 -40 2.5
      vertex 4.8 -40 0.3
      vertex 6.89136 -40 2.04079
    endloop
  endfacet
  facet normal 0 -1 0
    outer loop
      vertex 4.8 -40 0.3
      vertex 6.8 -40 2.5
      vertex 4.8 -40 29.5
    endloop
  endfacet
  facet normal 0 -1 0
    outer loop
      vertex 55 -40 30.7
      vertex 56.2 -40 29.5
      vertex 55.4592 -40 30.6087
    endloop
  endfacet
  facet normal 0 -1 0
    outer loop
      vertex 55.4592 -40 30.6087
      vertex 56.2 -40 29.5
      vertex 55.8485 -40 30.3485
    endloop
  endfacet
  facet normal 0 -1 0
    outer loop
      vertex 55.8485 -40 30.3485
      vertex 56.2 -40 29.5
      vertex 56.1086 -40 29.9592
    endloop
  endfacet
  facet normal 0 -1 0
    outer loop
      vertex 53.8485 -40 24.1485
      vertex 56.2 -40 29.5
      vertex 49.8485 -40 28.1485
    endloop
  endfacet
  facet normal 0 -1 0
    outer loop
      vertex 54.1086 -40 23.7592
      vertex 56.2 -40 29.5
      vertex 53.8485 -40 24.1485
    endloop
  endfacet
  facet normal 0 -1 0
    outer loop
      vertex 54.2 -40 23.3
      vertex 56.2 -40 29.5
      vertex 54.1086 -40 23.7592
    endloop
  endfacet
  facet normal 0 -1 0
    outer loop
      vertex 54.2 -40 6.5
      vertex 56.2 -40 29.5
      vertex 54.2 -40 23.3
    endloop
  endfacet
  facet normal 0 -1 0
    outer loop
      vertex 54.2 -40 6.5
      vertex 56.2 -40 0.3
      vertex 56.2 -40 29.5
    endloop
  endfacet
  facet normal 0 -1 0
    outer loop
      vertex 54.1086 -40 6.04077
      vertex 56.2 -40 0.3
      vertex 54.2 -40 6.5
    endloop
  endfacet
  facet normal 0 -1 0
    outer loop
      vertex 53.8485 -40 5.65146
      vertex 56.2 -40 0.3
      vertex 54.1086 -40 6.04077
    endloop
  endfacet
  facet normal 0 -1 0
    outer loop
      vertex 49.8485 -40 1.65147
      vertex 56.2 -40 0.3
      vertex 53.8485 -40 5.65146
    endloop
  endfacet
  facet normal 0 -1 0
    outer loop
      vertex 55 -40 -0.899997
      vertex 49.8485 -40 1.65147
      vertex 49.4592 -40 1.39136
    endloop
  endfacet
  facet normal 0 -1 0
    outer loop
      vertex 55 -40 -0.899997
      vertex 49.4592 -40 1.39136
      vertex 49 -40 1.3
    endloop
  endfacet
  facet normal 0 -1 -0
    outer loop
      vertex 8 -40 1.3
      vertex 6 -40 -0.899997
      vertex 49 -40 1.3
    endloop
  endfacet
  facet normal 0 -1 0
    outer loop
      vertex 6 -40 -0.899997
      vertex 4.8 -40 0.3
      vertex 4.89136 -40 -0.159213
    endloop
  endfacet
  facet normal 0 -1 0
    outer loop
      vertex 55 -40 -0.899997
      vertex 49 -40 1.3
      vertex 6 -40 -0.899997
    endloop
  endfacet
  facet normal 0 -1 0
    outer loop
      vertex 6 -40 -0.899997
      vertex 4.89136 -40 -0.159213
      vertex 5.15147 -40 -0.548526
    endloop
  endfacet
  facet normal 0 -1 0
    outer loop
      vertex 49.8485 -40 1.65147
      vertex 55 -40 -0.899997
      vertex 56.2 -40 0.3
    endloop
  endfacet
  facet normal 0 -1 0
    outer loop
      vertex 6 -40 -0.899997
      vertex 5.15147 -40 -0.548526
      vertex 5.54079 -40 -0.808642
    endloop
  endfacet
  facet normal 0 -1 0
    outer loop
      vertex 56.2 -40 0.3
      vertex 55 -40 -0.899997
      vertex 56.1086 -40 -0.159213
    endloop
  endfacet
  facet normal 0 -1 0
    outer loop
      vertex 56.1086 -40 -0.159213
      vertex 55 -40 -0.899997
      vertex 55.8485 -40 -0.548526
    endloop
  endfacet
  facet normal 0 -1 0
    outer loop
      vertex 55.8485 -40 -0.548526
      vertex 55 -40 -0.899997
      vertex 55.4592 -40 -0.808642
    endloop
  endfacet
  facet normal 0 0.707107 -0.707107
    outer loop
      vertex 53.6255 -38.5 27.2
      vertex 54.7 -37.6 28.1
      vertex 54.7 -38.5 27.2
    endloop
  endfacet
  facet normal 0 0.707107 -0.707107
    outer loop
      vertex 54.7 -37.6 28.1
      vertex 53.6255 -38.5 27.2
      vertex 52.7255 -37.6 28.1
    endloop
  endfacet
  facet normal 0 0.707107 -0.707107
    outer loop
      vertex 4.8 -38.5 27.2
      vertex 3 -38.5 27.2
      vertex 4.8 -38.4 27.3
    endloop
  endfacet
  facet normal -1.45379e-16 0.707107 -0.707107
    outer loop
      vertex 3 -37.6 28.1
      vertex 4.8 -38.4 27.3
      vertex 3 -38.5 27.2
    endloop
  endfacet
  facet normal 0 0.707107 -0.707107
    outer loop
      vertex 4.8 -38.4 27.3
      vertex 3 -37.6 28.1
      vertex 4.95914 -37.6 28.1
    endloop
  endfacet
  facet normal -0.707107 0.707107 0
    outer loop
      vertex 55.6 -37.6 2.8
      vertex 55.2627 -37.9373 4.23724
      vertex 55.6 -37.6 4.742
    endloop
  endfacet
  facet normal -0.707107 0.707107 0
    outer loop
      vertex 54.7 -38.5 3.6745
      vertex 55.6 -37.6 2.8
      vertex 54.7 -38.5 2.8
    endloop
  endfacet
  facet normal -0.707107 0.707107 0
    outer loop
      vertex 55.6 -37.6 2.8
      vertex 54.7 -38.5 3.6745
      vertex 55.2627 -37.9373 4.23724
    endloop
  endfacet
  facet normal -0.707107 0.707107 2.31366e-14
    outer loop
      vertex 54.7 -38.5 26.1255
      vertex 55.6 -37.6 25.6
      vertex 55.2255 -37.9745 25.6
    endloop
  endfacet
  facet normal -0.707107 0.707107 0
    outer loop
      vertex 55.6 -37.6 25.6
      vertex 54.7 -38.5 26.1255
      vertex 55.6 -37.6 27.2
    endloop
  endfacet
  facet normal -0.707107 0.707107 0
    outer loop
      vertex 55.6 -37.6 27.2
      vertex 54.7 -38.5 26.1255
      vertex 54.7 -38.5 27.2
    endloop
  endfacet
  facet normal -0.57735 0.57735 0.57735
    outer loop
      vertex 55.6 -37.6 2.8
      vertex 54.7 -37.6 1.9
      vertex 54.7 -38.5 2.8
    endloop
  endfacet
  facet normal -0.57735 0.57735 -0.57735
    outer loop
      vertex 54.7 -37.6 28.1
      vertex 55.6 -37.6 27.2
      vertex 54.7 -38.5 27.2
    endloop
  endfacet
  facet normal 0 1 0
    outer loop
      vertex 54.7 -38.5 3.6745
      vertex 54.7 -38.5 2.8
      vertex 53.8255 -38.5 2.8
    endloop
  endfacet
  facet normal 0 1 0
    outer loop
      vertex 54.7 -38.5 27.2
      vertex 54.7 -38.5 26.1255
      vertex 53.6255 -38.5 27.2
    endloop
  endfacet
  facet normal 0 1 -0
    outer loop
      vertex 4.8 -38.5 2.8
      vertex 3 -38.5 4.8
      vertex 4.8 -38.5 4.8
    endloop
  endfacet
  facet normal 0 1 0
    outer loop
      vertex 3 -38.5 4.8
      vertex 4.8 -38.5 2.8
      vertex 3 -38.5 2.8
    endloop
  endfacet
  facet normal 0 1 -0
    outer loop
      vertex 4.8 -38.5 25.6
      vertex 3 -38.5 27.2
      vertex 4.8 -38.5 27.2
    endloop
  endfacet
  facet normal 0 1 0
    outer loop
      vertex 3 -38.5 27.2
      vertex 4.8 -38.5 25.6
      vertex 3 -38.5 25.6
    endloop
  endfacet
  facet normal 0 1 -0
    outer loop
      vertex 4.8 -38.5 5.6
      vertex 3 -38.5 14.8
      vertex 4.8 -38.5 14.8
    endloop
  endfacet
  facet normal 0 1 0
    outer loop
      vertex 3 -38.5 14.8
      vertex 4.8 -38.5 5.6
      vertex 3 -38.5 5.6
    endloop
  endfacet
  facet normal 0 1 -0
    outer loop
      vertex 4.8 -38.5 15.6
      vertex 3 -38.5 24.8
      vertex 4.8 -38.5 24.8
    endloop
  endfacet
  facet normal 0 1 0
    outer loop
      vertex 3 -38.5 24.8
      vertex 4.8 -38.5 15.6
      vertex 3 -38.5 15.6
    endloop
  endfacet
  facet normal 0 0.707107 0.707107
    outer loop
      vertex 54.7 -37.6 1.9
      vertex 53.8255 -38.5 2.8
      vertex 54.7 -38.5 2.8
    endloop
  endfacet
  facet normal 0 0.707107 0.707107
    outer loop
      vertex 53.8255 -38.5 2.8
      vertex 54.7 -37.6 1.9
      vertex 52.9255 -37.6 1.9
    endloop
  endfacet
  facet normal -0 0.707107 0.707107
    outer loop
      vertex 3 -37.6 1.9
      vertex 4.8 -38.2 2.5
      vertex 4.91935 -37.6 1.9
    endloop
  endfacet
  facet normal 8.72274e-16 0.707107 0.707107
    outer loop
      vertex 3 -38.5 2.8
      vertex 4.8 -38.2 2.5
      vertex 3 -37.6 1.9
    endloop
  endfacet
  facet normal 0 0.707107 0.707107
    outer loop
      vertex 4.8 -38.2 2.5
      vertex 3 -38.5 2.8
      vertex 4.8 -38.5 2.8
    endloop
  endfacet
  facet normal -0 0 1
    outer loop
      vertex 3 -37.6 5.6
      vertex 4.8 -38.5 5.6
      vertex 4.8 -37.6 5.6
    endloop
  endfacet
  facet normal 0 0 1
    outer loop
      vertex 4.8 -38.5 5.6
      vertex 3 -37.6 5.6
      vertex 3 -38.5 5.6
    endloop
  endfacet
  facet normal 0 0 -1
    outer loop
      vertex 3 -38.5 4.8
      vertex 4.8 -37.6 4.8
      vertex 4.8 -38.5 4.8
    endloop
  endfacet
  facet normal -0 0 -1
    outer loop
      vertex 4.8 -37.6 4.8
      vertex 3 -38.5 4.8
      vertex 3 -37.6 4.8
    endloop
  endfacet
  facet normal -0 0 1
    outer loop
      vertex 3 -37.6 15.6
      vertex 4.8 -38.5 15.6
      vertex 4.8 -37.6 15.6
    endloop
  endfacet
  facet normal 0 0 1
    outer loop
      vertex 4.8 -38.5 15.6
      vertex 3 -37.6 15.6
      vertex 3 -38.5 15.6
    endloop
  endfacet
  facet normal 0 0 -1
    outer loop
      vertex 3 -38.5 14.8
      vertex 4.8 -37.6 14.8
      vertex 4.8 -38.5 14.8
    endloop
  endfacet
  facet normal -0 0 -1
    outer loop
      vertex 4.8 -37.6 14.8
      vertex 3 -38.5 14.8
      vertex 3 -37.6 14.8
    endloop
  endfacet
  facet normal 0 0 1
    outer loop
      vertex 55.6 -37.6 25.6
      vertex 55.2255 -37.6 25.6
      vertex 55.2255 -37.9745 25.6
    endloop
  endfacet
  facet normal -0 0 1
    outer loop
      vertex 3 -37.6 25.6
      vertex 4.8 -38.5 25.6
      vertex 4.8 -37.6 25.6
    endloop
  endfacet
  facet normal 0 0 1
    outer loop
      vertex 4.8 -38.5 25.6
      vertex 3 -37.6 25.6
      vertex 3 -38.5 25.6
    endloop
  endfacet
  facet normal 0 0 -1
    outer loop
      vertex 3 -38.5 24.8
      vertex 4.8 -37.6 24.8
      vertex 4.8 -38.5 24.8
    endloop
  endfacet
  facet normal -0 0 -1
    outer loop
      vertex 4.8 -37.6 24.8
      vertex 3 -38.5 24.8
      vertex 3 -37.6 24.8
    endloop
  endfacet
  facet normal -0.980784 0 -0.195094
    outer loop
      vertex 4.91935 -37.6 1.9
      vertex 4.8 -38.2 2.5
      vertex 4.8 -37.6 2.5
    endloop
  endfacet
  facet normal -0.980783 0 0.195102
    outer loop
      vertex 4.8 -37.6 27.3
      vertex 4.8 -38.4 27.3
      vertex 4.95914 -37.6 28.1
    endloop
  endfacet
  facet normal -1 0 0
    outer loop
      vertex 4.8 -38.5 2.8
      vertex 4.8 -37.6 2.5
      vertex 4.8 -38.2 2.5
    endloop
  endfacet
  facet normal -1 0 0
    outer loop
      vertex 4.8 -37.6 2.5
      vertex 4.8 -38.5 2.8
      vertex 4.8 -37.6 4.8
    endloop
  endfacet
  facet normal -1 -0 0
    outer loop
      vertex 4.8 -37.6 4.8
      vertex 4.8 -38.5 2.8
      vertex 4.8 -38.5 4.8
    endloop
  endfacet
  facet normal -1 0 0
    outer loop
      vertex 4.8 -38.5 27.2
      vertex 4.8 -37.6 27.3
      vertex 4.8 -37.6 25.6
    endloop
  endfacet
  facet normal -1 0 0
    outer loop
      vertex 4.8 -38.5 27.2
      vertex 4.8 -37.6 25.6
      vertex 4.8 -38.5 25.6
    endloop
  endfacet
  facet normal -1 -0 0
    outer loop
      vertex 4.8 -37.6 27.3
      vertex 4.8 -38.5 27.2
      vertex 4.8 -38.4 27.3
    endloop
  endfacet
  facet normal -1 0 0
    outer loop
      vertex 4.8 -38.5 5.6
      vertex 4.8 -37.6 14.8
      vertex 4.8 -37.6 5.6
    endloop
  endfacet
  facet normal -1 -0 0
    outer loop
      vertex 4.8 -37.6 14.8
      vertex 4.8 -38.5 5.6
      vertex 4.8 -38.5 14.8
    endloop
  endfacet
  facet normal -1 0 0
    outer loop
      vertex 4.8 -38.5 15.6
      vertex 4.8 -37.6 24.8
      vertex 4.8 -37.6 15.6
    endloop
  endfacet
  facet normal -1 -0 0
    outer loop
      vertex 4.8 -37.6 24.8
      vertex 4.8 -38.5 15.6
      vertex 4.8 -38.5 24.8
    endloop
  endfacet
  facet normal 0.707107 0 0.707107
    outer loop
      vertex 55.2255 -37.6 25.6
      vertex 54.7 -38.5 26.1255
      vertex 55.2255 -37.9745 25.6
    endloop
  endfacet
  facet normal 0.707107 2.7601e-15 0.707107
    outer loop
      vertex 55.2255 -37.6 25.6
      vertex 53.6255 -38.5 27.2
      vertex 54.7 -38.5 26.1255
    endloop
  endfacet
  facet normal 0.707107 2.79128e-15 0.707107
    outer loop
      vertex 53.6255 -38.5 27.2
      vertex 55.2255 -37.6 25.6
      vertex 52.7255 -37.6 28.1
    endloop
  endfacet
  facet normal 0.831447 0 -0.555605
    outer loop
      vertex 55.6 -37.6 4.742
      vertex 55.2627 -37.9373 4.23724
      vertex 55.2627 -37.6 4.23724
    endloop
  endfacet
  facet normal 0.707132 0 -0.707082
    outer loop
      vertex 54.7 -38.5 3.6745
      vertex 55.2627 -37.6 4.23724
      vertex 55.2627 -37.9373 4.23724
    endloop
  endfacet
  facet normal 0.707107 3.1427e-05 -0.707107
    outer loop
      vertex 53.8255 -38.5 2.8
      vertex 55.2627 -37.6 4.23724
      vertex 54.7 -38.5 3.6745
    endloop
  endfacet
  facet normal 0.707113 1.21017e-05 -0.707101
    outer loop
      vertex 55.2627 -37.6 4.23724
      vertex 53.8255 -38.5 2.8
      vertex 52.9255 -37.6 1.9
    endloop
  endfacet
  facet normal 0.831495 -0 0.555533
    outer loop
      vertex 6.89136 -40 2.04079
      vertex 7.15147 -37.6 1.65147
      vertex 6.89136 -37.6 2.04079
    endloop
  endfacet
  facet normal 0.831495 0 0.555533
    outer loop
      vertex 7.15147 -37.6 1.65147
      vertex 6.89136 -40 2.04079
      vertex 7.15147 -40 1.65147
    endloop
  endfacet
  facet normal -1 0 0
    outer loop
      vertex 54.2 -40 6.5
      vertex 54.2 -37.6 23.3
      vertex 54.2 -37.6 6.5
    endloop
  endfacet
  facet normal -1 -0 0
    outer loop
      vertex 54.2 -37.6 23.3
      vertex 54.2 -40 6.5
      vertex 54.2 -40 23.3
    endloop
  endfacet
  facet normal 0 0 1
    outer loop
      vertex 16.5 -37.6 1.3
      vertex 8 -37.6 1.3
      vertex 16.5 -38.4 1.3
    endloop
  endfacet
  facet normal 0 0 1
    outer loop
      vertex 39 -37.6 1.3
      vertex 25.5 -37.6 1.3
      vertex 39 -38.4 1.3
    endloop
  endfacet
  facet normal 0 0 1
    outer loop
      vertex 48 -38.4 1.3
      vertex 49 -37.6 1.3
      vertex 48 -37.6 1.3
    endloop
  endfacet
  facet normal 0 0 1
    outer loop
      vertex 49 -37.6 1.3
      vertex 48 -38.4 1.3
      vertex 49 -40 1.3
    endloop
  endfacet
  facet normal -0 0 1
    outer loop
      vertex 39 -38.4 1.3
      vertex 49 -40 1.3
      vertex 48 -38.4 1.3
    endloop
  endfacet
  facet normal 0 0 1
    outer loop
      vertex 25.5 -38.4 1.3
      vertex 39 -38.4 1.3
      vertex 25.5 -37.6 1.3
    endloop
  endfacet
  facet normal 0 0 1
    outer loop
      vertex 39 -38.4 1.3
      vertex 25.5 -38.4 1.3
      vertex 49 -40 1.3
    endloop
  endfacet
  facet normal 0 0 1
    outer loop
      vertex 8 -40 1.3
      vertex 25.5 -38.4 1.3
      vertex 16.5 -38.4 1.3
    endloop
  endfacet
  facet normal 0 0 1
    outer loop
      vertex 25.5 -38.4 1.3
      vertex 8 -40 1.3
      vertex 49 -40 1.3
    endloop
  endfacet
  facet normal 0 0 1
    outer loop
      vertex 8 -40 1.3
      vertex 16.5 -38.4 1.3
      vertex 8 -37.6 1.3
    endloop
  endfacet
  facet normal 0.980778 -0 0.195126
    outer loop
      vertex 6.8 -40 2.5
      vertex 6.89136 -37.6 2.04079
      vertex 6.8 -37.6 2.5
    endloop
  endfacet
  facet normal 0.980778 0 0.195126
    outer loop
      vertex 6.89136 -37.6 2.04079
      vertex 6.8 -40 2.5
      vertex 6.89136 -40 2.04079
    endloop
  endfacet
  facet normal -0.831491 0 -0.555538
    outer loop
      vertex 54.1086 -40 23.7592
      vertex 53.8485 -37.6 24.1485
      vertex 54.1086 -37.6 23.7592
    endloop
  endfacet
  facet normal -0.831491 -0 -0.555538
    outer loop
      vertex 53.8485 -37.6 24.1485
      vertex 54.1086 -40 23.7592
      vertex 53.8485 -40 24.1485
    endloop
  endfacet
  facet normal 0.980777 0 -0.19513
    outer loop
      vertex 6.89136 -40 27.7592
      vertex 6.8 -37.6 27.3
      vertex 6.89136 -37.6 27.7592
    endloop
  endfacet
  facet normal 0.980777 0 -0.19513
    outer loop
      vertex 6.8 -37.6 27.3
      vertex 6.89136 -40 27.7592
      vertex 6.8 -40 27.3
    endloop
  endfacet
  facet normal 0.555518 0 -0.831504
    outer loop
      vertex 7.15147 -40 28.1485
      vertex 7.54079 -37.6 28.4086
      vertex 7.54079 -40 28.4086
    endloop
  endfacet
  facet normal 0.555518 0 -0.831504
    outer loop
      vertex 7.54079 -37.6 28.4086
      vertex 7.15147 -40 28.1485
      vertex 7.15147 -37.6 28.1485
    endloop
  endfacet
  facet normal -0.980761 0 -0.195212
    outer loop
      vertex 54.2 -40 23.3
      vertex 54.1086 -37.6 23.7592
      vertex 54.2 -37.6 23.3
    endloop
  endfacet
  facet normal -0.980761 -0 -0.195212
    outer loop
      vertex 54.1086 -37.6 23.7592
      vertex 54.2 -40 23.3
      vertex 54.1086 -40 23.7592
    endloop
  endfacet
  facet normal 0.195208 0 -0.980762
    outer loop
      vertex 7.54079 -40 28.4086
      vertex 8 -37.6 28.5
      vertex 8 -40 28.5
    endloop
  endfacet
  facet normal 0.195208 0 -0.980762
    outer loop
      vertex 8 -37.6 28.5
      vertex 7.54079 -40 28.4086
      vertex 7.54079 -37.6 28.4086
    endloop
  endfacet
  facet normal 0.555533 0 0.831495
    outer loop
      vertex 7.15147 -37.6 1.65147
      vertex 7.54079 -40 1.39136
      vertex 7.54079 -37.6 1.39136
    endloop
  endfacet
  facet normal 0.555533 0 0.831495
    outer loop
      vertex 7.54079 -40 1.39136
      vertex 7.15147 -37.6 1.65147
      vertex 7.15147 -40 1.65147
    endloop
  endfacet
  facet normal -0.555553 0 0.831481
    outer loop
      vertex 49.4592 -37.6 1.39136
      vertex 49.8485 -40 1.65147
      vertex 49.8485 -37.6 1.65147
    endloop
  endfacet
  facet normal -0.555553 0 0.831481
    outer loop
      vertex 49.8485 -40 1.65147
      vertex 49.4592 -37.6 1.39136
      vertex 49.4592 -40 1.39136
    endloop
  endfacet
  facet normal 1 -0 0
    outer loop
      vertex 6.8 -40 27.3
      vertex 6.8 -37.6 2.5
      vertex 6.8 -37.6 27.3
    endloop
  endfacet
  facet normal 1 0 0
    outer loop
      vertex 6.8 -37.6 2.5
      vertex 6.8 -40 27.3
      vertex 6.8 -40 2.5
    endloop
  endfacet
  facet normal 0.831481 0 -0.555553
    outer loop
      vertex 7.15147 -40 28.1485
      vertex 6.89136 -37.6 27.7592
      vertex 7.15147 -37.6 28.1485
    endloop
  endfacet
  facet normal 0.831481 0 -0.555553
    outer loop
      vertex 6.89136 -37.6 27.7592
      vertex 7.15147 -40 28.1485
      vertex 6.89136 -40 27.7592
    endloop
  endfacet
  facet normal -0.707107 0 -0.707107
    outer loop
      vertex 53.8485 -40 24.1485
      vertex 49.8485 -37.6 28.1485
      vertex 53.8485 -37.6 24.1485
    endloop
  endfacet
  facet normal -0.707107 -0 -0.707107
    outer loop
      vertex 49.8485 -37.6 28.1485
      vertex 53.8485 -40 24.1485
      vertex 49.8485 -40 28.1485
    endloop
  endfacet
  facet normal 0.195126 0 0.980778
    outer loop
      vertex 7.54079 -37.6 1.39136
      vertex 8 -40 1.3
      vertex 8 -37.6 1.3
    endloop
  endfacet
  facet normal 0.195126 0 0.980778
    outer loop
      vertex 8 -40 1.3
      vertex 7.54079 -37.6 1.39136
      vertex 7.54079 -40 1.39136
    endloop
  endfacet
  facet normal -0.195212 0 -0.980761
    outer loop
      vertex 49 -40 28.5
      vertex 49.4592 -37.6 28.4086
      vertex 49.4592 -40 28.4086
    endloop
  endfacet
  facet normal -0.195212 0 -0.980761
    outer loop
      vertex 49.4592 -37.6 28.4086
      vertex 49 -40 28.5
      vertex 49 -37.6 28.5
    endloop
  endfacet
  facet normal 0 0 -1
    outer loop
      vertex 49 -40 28.5
      vertex 48 -38.4 28.5
      vertex 49 -37.6 28.5
    endloop
  endfacet
  facet normal 0 0 -1
    outer loop
      vertex 49 -40 28.5
      vertex 39 -38.4 28.5
      vertex 48 -38.4 28.5
    endloop
  endfacet
  facet normal 0 0 -1
    outer loop
      vertex 39 -38.4 28.5
      vertex 25.5 -38.4 28.5
      vertex 39 -37.6 28.5
    endloop
  endfacet
  facet normal 0 0 -1
    outer loop
      vertex 49 -40 28.5
      vertex 25.5 -38.4 28.5
      vertex 39 -38.4 28.5
    endloop
  endfacet
  facet normal 0 0 -1
    outer loop
      vertex 8 -40 28.5
      vertex 25.5 -38.4 28.5
      vertex 49 -40 28.5
    endloop
  endfacet
  facet normal -0 0 -1
    outer loop
      vertex 25.5 -38.4 28.5
      vertex 8 -40 28.5
      vertex 16.5 -38.4 28.5
    endloop
  endfacet
  facet normal 0 0 -1
    outer loop
      vertex 8 -37.6 28.5
      vertex 16.5 -38.4 28.5
      vertex 8 -40 28.5
    endloop
  endfacet
  facet normal 0 0 -1
    outer loop
      vertex 16.5 -38.4 28.5
      vertex 8 -37.6 28.5
      vertex 16.5 -37.6 28.5
    endloop
  endfacet
  facet normal -0 0 -1
    outer loop
      vertex 49 -37.6 28.5
      vertex 48 -38.4 28.5
      vertex 48 -37.6 28.5
    endloop
  endfacet
  facet normal -0 0 -1
    outer loop
      vertex 39 -37.6 28.5
      vertex 25.5 -38.4 28.5
      vertex 25.5 -37.6 28.5
    endloop
  endfacet
  facet normal -0.831498 0 0.555528
    outer loop
      vertex 53.8485 -40 5.65146
      vertex 54.1086 -37.6 6.04077
      vertex 53.8485 -37.6 5.65146
    endloop
  endfacet
  facet normal -0.831498 0 0.555528
    outer loop
      vertex 54.1086 -37.6 6.04077
      vertex 53.8485 -40 5.65146
      vertex 54.1086 -40 6.04077
    endloop
  endfacet
  facet normal -0.555538 0 -0.831491
    outer loop
      vertex 49.4592 -40 28.4086
      vertex 49.8485 -37.6 28.1485
      vertex 49.8485 -40 28.1485
    endloop
  endfacet
  facet normal -0.555538 0 -0.831491
    outer loop
      vertex 49.8485 -37.6 28.1485
      vertex 49.4592 -40 28.4086
      vertex 49.4592 -37.6 28.4086
    endloop
  endfacet
  facet normal -0.707106 0 0.707108
    outer loop
      vertex 49.8485 -37.6 1.65147
      vertex 53.8485 -40 5.65146
      vertex 53.8485 -37.6 5.65146
    endloop
  endfacet
  facet normal -0.707106 0 0.707108
    outer loop
      vertex 53.8485 -40 5.65146
      vertex 49.8485 -37.6 1.65147
      vertex 49.8485 -40 1.65147
    endloop
  endfacet
  facet normal -0.19513 0 0.980777
    outer loop
      vertex 49 -37.6 1.3
      vertex 49.4592 -40 1.39136
      vertex 49.4592 -37.6 1.39136
    endloop
  endfacet
  facet normal -0.19513 0 0.980777
    outer loop
      vertex 49.4592 -40 1.39136
      vertex 49 -37.6 1.3
      vertex 49 -40 1.3
    endloop
  endfacet
  facet normal -0.980763 0 0.1952
    outer loop
      vertex 54.1086 -40 6.04077
      vertex 54.2 -37.6 6.5
      vertex 54.1086 -37.6 6.04077
    endloop
  endfacet
  facet normal -0.980763 0 0.1952
    outer loop
      vertex 54.2 -37.6 6.5
      vertex 54.1086 -40 6.04077
      vertex 54.2 -40 6.5
    endloop
  endfacet
  facet normal -0 0 1
    outer loop
      vertex 16.5 -37.6 0.3
      vertex 25.5 -38.4 0.3
      vertex 25.5 -37.6 0.3
    endloop
  endfacet
  facet normal 0 0 1
    outer loop
      vertex 25.5 -38.4 0.3
      vertex 16.5 -37.6 0.3
      vertex 16.5 -38.4 0.3
    endloop
  endfacet
  facet normal 1 -0 0
    outer loop
      vertex 16.5 -38.4 1.3
      vertex 16.5 -37.6 0.3
      vertex 16.5 -37.6 1.3
    endloop
  endfacet
  facet normal 1 0 0
    outer loop
      vertex 16.5 -37.6 0.3
      vertex 16.5 -38.4 1.3
      vertex 16.5 -38.4 0.3
    endloop
  endfacet
  facet normal 0 1 -0
    outer loop
      vertex 25.5 -38.4 0.3
      vertex 16.5 -38.4 1.3
      vertex 25.5 -38.4 1.3
    endloop
  endfacet
  facet normal 0 1 0
    outer loop
      vertex 16.5 -38.4 1.3
      vertex 25.5 -38.4 0.3
      vertex 16.5 -38.4 0.3
    endloop
  endfacet
  facet normal -1 0 0
    outer loop
      vertex 25.5 -38.4 0.3
      vertex 25.5 -37.6 1.3
      vertex 25.5 -37.6 0.3
    endloop
  endfacet
  facet normal -1 -0 0
    outer loop
      vertex 25.5 -37.6 1.3
      vertex 25.5 -38.4 0.3
      vertex 25.5 -38.4 1.3
    endloop
  endfacet
  facet normal -1 0 0
    outer loop
      vertex 25.5 -38.4 28.5
      vertex 25.5 -37.6 29.5
      vertex 25.5 -37.6 28.5
    endloop
  endfacet
  facet normal -1 -0 0
    outer loop
      vertex 25.5 -37.6 29.5
      vertex 25.5 -38.4 28.5
      vertex 25.5 -38.4 29.5
    endloop
  endfacet
  facet normal 0 0 -1
    outer loop
      vertex 16.5 -38.4 29.5
      vertex 25.5 -37.6 29.5
      vertex 25.5 -38.4 29.5
    endloop
  endfacet
  facet normal -0 0 -1
    outer loop
      vertex 25.5 -37.6 29.5
      vertex 16.5 -38.4 29.5
      vertex 16.5 -37.6 29.5
    endloop
  endfacet
  facet normal 1 -0 0
    outer loop
      vertex 16.5 -38.4 29.5
      vertex 16.5 -37.6 28.5
      vertex 16.5 -37.6 29.5
    endloop
  endfacet
  facet normal 1 0 0
    outer loop
      vertex 16.5 -37.6 28.5
      vertex 16.5 -38.4 29.5
      vertex 16.5 -38.4 28.5
    endloop
  endfacet
  facet normal 0 1 -0
    outer loop
      vertex 25.5 -38.4 28.5
      vertex 16.5 -38.4 29.5
      vertex 25.5 -38.4 29.5
    endloop
  endfacet
  facet normal 0 1 0
    outer loop
      vertex 16.5 -38.4 29.5
      vertex 25.5 -38.4 28.5
      vertex 16.5 -38.4 28.5
    endloop
  endfacet
  facet normal -0 0 1
    outer loop
      vertex 39 -37.6 0.3
      vertex 48 -38.4 0.3
      vertex 48 -37.6 0.3
    endloop
  endfacet
  facet normal 0 0 1
    outer loop
      vertex 48 -38.4 0.3
      vertex 39 -37.6 0.3
      vertex 39 -38.4 0.3
    endloop
  endfacet
  facet normal 1 -0 0
    outer loop
      vertex 39 -38.4 1.3
      vertex 39 -37.6 0.3
      vertex 39 -37.6 1.3
    endloop
  endfacet
  facet normal 1 0 0
    outer loop
      vertex 39 -37.6 0.3
      vertex 39 -38.4 1.3
      vertex 39 -38.4 0.3
    endloop
  endfacet
  facet normal 0 1 -0
    outer loop
      vertex 48 -38.4 0.3
      vertex 39 -38.4 1.3
      vertex 48 -38.4 1.3
    endloop
  endfacet
  facet normal 0 1 0
    outer loop
      vertex 39 -38.4 1.3
      vertex 48 -38.4 0.3
      vertex 39 -38.4 0.3
    endloop
  endfacet
  facet normal -1 0 0
    outer loop
      vertex 48 -38.4 0.3
      vertex 48 -37.6 1.3
      vertex 48 -37.6 0.3
    endloop
  endfacet
  facet normal -1 -0 0
    outer loop
      vertex 48 -37.6 1.3
      vertex 48 -38.4 0.3
      vertex 48 -38.4 1.3
    endloop
  endfacet
  facet normal -1 0 0
    outer loop
      vertex 48 -38.4 28.5
      vertex 48 -37.6 29.5
      vertex 48 -37.6 28.5
    endloop
  endfacet
  facet normal -1 -0 0
    outer loop
      vertex 48 -37.6 29.5
      vertex 48 -38.4 28.5
      vertex 48 -38.4 29.5
    endloop
  endfacet
  facet normal 0 0 -1
    outer loop
      vertex 39 -38.4 29.5
      vertex 48 -37.6 29.5
      vertex 48 -38.4 29.5
    endloop
  endfacet
  facet normal -0 0 -1
    outer loop
      vertex 48 -37.6 29.5
      vertex 39 -38.4 29.5
      vertex 39 -37.6 29.5
    endloop
  endfacet
  facet normal 1 -0 0
    outer loop
      vertex 39 -38.4 29.5
      vertex 39 -37.6 28.5
      vertex 39 -37.6 29.5
    endloop
  endfacet
  facet normal 1 0 0
    outer loop
      vertex 39 -37.6 28.5
      vertex 39 -38.4 29.5
      vertex 39 -38.4 28.5
    endloop
  endfacet
  facet normal 0 1 -0
    outer loop
      vertex 48 -38.4 28.5
      vertex 39 -38.4 29.5
      vertex 48 -38.4 29.5
    endloop
  endfacet
  facet normal 0 1 0
    outer loop
      vertex 39 -38.4 29.5
      vertex 48 -38.4 28.5
      vertex 39 -38.4 28.5
    endloop
  endfacet
  facet normal 1 -0 0
    outer loop
      vertex 58 -40 33.1403
      vertex 58 -37.6 -3
      vertex 58 -37.6 33.1403
    endloop
  endfacet
  facet normal 1 0 0
    outer loop
      vertex 58 -37.6 -3
      vertex 58 -40 33.1403
      vertex 58 -40 -3
    endloop
  endfacet
  facet normal 0 0 -1
    outer loop
      vertex 3 -40 -3
      vertex 58 -37.6 -3
      vertex 58 -40 -3
    endloop
  endfacet
  facet normal -0 0 -1
    outer loop
      vertex 58 -37.6 -3
      vertex 3 -40 -3
      vertex 3 -37.6 -3
    endloop
  endfacet
  facet normal -1 0 0
    outer loop
      vertex 3 -40 -3
      vertex 3 -37.6 1.9
      vertex 3 -37.6 -3
    endloop
  endfacet
  facet normal -1 0 0
    outer loop
      vertex 3 -40 -3
      vertex 3 -38.5 4.8
      vertex 3 -38.5 2.8
    endloop
  endfacet
  facet normal -1 -0 0
    outer loop
      vertex 3 -38.5 4.8
      vertex 3 -40 -3
      vertex 3 -38.5 5.6
    endloop
  endfacet
  facet normal -1 -0 0
    outer loop
      vertex 3 -38.5 5.6
      vertex 3 -40 -3
      vertex 3 -38.5 14.8
    endloop
  endfacet
  facet normal -1 -0 0
    outer loop
      vertex 3 -38.5 14.8
      vertex 3 -40 -3
      vertex 3 -38.5 15.6
    endloop
  endfacet
  facet normal -1 0 0
    outer loop
      vertex 3 -40 33.2
      vertex 3 -38.5 15.6
      vertex 3 -40 -3
    endloop
  endfacet
  facet normal -1 0 0
    outer loop
      vertex 3 -38.5 15.6
      vertex 3 -40 33.2
      vertex 3 -38.5 24.8
    endloop
  endfacet
  facet normal -1 0 0
    outer loop
      vertex 3 -38.5 24.8
      vertex 3 -40 33.2
      vertex 3 -38.5 25.6
    endloop
  endfacet
  facet normal -1 -0 0
    outer loop
      vertex 3 -37.6 1.9
      vertex 3 -40 -3
      vertex 3 -38.5 2.8
    endloop
  endfacet
  facet normal -1 0 0
    outer loop
      vertex 3 -38.5 4.8
      vertex 3 -37.6 5.6
      vertex 3 -37.6 4.8
    endloop
  endfacet
  facet normal -1 -0 0
    outer loop
      vertex 3 -37.6 5.6
      vertex 3 -38.5 4.8
      vertex 3 -38.5 5.6
    endloop
  endfacet
  facet normal -1 0 0
    outer loop
      vertex 3 -38.5 14.8
      vertex 3 -37.6 15.6
      vertex 3 -37.6 14.8
    endloop
  endfacet
  facet normal -1 -0 0
    outer loop
      vertex 3 -37.6 15.6
      vertex 3 -38.5 14.8
      vertex 3 -38.5 15.6
    endloop
  endfacet
  facet normal -1 0 0
    outer loop
      vertex 3 -38.5 24.8
      vertex 3 -37.6 25.6
      vertex 3 -37.6 24.8
    endloop
  endfacet
  facet normal -1 -0 0
    outer loop
      vertex 3 -37.6 25.6
      vertex 3 -38.5 24.8
      vertex 3 -38.5 25.6
    endloop
  endfacet
  facet normal -1 0 0
    outer loop
      vertex 3 -40 33.2
      vertex 3 -37.6 28.1
      vertex 3 -38.5 27.2
    endloop
  endfacet
  facet normal -1 0 0
    outer loop
      vertex 3 -37.6 28.1
      vertex 3 -40 33.2
      vertex 3 -37.6 33.2
    endloop
  endfacet
  facet normal -1 0 0
    outer loop
      vertex 3 -38.5 25.6
      vertex 3 -40 33.2
      vertex 3 -38.5 27.2
    endloop
  endfacet
  facet normal 0 1 -0
    outer loop
      vertex 39 -37.6 0.3
      vertex 25.5 -37.6 1.3
      vertex 39 -37.6 1.3
    endloop
  endfacet
  facet normal 0 1 0
    outer loop
      vertex 25.5 -37.6 1.3
      vertex 39 -37.6 0.3
      vertex 25.5 -37.6 0.3
    endloop
  endfacet
  facet normal 0 1 0
    outer loop
      vertex 16.5 -37.6 1.3
      vertex 16.5 -37.6 0.3
      vertex 8 -37.6 1.3
    endloop
  endfacet
  facet normal 0 1 -0
    outer loop
      vertex 6.89136 -37.6 27.7592
      vertex 4.95914 -37.6 28.1
      vertex 7.15147 -37.6 28.1485
    endloop
  endfacet
  facet normal 0 1 -0
    outer loop
      vertex 6.8 -37.6 27.3
      vertex 4.95914 -37.6 28.1
      vertex 6.89136 -37.6 27.7592
    endloop
  endfacet
  facet normal 0 1 0
    outer loop
      vertex 6.8 -37.6 27.3
      vertex 4.8 -37.6 27.3
      vertex 4.95914 -37.6 28.1
    endloop
  endfacet
  facet normal 0 1 0
    outer loop
      vertex 6.8 -37.6 27.3
      vertex 4.8 -37.6 25.6
      vertex 4.8 -37.6 27.3
    endloop
  endfacet
  facet normal 0 1 0
    outer loop
      vertex 4.8 -37.6 25.6
      vertex 4.8 -37.6 24.8
      vertex 3 -37.6 25.6
    endloop
  endfacet
  facet normal 0 1 0
    outer loop
      vertex 6.8 -37.6 27.3
      vertex 4.8 -37.6 24.8
      vertex 4.8 -37.6 25.6
    endloop
  endfacet
  facet normal 0 1 0
    outer loop
      vertex 6.8 -37.6 27.3
      vertex 4.8 -37.6 15.6
      vertex 4.8 -37.6 24.8
    endloop
  endfacet
  facet normal 0 1 0
    outer loop
      vertex 4.8 -37.6 15.6
      vertex 4.8 -37.6 14.8
      vertex 3 -37.6 15.6
    endloop
  endfacet
  facet normal 0 1 0
    outer loop
      vertex 6.8 -37.6 27.3
      vertex 4.8 -37.6 14.8
      vertex 4.8 -37.6 15.6
    endloop
  endfacet
  facet normal 0 1 -0
    outer loop
      vertex 6.8 -37.6 2.5
      vertex 4.8 -37.6 14.8
      vertex 6.8 -37.6 27.3
    endloop
  endfacet
  facet normal 0 1 0
    outer loop
      vertex 4.8 -37.6 5.6
      vertex 4.8 -37.6 4.8
      vertex 3 -37.6 5.6
    endloop
  endfacet
  facet normal 0 1 0
    outer loop
      vertex 4.8 -37.6 14.8
      vertex 6.8 -37.6 2.5
      vertex 4.8 -37.6 5.6
    endloop
  endfacet
  facet normal 0 1 0
    outer loop
      vertex 4.8 -37.6 5.6
      vertex 6.8 -37.6 2.5
      vertex 4.8 -37.6 4.8
    endloop
  endfacet
  facet normal 0 1 0
    outer loop
      vertex 6.8 -37.6 2.5
      vertex 4.8 -37.6 2.5
      vertex 4.8 -37.6 4.8
    endloop
  endfacet
  facet normal 0 1 0
    outer loop
      vertex 4.91935 -37.6 1.9
      vertex 6.8 -37.6 2.5
      vertex 6.89136 -37.6 2.04079
    endloop
  endfacet
  facet normal 0 1 0
    outer loop
      vertex 6.8 -37.6 2.5
      vertex 4.91935 -37.6 1.9
      vertex 4.8 -37.6 2.5
    endloop
  endfacet
  facet normal 0 1 0
    outer loop
      vertex 7.15147 -37.6 1.65147
      vertex 4.91935 -37.6 1.9
      vertex 6.89136 -37.6 2.04079
    endloop
  endfacet
  facet normal 0 1 0
    outer loop
      vertex 7.54079 -37.6 1.39136
      vertex 4.91935 -37.6 1.9
      vertex 7.15147 -37.6 1.65147
    endloop
  endfacet
  facet normal 0 1 0
    outer loop
      vertex 4.91935 -37.6 1.9
      vertex 7.54079 -37.6 1.39136
      vertex 3 -37.6 -3
    endloop
  endfacet
  facet normal 0 1 0
    outer loop
      vertex 3 -37.6 -3
      vertex 7.54079 -37.6 1.39136
      vertex 8 -37.6 1.3
    endloop
  endfacet
  facet normal 0 1 0
    outer loop
      vertex 4.91935 -37.6 1.9
      vertex 3 -37.6 -3
      vertex 3 -37.6 1.9
    endloop
  endfacet
  facet normal 0 1 0
    outer loop
      vertex 16.5 -37.6 0.3
      vertex 3 -37.6 -3
      vertex 8 -37.6 1.3
    endloop
  endfacet
  facet normal 0 1 0
    outer loop
      vertex 25.5 -37.6 0.3
      vertex 3 -37.6 -3
      vertex 16.5 -37.6 0.3
    endloop
  endfacet
  facet normal 0 1 -0
    outer loop
      vertex 39 -37.6 28.5
      vertex 25.5 -37.6 29.5
      vertex 39 -37.6 29.5
    endloop
  endfacet
  facet normal 0 1 0
    outer loop
      vertex 25.5 -37.6 29.5
      vertex 39 -37.6 28.5
      vertex 25.5 -37.6 28.5
    endloop
  endfacet
  facet normal 0 1 0
    outer loop
      vertex 57.7 -37.6 33.2
      vertex 49 -37.6 28.5
      vertex 48 -37.6 29.5
    endloop
  endfacet
  facet normal 0 1 0
    outer loop
      vertex 57.7 -37.6 33.2
      vertex 49.4592 -37.6 28.4086
      vertex 49 -37.6 28.5
    endloop
  endfacet
  facet normal 0 1 0
    outer loop
      vertex 57.7 -37.6 33.2
      vertex 52.7255 -37.6 28.1
      vertex 49.4592 -37.6 28.4086
    endloop
  endfacet
  facet normal 0 1 0
    outer loop
      vertex 57.7 -37.6 33.2
      vertex 54.7 -37.6 28.1
      vertex 52.7255 -37.6 28.1
    endloop
  endfacet
  facet normal 0 1 0
    outer loop
      vertex 58 -37.6 33.1403
      vertex 55.6 -37.6 27.2
      vertex 54.7 -37.6 28.1
    endloop
  endfacet
  facet normal 0 1 0
    outer loop
      vertex 58 -37.6 33.1403
      vertex 55.6 -37.6 25.6
      vertex 55.6 -37.6 27.2
    endloop
  endfacet
  facet normal 0 1 0
    outer loop
      vertex 54.1086 -37.6 23.7592
      vertex 55.2255 -37.6 25.6
      vertex 55.6 -37.6 25.6
    endloop
  endfacet
  facet normal 0 1 0
    outer loop
      vertex 55.2255 -37.6 25.6
      vertex 54.1086 -37.6 23.7592
      vertex 53.8485 -37.6 24.1485
    endloop
  endfacet
  facet normal 0 1 0
    outer loop
      vertex 55.6 -37.6 25.6
      vertex 54.2 -37.6 23.3
      vertex 54.1086 -37.6 23.7592
    endloop
  endfacet
  facet normal 0 1 -0
    outer loop
      vertex 55.6 -37.6 4.742
      vertex 54.2 -37.6 23.3
      vertex 55.6 -37.6 25.6
    endloop
  endfacet
  facet normal 0 1 0
    outer loop
      vertex 55.6 -37.6 4.742
      vertex 55.6 -37.6 25.6
      vertex 58 -37.6 33.1403
    endloop
  endfacet
  facet normal 0 1 0
    outer loop
      vertex 54.1086 -37.6 6.04077
      vertex 55.6 -37.6 4.742
      vertex 53.8485 -37.6 5.65146
    endloop
  endfacet
  facet normal 0 1 0
    outer loop
      vertex 54.2 -37.6 6.5
      vertex 55.6 -37.6 4.742
      vertex 54.1086 -37.6 6.04077
    endloop
  endfacet
  facet normal 0 1 0
    outer loop
      vertex 54.2 -37.6 23.3
      vertex 55.6 -37.6 4.742
      vertex 54.2 -37.6 6.5
    endloop
  endfacet
  facet normal 0 1 -0
    outer loop
      vertex 58 -37.6 -3
      vertex 55.6 -37.6 4.742
      vertex 58 -37.6 33.1403
    endloop
  endfacet
  facet normal 0 1 0
    outer loop
      vertex 58 -37.6 -3
      vertex 52.9255 -37.6 1.9
      vertex 54.7 -37.6 1.9
    endloop
  endfacet
  facet normal 0 1 0
    outer loop
      vertex 52.9255 -37.6 1.9
      vertex 49.4592 -37.6 1.39136
      vertex 49.8485 -37.6 1.65147
    endloop
  endfacet
  facet normal -0 1 0
    outer loop
      vertex 48 -37.6 0.3
      vertex 52.9255 -37.6 1.9
      vertex 58 -37.6 -3
    endloop
  endfacet
  facet normal 0 1 0
    outer loop
      vertex 49 -37.6 1.3
      vertex 48 -37.6 0.3
      vertex 48 -37.6 1.3
    endloop
  endfacet
  facet normal 0 1 0
    outer loop
      vertex 49.4592 -37.6 1.39136
      vertex 48 -37.6 0.3
      vertex 49 -37.6 1.3
    endloop
  endfacet
  facet normal 0 1 0
    outer loop
      vertex 58 -37.6 -3
      vertex 39 -37.6 0.3
      vertex 48 -37.6 0.3
    endloop
  endfacet
  facet normal 0 1 0
    outer loop
      vertex 39 -37.6 0.3
      vertex 58 -37.6 -3
      vertex 25.5 -37.6 0.3
    endloop
  endfacet
  facet normal 0 1 0
    outer loop
      vertex 3 -37.6 -3
      vertex 25.5 -37.6 0.3
      vertex 58 -37.6 -3
    endloop
  endfacet
  facet normal 0 1 0
    outer loop
      vertex 52.9255 -37.6 1.9
      vertex 48 -37.6 0.3
      vertex 49.4592 -37.6 1.39136
    endloop
  endfacet
  facet normal 0 1 0
    outer loop
      vertex 55.6 -37.6 2.8
      vertex 58 -37.6 -3
      vertex 54.7 -37.6 1.9
    endloop
  endfacet
  facet normal 0 1 0
    outer loop
      vertex 55.6 -37.6 4.742
      vertex 58 -37.6 -3
      vertex 55.6 -37.6 2.8
    endloop
  endfacet
  facet normal 0 1 0
    outer loop
      vertex 54.7 -37.6 28.1
      vertex 57.7 -37.6 33.2
      vertex 58 -37.6 33.1403
    endloop
  endfacet
  facet normal 0 1 0
    outer loop
      vertex 57.7 -37.6 33.2
      vertex 48 -37.6 29.5
      vertex 39 -37.6 29.5
    endloop
  endfacet
  facet normal 0 1 0
    outer loop
      vertex 57.7 -37.6 33.2
      vertex 39 -37.6 29.5
      vertex 25.5 -37.6 29.5
    endloop
  endfacet
  facet normal 0 1 0
    outer loop
      vertex 57.7 -37.6 33.2
      vertex 25.5 -37.6 29.5
      vertex 3 -37.6 33.2
    endloop
  endfacet
  facet normal 0 1 -0
    outer loop
      vertex 16.5 -37.6 29.5
      vertex 3 -37.6 33.2
      vertex 25.5 -37.6 29.5
    endloop
  endfacet
  facet normal 0 1 0
    outer loop
      vertex 8 -37.6 28.5
      vertex 16.5 -37.6 29.5
      vertex 16.5 -37.6 28.5
    endloop
  endfacet
  facet normal 0 1 0
    outer loop
      vertex 16.5 -37.6 29.5
      vertex 8 -37.6 28.5
      vertex 3 -37.6 33.2
    endloop
  endfacet
  facet normal 0 1 -0
    outer loop
      vertex 7.54079 -37.6 28.4086
      vertex 3 -37.6 33.2
      vertex 8 -37.6 28.5
    endloop
  endfacet
  facet normal 0 1 0
    outer loop
      vertex 4.95914 -37.6 28.1
      vertex 7.54079 -37.6 28.4086
      vertex 7.15147 -37.6 28.1485
    endloop
  endfacet
  facet normal 0 1 0
    outer loop
      vertex 7.54079 -37.6 28.4086
      vertex 4.95914 -37.6 28.1
      vertex 3 -37.6 33.2
    endloop
  endfacet
  facet normal 0 1 0
    outer loop
      vertex 3 -37.6 33.2
      vertex 4.95914 -37.6 28.1
      vertex 3 -37.6 28.1
    endloop
  endfacet
  facet normal 0 1 0
    outer loop
      vertex 48 -37.6 29.5
      vertex 49 -37.6 28.5
      vertex 48 -37.6 28.5
    endloop
  endfacet
  facet normal 0 1 0
    outer loop
      vertex 49.4592 -37.6 28.4086
      vertex 52.7255 -37.6 28.1
      vertex 49.8485 -37.6 28.1485
    endloop
  endfacet
  facet normal 0 1 -0
    outer loop
      vertex 53.8485 -37.6 24.1485
      vertex 52.7255 -37.6 28.1
      vertex 55.2255 -37.6 25.6
    endloop
  endfacet
  facet normal 0 1 0
    outer loop
      vertex 52.7255 -37.6 28.1
      vertex 53.8485 -37.6 24.1485
      vertex 49.8485 -37.6 28.1485
    endloop
  endfacet
  facet normal 0 1 0
    outer loop
      vertex 3 -37.6 25.6
      vertex 4.8 -37.6 24.8
      vertex 3 -37.6 24.8
    endloop
  endfacet
  facet normal 0 1 0
    outer loop
      vertex 3 -37.6 15.6
      vertex 4.8 -37.6 14.8
      vertex 3 -37.6 14.8
    endloop
  endfacet
  facet normal 0 1 0
    outer loop
      vertex 3 -37.6 5.6
      vertex 4.8 -37.6 4.8
      vertex 3 -37.6 4.8
    endloop
  endfacet
  facet normal 0 1 -0
    outer loop
      vertex 55.2627 -37.6 4.23724
      vertex 53.8485 -37.6 5.65146
      vertex 55.6 -37.6 4.742
    endloop
  endfacet
  facet normal 0 1 0
    outer loop
      vertex 52.9255 -37.6 1.9
      vertex 53.8485 -37.6 5.65146
      vertex 55.2627 -37.6 4.23724
    endloop
  endfacet
  facet normal 0 1 0
    outer loop
      vertex 53.8485 -37.6 5.65146
      vertex 52.9255 -37.6 1.9
      vertex 49.8485 -37.6 1.65147
    endloop
  endfacet
endsolid OpenSCAD_Model
