solid OpenSCAD_Model
  facet normal -0.831428 0.555633 0
    outer loop
      vertex -60 2.05392 0
      vertex -59.8213 2.32132 1
      vertex -59.8213 2.32132 0
    endloop
  endfacet
  facet normal -0.831428 0.555633 0
    outer loop
      vertex -59.8213 2.32132 1
      vertex -60 2.05392 0
      vertex -60 2.05392 1
    endloop
  endfacet
  facet normal -0.555605 0.831447 0
    outer loop
      vertex -58.8481 2.97165 0
      vertex -59.8213 2.32132 1
      vertex -58.8481 2.97165 1
    endloop
  endfacet
  facet normal -0.555605 0.831447 0
    outer loop
      vertex -59.8213 2.32132 1
      vertex -58.8481 2.97165 0
      vertex -59.8213 2.32132 0
    endloop
  endfacet
  facet normal 0.19513 -0.980777 0
    outer loop
      vertex 57.7 -33.2 0
      vertex 58.848 -32.9716 1
      vertex 57.7 -33.2 1
    endloop
  endfacet
  facet normal 0.19513 -0.980777 0
    outer loop
      vertex 58.848 -32.9716 1
      vertex 57.7 -33.2 0
      vertex 58.848 -32.9716 0
    endloop
  endfacet
  facet normal 0 1 -0
    outer loop
      vertex 57.7 3.2 0
      vertex -57.7 3.2 1
      vertex 57.7 3.2 1
    endloop
  endfacet
  facet normal 0 1 0
    outer loop
      vertex -57.7 3.2 1
      vertex 57.7 3.2 0
      vertex -57.7 3.2 0
    endloop
  endfacet
  facet normal 0 -1 0
    outer loop
      vertex -57.7 -33.2 0
      vertex 57.7 -33.2 1
      vertex -57.7 -33.2 1
    endloop
  endfacet
  facet normal 0 -1 -0
    outer loop
      vertex 57.7 -33.2 1
      vertex -57.7 -33.2 0
      vertex 57.7 -33.2 0
    endloop
  endfacet
  facet normal 0.195089 0.980786 -0
    outer loop
      vertex 58.848 2.97165 0
      vertex 57.7 3.2 1
      vertex 58.848 2.97165 1
    endloop
  endfacet
  facet normal 0.195089 0.980786 0
    outer loop
      vertex 57.7 3.2 1
      vertex 58.848 2.97165 0
      vertex 57.7 3.2 0
    endloop
  endfacet
  facet normal -0.555587 -0.831458 0
    outer loop
      vertex -59.8213 -32.3213 0
      vertex -58.8481 -32.9716 1
      vertex -59.8213 -32.3213 1
    endloop
  endfacet
  facet normal -0.555587 -0.831458 -0
    outer loop
      vertex -58.8481 -32.9716 1
      vertex -59.8213 -32.3213 0
      vertex -58.8481 -32.9716 0
    endloop
  endfacet
  facet normal 0.831428 -0.555633 0
    outer loop
      vertex 59.8213 -32.3213 1
      vertex 60 -32.0539 0
      vertex 60 -32.0539 1
    endloop
  endfacet
  facet normal 0.831428 -0.555633 0
    outer loop
      vertex 60 -32.0539 0
      vertex 59.8213 -32.3213 1
      vertex 59.8213 -32.3213 0
    endloop
  endfacet
  facet normal 0.831447 0.555604 0
    outer loop
      vertex 60 2.0539 1
      vertex 59.8213 2.32132 0
      vertex 59.8213 2.32132 1
    endloop
  endfacet
  facet normal 0.831447 0.555604 0
    outer loop
      vertex 59.8213 2.32132 0
      vertex 60 2.0539 1
      vertex 60 2.0539 0
    endloop
  endfacet
  facet normal -0.831428 -0.555633 0
    outer loop
      vertex -59.8213 -32.3213 0
      vertex -60 -32.0539 1
      vertex -60 -32.0539 0
    endloop
  endfacet
  facet normal -0.831428 -0.555633 0
    outer loop
      vertex -60 -32.0539 1
      vertex -59.8213 -32.3213 0
      vertex -59.8213 -32.3213 1
    endloop
  endfacet
  facet normal 0.555565 0.831473 -0
    outer loop
      vertex 59.8213 2.32132 0
      vertex 58.848 2.97165 1
      vertex 59.8213 2.32132 1
    endloop
  endfacet
  facet normal 0.555565 0.831473 0
    outer loop
      vertex 58.848 2.97165 1
      vertex 59.8213 2.32132 0
      vertex 58.848 2.97165 0
    endloop
  endfacet
  facet normal -0.195073 0.980789 0
    outer loop
      vertex -57.7 3.2 0
      vertex -58.8481 2.97165 1
      vertex -57.7 3.2 1
    endloop
  endfacet
  facet normal -0.195073 0.980789 0
    outer loop
      vertex -58.8481 2.97165 1
      vertex -57.7 3.2 0
      vertex -58.8481 2.97165 0
    endloop
  endfacet
  facet normal -0.195114 -0.980781 0
    outer loop
      vertex -58.8481 -32.9716 0
      vertex -57.7 -33.2 1
      vertex -58.8481 -32.9716 1
    endloop
  endfacet
  facet normal -0.195114 -0.980781 -0
    outer loop
      vertex -57.7 -33.2 1
      vertex -58.8481 -32.9716 0
      vertex -57.7 -33.2 0
    endloop
  endfacet
  facet normal 0.555548 -0.831485 0
    outer loop
      vertex 58.848 -32.9716 0
      vertex 59.8213 -32.3213 1
      vertex 58.848 -32.9716 1
    endloop
  endfacet
  facet normal 0.555548 -0.831485 0
    outer loop
      vertex 59.8213 -32.3213 1
      vertex 58.848 -32.9716 0
      vertex 59.8213 -32.3213 0
    endloop
  endfacet
  facet normal 0 -1 0
    outer loop
      vertex -57.7 0.2 0
      vertex 57.7 0.2 1
      vertex -57.7 0.2 1
    endloop
  endfacet
  facet normal 0 -1 -0
    outer loop
      vertex 57.7 0.2 1
      vertex -57.7 0.2 0
      vertex 57.7 0.2 0
    endloop
  endfacet
  facet normal -1 0 0
    outer loop
      vertex 57.7 -30.2 0
      vertex 57.7 0.2 1
      vertex 57.7 0.2 0
    endloop
  endfacet
  facet normal -1 -0 0
    outer loop
      vertex 57.7 0.2 1
      vertex 57.7 -30.2 0
      vertex 57.7 -30.2 1
    endloop
  endfacet
  facet normal 0 1 -0
    outer loop
      vertex 57.7 -30.2 0
      vertex -57.7 -30.2 1
      vertex 57.7 -30.2 1
    endloop
  endfacet
  facet normal 0 1 0
    outer loop
      vertex -57.7 -30.2 1
      vertex 57.7 -30.2 0
      vertex -57.7 -30.2 0
    endloop
  endfacet
  facet normal 1 -0 0
    outer loop
      vertex -57.7 -30.2 1
      vertex -57.7 0.2 0
      vertex -57.7 0.2 1
    endloop
  endfacet
  facet normal 1 0 0
    outer loop
      vertex -57.7 0.2 0
      vertex -57.7 -30.2 1
      vertex -57.7 -30.2 0
    endloop
  endfacet
  facet normal 1 -0 0
    outer loop
      vertex 60 -32.0539 1
      vertex 60 2.0539 0
      vertex 60 2.0539 1
    endloop
  endfacet
  facet normal 1 0 0
    outer loop
      vertex 60 2.0539 0
      vertex 60 -32.0539 1
      vertex 60 -32.0539 0
    endloop
  endfacet
  facet normal -1 0 0
    outer loop
      vertex -60 -32.0539 0
      vertex -60 2.05392 1
      vertex -60 2.05392 0
    endloop
  endfacet
  facet normal -1 -0 0
    outer loop
      vertex -60 2.05392 1
      vertex -60 -32.0539 0
      vertex -60 -32.0539 1
    endloop
  endfacet
  facet normal 0 0 1
    outer loop
      vertex 57.7 0.2 1
      vertex 60 2.0539 1
      vertex 59.8213 2.32132 1
    endloop
  endfacet
  facet normal 0 0 1
    outer loop
      vertex 60 2.0539 1
      vertex 57.7 0.2 1
      vertex 60 -32.0539 1
    endloop
  endfacet
  facet normal 0 0 1
    outer loop
      vertex 57.7 0.2 1
      vertex 59.8213 2.32132 1
      vertex 58.848 2.97165 1
    endloop
  endfacet
  facet normal -0 0 1
    outer loop
      vertex 57.7 -30.2 1
      vertex 60 -32.0539 1
      vertex 57.7 0.2 1
    endloop
  endfacet
  facet normal 0 0 1
    outer loop
      vertex 60 -32.0539 1
      vertex 57.7 -30.2 1
      vertex 59.8213 -32.3213 1
    endloop
  endfacet
  facet normal 0 0 1
    outer loop
      vertex 57.7 3.2 1
      vertex 57.7 0.2 1
      vertex 58.848 2.97165 1
    endloop
  endfacet
  facet normal -0 0 1
    outer loop
      vertex -57.7 3.2 1
      vertex 57.7 0.2 1
      vertex 57.7 3.2 1
    endloop
  endfacet
  facet normal 0 0 1
    outer loop
      vertex -57.7 3.2 1
      vertex -57.7 0.2 1
      vertex 57.7 0.2 1
    endloop
  endfacet
  facet normal -0 0 1
    outer loop
      vertex -58.8481 2.97165 1
      vertex -57.7 0.2 1
      vertex -57.7 3.2 1
    endloop
  endfacet
  facet normal 0 0 1
    outer loop
      vertex -57.7 0.2 1
      vertex -60 2.05392 1
      vertex -57.7 -30.2 1
    endloop
  endfacet
  facet normal -0 0 1
    outer loop
      vertex -59.8213 2.32132 1
      vertex -57.7 0.2 1
      vertex -58.8481 2.97165 1
    endloop
  endfacet
  facet normal 0 0 1
    outer loop
      vertex -60 -32.0539 1
      vertex -57.7 -30.2 1
      vertex -60 2.05392 1
    endloop
  endfacet
  facet normal 0 0 1
    outer loop
      vertex -57.7 0.2 1
      vertex -59.8213 2.32132 1
      vertex -60 2.05392 1
    endloop
  endfacet
  facet normal 0 -0 1
    outer loop
      vertex -59.8213 -32.3213 1
      vertex -57.7 -30.2 1
      vertex -60 -32.0539 1
    endloop
  endfacet
  facet normal 0 0 1
    outer loop
      vertex -57.7 -30.2 1
      vertex -58.8481 -32.9716 1
      vertex -57.7 -33.2 1
    endloop
  endfacet
  facet normal 0 0 1
    outer loop
      vertex -57.7 -30.2 1
      vertex -59.8213 -32.3213 1
      vertex -58.8481 -32.9716 1
    endloop
  endfacet
  facet normal 0 0 1
    outer loop
      vertex 59.8213 -32.3213 1
      vertex 57.7 -30.2 1
      vertex 58.848 -32.9716 1
    endloop
  endfacet
  facet normal 0 0 1
    outer loop
      vertex 57.7 -30.2 1
      vertex 57.7 -33.2 1
      vertex 58.848 -32.9716 1
    endloop
  endfacet
  facet normal -0 0 1
    outer loop
      vertex -57.7 -30.2 1
      vertex 57.7 -33.2 1
      vertex 57.7 -30.2 1
    endloop
  endfacet
  facet normal 0 0 1
    outer loop
      vertex 57.7 -33.2 1
      vertex -57.7 -30.2 1
      vertex -57.7 -33.2 1
    endloop
  endfacet
  facet normal 0 0 -1
    outer loop
      vertex 57.7 -30.2 0
      vertex 60 -32.0539 0
      vertex 59.8213 -32.3213 0
    endloop
  endfacet
  facet normal 0 0 -1
    outer loop
      vertex 60 -32.0539 0
      vertex 57.7 -30.2 0
      vertex 60 2.0539 0
    endloop
  endfacet
  facet normal 0 0 -1
    outer loop
      vertex 57.7 -30.2 0
      vertex 59.8213 -32.3213 0
      vertex 58.848 -32.9716 0
    endloop
  endfacet
  facet normal 0 0 -1
    outer loop
      vertex 57.7 0.2 0
      vertex 60 2.0539 0
      vertex 57.7 -30.2 0
    endloop
  endfacet
  facet normal -0 0 -1
    outer loop
      vertex 60 2.0539 0
      vertex 57.7 0.2 0
      vertex 59.8213 2.32132 0
    endloop
  endfacet
  facet normal 0 0 -1
    outer loop
      vertex 57.7 -33.2 0
      vertex 57.7 -30.2 0
      vertex 58.848 -32.9716 0
    endloop
  endfacet
  facet normal 0 0 -1
    outer loop
      vertex -57.7 -33.2 0
      vertex 57.7 -30.2 0
      vertex 57.7 -33.2 0
    endloop
  endfacet
  facet normal 0 0 -1
    outer loop
      vertex -57.7 -33.2 0
      vertex -57.7 -30.2 0
      vertex 57.7 -30.2 0
    endloop
  endfacet
  facet normal 0 0 -1
    outer loop
      vertex -58.8481 -32.9716 0
      vertex -57.7 -30.2 0
      vertex -57.7 -33.2 0
    endloop
  endfacet
  facet normal -0 0 -1
    outer loop
      vertex -57.7 -30.2 0
      vertex -60 -32.0539 0
      vertex -57.7 0.2 0
    endloop
  endfacet
  facet normal 0 0 -1
    outer loop
      vertex -59.8213 -32.3213 0
      vertex -57.7 -30.2 0
      vertex -58.8481 -32.9716 0
    endloop
  endfacet
  facet normal 0 0 -1
    outer loop
      vertex -60 2.05392 0
      vertex -57.7 0.2 0
      vertex -60 -32.0539 0
    endloop
  endfacet
  facet normal 0 0 -1
    outer loop
      vertex -57.7 -30.2 0
      vertex -59.8213 -32.3213 0
      vertex -60 -32.0539 0
    endloop
  endfacet
  facet normal 0 -0 -1
    outer loop
      vertex -59.8213 2.32132 0
      vertex -57.7 0.2 0
      vertex -60 2.05392 0
    endloop
  endfacet
  facet normal 0 0 -1
    outer loop
      vertex -57.7 0.2 0
      vertex -58.8481 2.97165 0
      vertex -57.7 3.2 0
    endloop
  endfacet
  facet normal 0 0 -1
    outer loop
      vertex -57.7 0.2 0
      vertex -59.8213 2.32132 0
      vertex -58.8481 2.97165 0
    endloop
  endfacet
  facet normal -0 0 -1
    outer loop
      vertex 59.8213 2.32132 0
      vertex 57.7 0.2 0
      vertex 58.848 2.97165 0
    endloop
  endfacet
  facet normal 0 0 -1
    outer loop
      vertex 57.7 0.2 0
      vertex 57.7 3.2 0
      vertex 58.848 2.97165 0
    endloop
  endfacet
  facet normal 0 0 -1
    outer loop
      vertex -57.7 0.2 0
      vertex 57.7 3.2 0
      vertex 57.7 0.2 0
    endloop
  endfacet
  facet normal -0 0 -1
    outer loop
      vertex 57.7 3.2 0
      vertex -57.7 0.2 0
      vertex -57.7 3.2 0
    endloop
  endfacet
endsolid OpenSCAD_Model
