solid OpenSCAD_Model
  facet normal -0.432936 0.648011 -0.626617
    outer loop
      vertex 17.9797 27.3203 0
      vertex 2.17723 27.7863 11.4
      vertex 18.6772 27.7863 0
    endloop
  endfacet
  facet normal -0.432933 0.648016 -0.626613
    outer loop
      vertex 2.17723 27.7863 11.4
      vertex 17.9797 27.3203 0
      vertex 1.47972 27.3203 11.4
    endloop
  endfacet
  facet normal -1 0 0
    outer loop
      vertex 0.850006 1 11.4
      vertex 0.850006 25.8 19
      vertex 0.850006 25.8 11.4
    endloop
  endfacet
  facet normal -1 -0 0
    outer loop
      vertex 0.850006 25.8 19
      vertex 0.850006 1 11.4
      vertex 0.850006 1 19
    endloop
  endfacet
  facet normal 0 0 1
    outer loop
      vertex 49.15 21.8 19
      vertex 50.15 21.8 19
      vertex 49.9863 22.6228 19
    endloop
  endfacet
  facet normal 0 0 1
    outer loop
      vertex 50.15 21.8 19
      vertex 49.15 21.8 19
      vertex 50.15 5 19
    endloop
  endfacet
  facet normal 0 0 1
    outer loop
      vertex 49.0625 22.2401 19
      vertex 49.9863 22.6228 19
      vertex 49.5203 23.3203 19
    endloop
  endfacet
  facet normal 0 0 1
    outer loop
      vertex 49.15 5 19
      vertex 50.15 5 19
      vertex 49.15 21.8 19
    endloop
  endfacet
  facet normal 0 0 1
    outer loop
      vertex 50.15 5 19
      vertex 49.15 5 19
      vertex 49.9863 4.17722 19
    endloop
  endfacet
  facet normal 0 0 1
    outer loop
      vertex 49.9863 22.6228 19
      vertex 49.0625 22.2401 19
      vertex 49.15 21.8 19
    endloop
  endfacet
  facet normal 0 0 1
    outer loop
      vertex 49.5203 23.3203 19
      vertex 48.8132 22.6132 19
      vertex 49.0625 22.2401 19
    endloop
  endfacet
  facet normal 0 0 1
    outer loop
      vertex 45.5203 27.3203 19
      vertex 48.8132 22.6132 19
      vertex 49.5203 23.3203 19
    endloop
  endfacet
  facet normal 0 0 1
    outer loop
      vertex 44.8132 26.6132 19
      vertex 45.5203 27.3203 19
      vertex 44.8228 27.7863 19
    endloop
  endfacet
  facet normal 0 0 1
    outer loop
      vertex 45.5203 27.3203 19
      vertex 44.8132 26.6132 19
      vertex 48.8132 22.6132 19
    endloop
  endfacet
  facet normal 0 0 1
    outer loop
      vertex 44.8228 27.7863 19
      vertex 44.4401 26.8625 19
      vertex 44.8132 26.6132 19
    endloop
  endfacet
  facet normal 0 0 1
    outer loop
      vertex 44 27.95 19
      vertex 44.4401 26.8625 19
      vertex 44.8228 27.7863 19
    endloop
  endfacet
  facet normal 0 0 1
    outer loop
      vertex 44 27.95 19
      vertex 44 26.95 19
      vertex 44.4401 26.8625 19
    endloop
  endfacet
  facet normal -0 0 1
    outer loop
      vertex 3 27.95 19
      vertex 44 26.95 19
      vertex 44 27.95 19
    endloop
  endfacet
  facet normal 0 0 1
    outer loop
      vertex 3 27.95 19
      vertex 3 26.95 19
      vertex 44 26.95 19
    endloop
  endfacet
  facet normal 0 0 1
    outer loop
      vertex 3 27.95 19
      vertex 2.55992 26.8625 19
      vertex 3 26.95 19
    endloop
  endfacet
  facet normal -0 0 1
    outer loop
      vertex 2.17723 27.7863 19
      vertex 2.55992 26.8625 19
      vertex 3 27.95 19
    endloop
  endfacet
  facet normal 0 0 1
    outer loop
      vertex 2.55992 26.8625 19
      vertex 2.17723 27.7863 19
      vertex 2.18683 26.6132 19
    endloop
  endfacet
  facet normal -0 0 1
    outer loop
      vertex 1.47972 27.3203 19
      vertex 2.18683 26.6132 19
      vertex 2.17723 27.7863 19
    endloop
  endfacet
  facet normal 0 0 1
    outer loop
      vertex 2.18683 26.6132 19
      vertex 1.47972 27.3203 19
      vertex 1.93755 26.2401 19
    endloop
  endfacet
  facet normal 0 0 1
    outer loop
      vertex 1.93755 26.2401 19
      vertex 1.01367 26.6228 19
      vertex 1.85001 25.8 19
    endloop
  endfacet
  facet normal -0 0 1
    outer loop
      vertex 1.01367 26.6228 19
      vertex 1.93755 26.2401 19
      vertex 1.47972 27.3203 19
    endloop
  endfacet
  facet normal -0 0 1
    outer loop
      vertex 49.0625 4.55991 19
      vertex 49.9863 4.17722 19
      vertex 49.15 5 19
    endloop
  endfacet
  facet normal 0 0 1
    outer loop
      vertex 49.9863 4.17722 19
      vertex 49.0625 4.55991 19
      vertex 49.5203 3.47971 19
    endloop
  endfacet
  facet normal -0 0 1
    outer loop
      vertex 48.8132 4.18681 19
      vertex 49.5203 3.47971 19
      vertex 49.0625 4.55991 19
    endloop
  endfacet
  facet normal 0 0 1
    outer loop
      vertex 48.8132 4.18681 19
      vertex 45.5203 -0.520279 19
      vertex 49.5203 3.47971 19
    endloop
  endfacet
  facet normal -0 0 1
    outer loop
      vertex 44.8132 0.186829 19
      vertex 45.5203 -0.520279 19
      vertex 48.8132 4.18681 19
    endloop
  endfacet
  facet normal 0 0 1
    outer loop
      vertex 45.5203 -0.520279 19
      vertex 44.8132 0.186829 19
      vertex 44.8228 -0.986328 19
    endloop
  endfacet
  facet normal -0 0 1
    outer loop
      vertex 44.4401 -0.0624542 19
      vertex 44.8228 -0.986328 19
      vertex 44.8132 0.186829 19
    endloop
  endfacet
  facet normal -0 0 1
    outer loop
      vertex 44 -0.149994 19
      vertex 44.8228 -0.986328 19
      vertex 44.4401 -0.0624542 19
    endloop
  endfacet
  facet normal 0 0 1
    outer loop
      vertex 44 -0.149994 19
      vertex 44 -1.14999 19
      vertex 44.8228 -0.986328 19
    endloop
  endfacet
  facet normal -0 0 1
    outer loop
      vertex 3 -0.149994 19
      vertex 44 -1.14999 19
      vertex 44 -0.149994 19
    endloop
  endfacet
  facet normal 0 0 1
    outer loop
      vertex 3 -0.149994 19
      vertex 3 -1.14999 19
      vertex 44 -1.14999 19
    endloop
  endfacet
  facet normal 0 0 1
    outer loop
      vertex 2.55992 -0.0624542 19
      vertex 3 -1.14999 19
      vertex 3 -0.149994 19
    endloop
  endfacet
  facet normal 0 0 1
    outer loop
      vertex 2.17723 -0.986328 19
      vertex 2.55992 -0.0624542 19
      vertex 2.18683 0.186829 19
    endloop
  endfacet
  facet normal 0 0 1
    outer loop
      vertex 2.55992 -0.0624542 19
      vertex 2.17723 -0.986328 19
      vertex 3 -1.14999 19
    endloop
  endfacet
  facet normal 0 0 1
    outer loop
      vertex 1.47972 -0.520279 19
      vertex 2.18683 0.186829 19
      vertex 1.93755 0.559921 19
    endloop
  endfacet
  facet normal 0 0 1
    outer loop
      vertex 1.01367 0.177231 19
      vertex 1.93755 0.559921 19
      vertex 1.85001 1 19
    endloop
  endfacet
  facet normal 0 0 1
    outer loop
      vertex 2.18683 0.186829 19
      vertex 1.47972 -0.520279 19
      vertex 2.17723 -0.986328 19
    endloop
  endfacet
  facet normal 0 0 1
    outer loop
      vertex 1.85001 25.8 19
      vertex 0.850006 25.8 19
      vertex 1.85001 1 19
    endloop
  endfacet
  facet normal 0 0 1
    outer loop
      vertex 1.85001 25.8 19
      vertex 1.01367 26.6228 19
      vertex 0.850006 25.8 19
    endloop
  endfacet
  facet normal 0 0 1
    outer loop
      vertex 0.850006 1 19
      vertex 1.85001 1 19
      vertex 0.850006 25.8 19
    endloop
  endfacet
  facet normal 0 -0 1
    outer loop
      vertex 1.01367 0.177231 19
      vertex 1.85001 1 19
      vertex 0.850006 1 19
    endloop
  endfacet
  facet normal 0 0 1
    outer loop
      vertex 1.93755 0.559921 19
      vertex 1.01367 0.177231 19
      vertex 1.47972 -0.520279 19
    endloop
  endfacet
  facet normal -0.568432 0 -0.82273
    outer loop
      vertex 0.850006 1 11.4
      vertex 17.35 25.8 0
      vertex 17.35 1 0
    endloop
  endfacet
  facet normal -0.568432 0 -0.82273
    outer loop
      vertex 17.35 25.8 0
      vertex 0.850006 1 11.4
      vertex 0.850006 25.8 11.4
    endloop
  endfacet
  facet normal -0.564831 0.112376 -0.817519
    outer loop
      vertex 17.35 25.8 0
      vertex 1.01367 26.6228 11.4
      vertex 17.5137 26.6228 0
    endloop
  endfacet
  facet normal -0.564833 0.112352 -0.817521
    outer loop
      vertex 1.01367 26.6228 11.4
      vertex 17.35 25.8 0
      vertex 0.850006 25.8 11.4
    endloop
  endfacet
  facet normal -0.195094 -0.980785 0
    outer loop
      vertex 2.17723 -0.986328 11.4
      vertex 3 -1.14999 19
      vertex 2.17723 -0.986328 19
    endloop
  endfacet
  facet normal -0.195094 -0.980785 -0
    outer loop
      vertex 3 -1.14999 19
      vertex 2.17723 -0.986328 11.4
      vertex 3 -1.14999 11.4
    endloop
  endfacet
  facet normal -0.56483 -0.11238 -0.817519
    outer loop
      vertex 1.01367 0.177231 11.4
      vertex 17.35 1 0
      vertex 17.5137 0.177231 0
    endloop
  endfacet
  facet normal -0.564833 -0.112356 -0.817521
    outer loop
      vertex 17.35 1 0
      vertex 1.01367 0.177231 11.4
      vertex 0.850006 1 11.4
    endloop
  endfacet
  facet normal -0.187785 0.943856 -0.271794
    outer loop
      vertex 18.6772 27.7863 0
      vertex 3 27.95 11.4
      vertex 19.5 27.95 0
    endloop
  endfacet
  facet normal 0.19513 0.980777 -0
    outer loop
      vertex 44.8228 27.7863 0
      vertex 44 27.95 19
      vertex 44.8228 27.7863 19
    endloop
  endfacet
  facet normal 0.19513 0.980777 0
    outer loop
      vertex 44 27.95 19
      vertex 44.8228 27.7863 0
      vertex 44 27.95 0
    endloop
  endfacet
  facet normal 0.707107 0.707107 0
    outer loop
      vertex 49.5203 23.3203 19
      vertex 45.5203 27.3203 0
      vertex 45.5203 27.3203 19
    endloop
  endfacet
  facet normal 0.707107 0.707107 0
    outer loop
      vertex 45.5203 27.3203 0
      vertex 49.5203 23.3203 19
      vertex 49.5203 23.3203 0
    endloop
  endfacet
  facet normal -0.531402 0.35503 -0.769133
    outer loop
      vertex 17.5137 26.6228 0
      vertex 1.47972 27.3203 11.4
      vertex 17.9797 27.3203 0
    endloop
  endfacet
  facet normal -0.531394 0.355062 -0.769124
    outer loop
      vertex 1.47972 27.3203 11.4
      vertex 17.5137 26.6228 0
      vertex 1.01367 26.6228 11.4
    endloop
  endfacet
  facet normal -0.187791 0.943853 -0.271802
    outer loop
      vertex 18.6772 27.7863 0
      vertex 2.17723 27.7863 11.4
      vertex 3 27.95 11.4
    endloop
  endfacet
  facet normal -0.55556 -0.831476 0
    outer loop
      vertex 1.47972 -0.520279 11.4
      vertex 2.17723 -0.986328 19
      vertex 1.47972 -0.520279 19
    endloop
  endfacet
  facet normal -0.55556 -0.831476 -0
    outer loop
      vertex 2.17723 -0.986328 19
      vertex 1.47972 -0.520279 11.4
      vertex 2.17723 -0.986328 11.4
    endloop
  endfacet
  facet normal 1 -0 0
    outer loop
      vertex 50.15 5 19
      vertex 50.15 21.8 0
      vertex 50.15 21.8 19
    endloop
  endfacet
  facet normal 1 0 0
    outer loop
      vertex 50.15 21.8 0
      vertex 50.15 5 19
      vertex 50.15 5 0
    endloop
  endfacet
  facet normal -0.831472 0.555566 0
    outer loop
      vertex 1.01367 26.6228 11.4
      vertex 1.47972 27.3203 19
      vertex 1.47972 27.3203 11.4
    endloop
  endfacet
  facet normal -0.831472 0.555566 0
    outer loop
      vertex 1.47972 27.3203 19
      vertex 1.01367 26.6228 11.4
      vertex 1.01367 26.6228 19
    endloop
  endfacet
  facet normal -0.187752 -0.943877 -0.271746
    outer loop
      vertex 3 -1.14999 11.4
      vertex 2.17723 -0.986328 11.4
      vertex 18.6772 -0.986328 0
    endloop
  endfacet
  facet normal 0.555525 0.8315 -0
    outer loop
      vertex 45.5203 27.3203 0
      vertex 44.8228 27.7863 19
      vertex 45.5203 27.3203 19
    endloop
  endfacet
  facet normal 0.555525 0.8315 0
    outer loop
      vertex 44.8228 27.7863 19
      vertex 45.5203 27.3203 0
      vertex 44.8228 27.7863 0
    endloop
  endfacet
  facet normal 0.8315 0.555525 0
    outer loop
      vertex 49.9863 22.6228 19
      vertex 49.5203 23.3203 0
      vertex 49.5203 23.3203 19
    endloop
  endfacet
  facet normal 0.8315 0.555525 0
    outer loop
      vertex 49.5203 23.3203 0
      vertex 49.9863 22.6228 19
      vertex 49.9863 22.6228 0
    endloop
  endfacet
  facet normal 0.980777 0.19513 0
    outer loop
      vertex 50.15 21.8 19
      vertex 49.9863 22.6228 0
      vertex 49.9863 22.6228 19
    endloop
  endfacet
  facet normal 0.980777 0.19513 0
    outer loop
      vertex 49.9863 22.6228 0
      vertex 50.15 21.8 19
      vertex 50.15 21.8 0
    endloop
  endfacet
  facet normal 0.980776 -0.195135 0
    outer loop
      vertex 49.9863 4.17722 19
      vertex 50.15 5 0
      vertex 50.15 5 19
    endloop
  endfacet
  facet normal 0.980776 -0.195135 0
    outer loop
      vertex 50.15 5 0
      vertex 49.9863 4.17722 19
      vertex 49.9863 4.17722 0
    endloop
  endfacet
  facet normal -0.195137 0.980776 0
    outer loop
      vertex 3 27.95 11.4
      vertex 2.17723 27.7863 19
      vertex 3 27.95 19
    endloop
  endfacet
  facet normal -0.195137 0.980776 0
    outer loop
      vertex 2.17723 27.7863 19
      vertex 3 27.95 11.4
      vertex 2.17723 27.7863 11.4
    endloop
  endfacet
  facet normal -0.531403 -0.355025 -0.769135
    outer loop
      vertex 1.47972 -0.520279 11.4
      vertex 17.5137 0.177231 0
      vertex 17.9797 -0.520279 0
    endloop
  endfacet
  facet normal -0.531395 -0.355058 -0.769125
    outer loop
      vertex 17.5137 0.177231 0
      vertex 1.47972 -0.520279 11.4
      vertex 1.01367 0.177231 11.4
    endloop
  endfacet
  facet normal -0.432952 -0.647976 -0.626641
    outer loop
      vertex 17.9797 -0.520279 0
      vertex 2.17723 -0.986328 11.4
      vertex 1.47972 -0.520279 11.4
    endloop
  endfacet
  facet normal -0.432955 -0.647971 -0.626645
    outer loop
      vertex 2.17723 -0.986328 11.4
      vertex 17.9797 -0.520279 0
      vertex 18.6772 -0.986328 0
    endloop
  endfacet
  facet normal -0.831476 -0.555561 0
    outer loop
      vertex 1.47972 -0.520279 11.4
      vertex 1.01367 0.177231 19
      vertex 1.01367 0.177231 11.4
    endloop
  endfacet
  facet normal -0.831476 -0.555561 0
    outer loop
      vertex 1.01367 0.177231 19
      vertex 1.47972 -0.520279 11.4
      vertex 1.47972 -0.520279 19
    endloop
  endfacet
  facet normal 0.707106 -0.707108 0
    outer loop
      vertex 45.5203 -0.520279 0
      vertex 49.5203 3.47971 19
      vertex 45.5203 -0.520279 19
    endloop
  endfacet
  facet normal 0.707106 -0.707108 0
    outer loop
      vertex 49.5203 3.47971 19
      vertex 45.5203 -0.520279 0
      vertex 49.5203 3.47971 0
    endloop
  endfacet
  facet normal 0 1 -0
    outer loop
      vertex 19.5 27.95 0
      vertex 3 27.95 19
      vertex 44 27.95 19
    endloop
  endfacet
  facet normal 0 1 0
    outer loop
      vertex 19.5 27.95 0
      vertex 44 27.95 19
      vertex 44 27.95 0
    endloop
  endfacet
  facet normal 0 1 0
    outer loop
      vertex 3 27.95 19
      vertex 19.5 27.95 0
      vertex 3 27.95 11.4
    endloop
  endfacet
  facet normal 0 0 -1
    outer loop
      vertex 49.15 5 0
      vertex 50.15 5 0
      vertex 49.9863 4.17722 0
    endloop
  endfacet
  facet normal 0 0 -1
    outer loop
      vertex 50.15 5 0
      vertex 49.15 5 0
      vertex 50.15 21.8 0
    endloop
  endfacet
  facet normal 0 0 -1
    outer loop
      vertex 49.0625 4.55991 0
      vertex 49.9863 4.17722 0
      vertex 49.5203 3.47971 0
    endloop
  endfacet
  facet normal 0 0 -1
    outer loop
      vertex 49.15 21.8 0
      vertex 50.15 21.8 0
      vertex 49.15 5 0
    endloop
  endfacet
  facet normal 0 0 -1
    outer loop
      vertex 50.15 21.8 0
      vertex 49.15 21.8 0
      vertex 49.9863 22.6228 0
    endloop
  endfacet
  facet normal 0 0 -1
    outer loop
      vertex 49.9863 4.17722 0
      vertex 49.0625 4.55991 0
      vertex 49.15 5 0
    endloop
  endfacet
  facet normal 0 0 -1
    outer loop
      vertex 49.5203 3.47971 0
      vertex 48.8132 4.18681 0
      vertex 49.0625 4.55991 0
    endloop
  endfacet
  facet normal 0 0 -1
    outer loop
      vertex 45.5203 -0.520279 0
      vertex 48.8132 4.18681 0
      vertex 49.5203 3.47971 0
    endloop
  endfacet
  facet normal 0 0 -1
    outer loop
      vertex 44.8132 0.186829 0
      vertex 45.5203 -0.520279 0
      vertex 44.8228 -0.986328 0
    endloop
  endfacet
  facet normal 0 0 -1
    outer loop
      vertex 45.5203 -0.520279 0
      vertex 44.8132 0.186829 0
      vertex 48.8132 4.18681 0
    endloop
  endfacet
  facet normal 0 0 -1
    outer loop
      vertex 44.8228 -0.986328 0
      vertex 44.4401 -0.0624542 0
      vertex 44.8132 0.186829 0
    endloop
  endfacet
  facet normal 0 0 -1
    outer loop
      vertex 44 -1.14999 0
      vertex 44.4401 -0.0624542 0
      vertex 44.8228 -0.986328 0
    endloop
  endfacet
  facet normal 0 0 -1
    outer loop
      vertex 44 -1.14999 0
      vertex 44 -0.149994 0
      vertex 44.4401 -0.0624542 0
    endloop
  endfacet
  facet normal 0 0 -1
    outer loop
      vertex 19.5 -1.14999 0
      vertex 44 -0.149994 0
      vertex 44 -1.14999 0
    endloop
  endfacet
  facet normal 0 0 -1
    outer loop
      vertex 19.5 -1.14999 0
      vertex 19.5 -0.149994 0
      vertex 44 -0.149994 0
    endloop
  endfacet
  facet normal 0 0 -1
    outer loop
      vertex 19.5 -1.14999 0
      vertex 19.0599 -0.0624542 0
      vertex 19.5 -0.149994 0
    endloop
  endfacet
  facet normal 0 0 -1
    outer loop
      vertex 18.6772 -0.986328 0
      vertex 19.0599 -0.0624542 0
      vertex 19.5 -1.14999 0
    endloop
  endfacet
  facet normal -0 0 -1
    outer loop
      vertex 19.0599 -0.0624542 0
      vertex 18.6772 -0.986328 0
      vertex 18.6868 0.186829 0
    endloop
  endfacet
  facet normal 0 0 -1
    outer loop
      vertex 17.9797 -0.520279 0
      vertex 18.6868 0.186829 0
      vertex 18.6772 -0.986328 0
    endloop
  endfacet
  facet normal -0 0 -1
    outer loop
      vertex 18.6868 0.186829 0
      vertex 17.9797 -0.520279 0
      vertex 18.4375 0.559921 0
    endloop
  endfacet
  facet normal 0 0 -1
    outer loop
      vertex 17.35 1 0
      vertex 18.35 9 0
      vertex 18.35 1 0
    endloop
  endfacet
  facet normal 0 0 -1
    outer loop
      vertex 17.35 25.8 0
      vertex 18.35 9 0
      vertex 17.35 1 0
    endloop
  endfacet
  facet normal -0 0 -1
    outer loop
      vertex 18.4375 0.559921 0
      vertex 17.5137 0.177231 0
      vertex 18.35 1 0
    endloop
  endfacet
  facet normal 0 0 -1
    outer loop
      vertex 17.5137 0.177231 0
      vertex 18.4375 0.559921 0
      vertex 17.9797 -0.520279 0
    endloop
  endfacet
  facet normal 0 0 -1
    outer loop
      vertex 49.0625 22.2401 0
      vertex 49.9863 22.6228 0
      vertex 49.15 21.8 0
    endloop
  endfacet
  facet normal -0 0 -1
    outer loop
      vertex 49.9863 22.6228 0
      vertex 49.0625 22.2401 0
      vertex 49.5203 23.3203 0
    endloop
  endfacet
  facet normal 0 0 -1
    outer loop
      vertex 48.8132 22.6132 0
      vertex 49.5203 23.3203 0
      vertex 49.0625 22.2401 0
    endloop
  endfacet
  facet normal 0 0 -1
    outer loop
      vertex 48.8132 22.6132 0
      vertex 45.5203 27.3203 0
      vertex 49.5203 23.3203 0
    endloop
  endfacet
  facet normal 0 0 -1
    outer loop
      vertex 44.8132 26.6132 0
      vertex 45.5203 27.3203 0
      vertex 48.8132 22.6132 0
    endloop
  endfacet
  facet normal -0 0 -1
    outer loop
      vertex 45.5203 27.3203 0
      vertex 44.8132 26.6132 0
      vertex 44.8228 27.7863 0
    endloop
  endfacet
  facet normal 0 0 -1
    outer loop
      vertex 44.4401 26.8625 0
      vertex 44.8228 27.7863 0
      vertex 44.8132 26.6132 0
    endloop
  endfacet
  facet normal 0 0 -1
    outer loop
      vertex 44 26.95 0
      vertex 44.8228 27.7863 0
      vertex 44.4401 26.8625 0
    endloop
  endfacet
  facet normal 0 0 -1
    outer loop
      vertex 44 26.95 0
      vertex 44 27.95 0
      vertex 44.8228 27.7863 0
    endloop
  endfacet
  facet normal 0 0 -1
    outer loop
      vertex 19.5 26.95 0
      vertex 44 27.95 0
      vertex 44 26.95 0
    endloop
  endfacet
  facet normal 0 0 -1
    outer loop
      vertex 19.5 26.95 0
      vertex 19.5 27.95 0
      vertex 44 27.95 0
    endloop
  endfacet
  facet normal 0 0 -1
    outer loop
      vertex 19.0599 26.8625 0
      vertex 19.5 27.95 0
      vertex 19.5 26.95 0
    endloop
  endfacet
  facet normal 0 0 -1
    outer loop
      vertex 18.6772 27.7863 0
      vertex 19.0599 26.8625 0
      vertex 18.6868 26.6132 0
    endloop
  endfacet
  facet normal 0 0 -1
    outer loop
      vertex 19.0599 26.8625 0
      vertex 18.6772 27.7863 0
      vertex 19.5 27.95 0
    endloop
  endfacet
  facet normal 0 0 -1
    outer loop
      vertex 17.9797 27.3203 0
      vertex 18.6868 26.6132 0
      vertex 18.4375 26.2401 0
    endloop
  endfacet
  facet normal 0 0 -1
    outer loop
      vertex 17.5137 26.6228 0
      vertex 18.4375 26.2401 0
      vertex 18.35 25.8 0
    endloop
  endfacet
  facet normal 0 0 -1
    outer loop
      vertex 18.6868 26.6132 0
      vertex 17.9797 27.3203 0
      vertex 18.6772 27.7863 0
    endloop
  endfacet
  facet normal 0 0 -1
    outer loop
      vertex 18.35 9 0
      vertex 17.35 25.8 0
      vertex 18.35 19 0
    endloop
  endfacet
  facet normal -0 0 -1
    outer loop
      vertex 18.35 1 0
      vertex 17.5137 0.177231 0
      vertex 17.35 1 0
    endloop
  endfacet
  facet normal 0 0 -1
    outer loop
      vertex 18.35 19 0
      vertex 17.35 25.8 0
      vertex 18.35 25.8 0
    endloop
  endfacet
  facet normal 0 -0 -1
    outer loop
      vertex 17.5137 26.6228 0
      vertex 18.35 25.8 0
      vertex 17.35 25.8 0
    endloop
  endfacet
  facet normal 0 0 -1
    outer loop
      vertex 18.4375 26.2401 0
      vertex 17.5137 26.6228 0
      vertex 17.9797 27.3203 0
    endloop
  endfacet
  facet normal 0 0 -1
    outer loop
      vertex 18.35 9 0
      vertex 19.9 19 0
      vertex 19.9 9 0
    endloop
  endfacet
  facet normal -0 0 -1
    outer loop
      vertex 19.9 19 0
      vertex 18.35 9 0
      vertex 18.35 19 0
    endloop
  endfacet
  facet normal -0.187746 -0.94388 -0.271738
    outer loop
      vertex 19.5 -1.14999 0
      vertex 3 -1.14999 11.4
      vertex 18.6772 -0.986328 0
    endloop
  endfacet
  facet normal -0.55552 0.831503 0
    outer loop
      vertex 2.17723 27.7863 11.4
      vertex 1.47972 27.3203 19
      vertex 2.17723 27.7863 19
    endloop
  endfacet
  facet normal -0.55552 0.831503 0
    outer loop
      vertex 1.47972 27.3203 19
      vertex 2.17723 27.7863 11.4
      vertex 1.47972 27.3203 11.4
    endloop
  endfacet
  facet normal 0.195087 -0.980786 0
    outer loop
      vertex 44 -1.14999 0
      vertex 44.8228 -0.986328 19
      vertex 44 -1.14999 19
    endloop
  endfacet
  facet normal 0.195087 -0.980786 0
    outer loop
      vertex 44.8228 -0.986328 19
      vertex 44 -1.14999 0
      vertex 44.8228 -0.986328 0
    endloop
  endfacet
  facet normal -0.980786 0.195089 0
    outer loop
      vertex 0.850006 25.8 11.4
      vertex 1.01367 26.6228 19
      vertex 1.01367 26.6228 11.4
    endloop
  endfacet
  facet normal -0.980786 0.195089 0
    outer loop
      vertex 1.01367 26.6228 19
      vertex 0.850006 25.8 11.4
      vertex 0.850006 25.8 19
    endloop
  endfacet
  facet normal 0.555566 -0.831473 0
    outer loop
      vertex 44.8228 -0.986328 0
      vertex 45.5203 -0.520279 19
      vertex 44.8228 -0.986328 19
    endloop
  endfacet
  facet normal 0.555566 -0.831473 0
    outer loop
      vertex 45.5203 -0.520279 19
      vertex 44.8228 -0.986328 0
      vertex 45.5203 -0.520279 0
    endloop
  endfacet
  facet normal 0.831503 -0.55552 0
    outer loop
      vertex 49.5203 3.47971 19
      vertex 49.9863 4.17722 0
      vertex 49.9863 4.17722 19
    endloop
  endfacet
  facet normal 0.831503 -0.55552 0
    outer loop
      vertex 49.9863 4.17722 0
      vertex 49.5203 3.47971 19
      vertex 49.5203 3.47971 0
    endloop
  endfacet
  facet normal -0.980784 -0.195096 0
    outer loop
      vertex 1.01367 0.177231 11.4
      vertex 0.850006 1 19
      vertex 0.850006 1 11.4
    endloop
  endfacet
  facet normal -0.980784 -0.195096 0
    outer loop
      vertex 0.850006 1 19
      vertex 1.01367 0.177231 11.4
      vertex 1.01367 0.177231 19
    endloop
  endfacet
  facet normal 0 -1 0
    outer loop
      vertex 19.5 -1.14999 0
      vertex 3 -1.14999 19
      vertex 3 -1.14999 11.4
    endloop
  endfacet
  facet normal 0 -1 0
    outer loop
      vertex 3 -1.14999 19
      vertex 19.5 -1.14999 0
      vertex 44 -1.14999 19
    endloop
  endfacet
  facet normal 0 -1 -0
    outer loop
      vertex 44 -1.14999 19
      vertex 19.5 -1.14999 0
      vertex 44 -1.14999 0
    endloop
  endfacet
  facet normal 0.186364 0.936934 0.295674
    outer loop
      vertex 19.5 -0.149994 1
      vertex 19.0599 -0.0624542 1
      vertex 3 -0.149994 11.4
    endloop
  endfacet
  facet normal 0 -1 0
    outer loop
      vertex 3 26.95 16
      vertex 3 26.95 11.4
      vertex 4.98554 26.95 16
    endloop
  endfacet
  facet normal 0 -1 0
    outer loop
      vertex 10.9 26.95 17
      vertex 43.2145 26.95 16
      vertex 43.2145 26.95 17
    endloop
  endfacet
  facet normal 0 -1 0
    outer loop
      vertex 19.5 26.95 1
      vertex 10.9 26.95 17
      vertex 10.9 26.95 6.42061
    endloop
  endfacet
  facet normal 0 -1 0
    outer loop
      vertex 10.9 26.95 17
      vertex 19.5 26.95 1
      vertex 43.2145 26.95 16
    endloop
  endfacet
  facet normal 0 -1 0
    outer loop
      vertex 44 26.95 0
      vertex 43.2145 26.95 16
      vertex 19.5 26.95 1
    endloop
  endfacet
  facet normal 0 -1 0
    outer loop
      vertex 44 26.95 0
      vertex 19.5 26.95 1
      vertex 19.5 26.95 0
    endloop
  endfacet
  facet normal 0 -1 0
    outer loop
      vertex 43.2145 26.95 16
      vertex 44 26.95 0
      vertex 44 26.95 16
    endloop
  endfacet
  facet normal 0 -1 0
    outer loop
      vertex 4.98554 26.95 16
      vertex 10.1 26.95 17
      vertex 4.98554 26.95 17
    endloop
  endfacet
  facet normal 0 -1 0
    outer loop
      vertex 10.1 26.95 6.92485
      vertex 4.98554 26.95 16
      vertex 3 26.95 11.4
    endloop
  endfacet
  facet normal 0 -1 0
    outer loop
      vertex 4.98554 26.95 16
      vertex 10.1 26.95 6.92485
      vertex 10.1 26.95 17
    endloop
  endfacet
  facet normal 0 -1 0
    outer loop
      vertex 4.98554 26.95 17
      vertex 3 26.95 19
      vertex 3 26.95 17
    endloop
  endfacet
  facet normal 0 -1 0
    outer loop
      vertex 10.1 26.95 17
      vertex 3 26.95 19
      vertex 4.98554 26.95 17
    endloop
  endfacet
  facet normal 0 -1 0
    outer loop
      vertex 10.9 26.95 17
      vertex 3 26.95 19
      vertex 10.1 26.95 17
    endloop
  endfacet
  facet normal 0 -1 0
    outer loop
      vertex 3 26.95 19
      vertex 10.9 26.95 17
      vertex 44 26.95 19
    endloop
  endfacet
  facet normal 0 -1 0
    outer loop
      vertex 43.2145 26.95 17
      vertex 44 26.95 19
      vertex 10.9 26.95 17
    endloop
  endfacet
  facet normal 0 -1 -0
    outer loop
      vertex 44 26.95 19
      vertex 43.2145 26.95 17
      vertex 44 26.95 17
    endloop
  endfacet
  facet normal 0.416769 0.623774 0.661219
    outer loop
      vertex 18.6868 0.186829 1
      vertex 2.55992 -0.0624542 11.4
      vertex 19.0599 -0.0624542 1
    endloop
  endfacet
  facet normal 0.416773 0.623764 0.661225
    outer loop
      vertex 2.55992 -0.0624542 11.4
      vertex 18.6868 0.186829 1
      vertex 2.18683 0.186829 11.4
    endloop
  endfacet
  facet normal -0.980802 0.195006 0
    outer loop
      vertex 49.0625 4.55991 0
      vertex 49.15 5 19
      vertex 49.15 5 0
    endloop
  endfacet
  facet normal -0.980802 0.195006 0
    outer loop
      vertex 49.15 5 19
      vertex 49.0625 4.55991 0
      vertex 49.0625 4.55991 19
    endloop
  endfacet
  facet normal 0.19501 -0.980801 0
    outer loop
      vertex 2.55992 26.8625 11.4
      vertex 3 26.95 16
      vertex 2.55992 26.8625 16
    endloop
  endfacet
  facet normal 0.19501 -0.980801 0
    outer loop
      vertex 3 26.95 16
      vertex 2.55992 26.8625 11.4
      vertex 3 26.95 11.4
    endloop
  endfacet
  facet normal 0.19501 -0.980801 0
    outer loop
      vertex 2.55992 26.8625 17
      vertex 3 26.95 19
      vertex 2.55992 26.8625 19
    endloop
  endfacet
  facet normal 0.19501 -0.980801 0
    outer loop
      vertex 3 26.95 19
      vertex 2.55992 26.8625 17
      vertex 3 26.95 17
    endloop
  endfacet
  facet normal 0.186368 -0.936931 0.29568
    outer loop
      vertex 10.1 26.9113 6.80222
      vertex 10.1 26.95 6.92485
      vertex 3 26.95 11.4
    endloop
  endfacet
  facet normal 0.186516 -0.936835 0.295893
    outer loop
      vertex 19.0599 26.8625 1
      vertex 10.9 26.95 6.42061
      vertex 10.9 26.9069 6.28415
    endloop
  endfacet
  facet normal 0.18629 -0.936986 0.295556
    outer loop
      vertex 10.9 26.95 6.42061
      vertex 19.0599 26.8625 1
      vertex 19.5 26.95 1
    endloop
  endfacet
  facet normal 0.530251 0.105429 0.84126
    outer loop
      vertex 18.35 1 1
      vertex 1.93755 0.559921 11.4
      vertex 18.4375 0.559921 1
    endloop
  endfacet
  facet normal 0.530247 0.105476 0.841257
    outer loop
      vertex 1.93755 0.559921 11.4
      vertex 18.35 1 1
      vertex 1.85001 1 11.4
    endloop
  endfacet
  facet normal 0.41678 -0.623748 0.661236
    outer loop
      vertex 10.9 26.8625 6.14322
      vertex 18.6868 26.6132 1
      vertex 19.0599 26.8625 1
    endloop
  endfacet
  facet normal 0.416785 -0.623738 0.661243
    outer loop
      vertex 18.6868 26.6132 1
      vertex 10.9 26.8625 6.14322
      vertex 10.9 26.6132 5.90806
    endloop
  endfacet
  facet normal 0.416784 -0.623738 0.661243
    outer loop
      vertex 2.55992 26.8625 11.4
      vertex 10.1 26.6132 6.4123
      vertex 10.1 26.8625 6.64746
    endloop
  endfacet
  facet normal 0.416784 -0.623738 0.661243
    outer loop
      vertex 10.1 26.6132 6.4123
      vertex 2.55992 26.8625 11.4
      vertex 2.18683 26.6132 11.4
    endloop
  endfacet
  facet normal -1 0 0
    outer loop
      vertex 49.15 5 0
      vertex 49.15 21.8 19
      vertex 49.15 21.8 0
    endloop
  endfacet
  facet normal -1 -0 0
    outer loop
      vertex 49.15 21.8 19
      vertex 49.15 5 0
      vertex 49.15 5 19
    endloop
  endfacet
  facet normal -0.555574 -0.831467 0
    outer loop
      vertex 44.4401 26.8625 17
      vertex 44.8132 26.6132 19
      vertex 44.4401 26.8625 19
    endloop
  endfacet
  facet normal -0.555574 -0.831467 -0
    outer loop
      vertex 44.8132 26.6132 19
      vertex 44.4401 26.8625 17
      vertex 44.8132 26.6132 17
    endloop
  endfacet
  facet normal -0.555574 -0.831467 0
    outer loop
      vertex 44.4401 26.8625 0
      vertex 44.8132 26.6132 16
      vertex 44.4401 26.8625 16
    endloop
  endfacet
  facet normal -0.555574 -0.831467 -0
    outer loop
      vertex 44.8132 26.6132 16
      vertex 44.4401 26.8625 0
      vertex 44.8132 26.6132 0
    endloop
  endfacet
  facet normal -0.980803 -0.195002 0
    outer loop
      vertex 49.15 21.8 0
      vertex 49.0625 22.2401 19
      vertex 49.0625 22.2401 0
    endloop
  endfacet
  facet normal -0.980803 -0.195002 0
    outer loop
      vertex 49.0625 22.2401 19
      vertex 49.15 21.8 0
      vertex 49.15 21.8 19
    endloop
  endfacet
  facet normal 0.186298 -0.936981 0.295568
    outer loop
      vertex 10.1 26.8625 6.64746
      vertex 3 26.95 11.4
      vertex 2.55992 26.8625 11.4
    endloop
  endfacet
  facet normal 0.186231 -0.937025 0.295469
    outer loop
      vertex 3 26.95 11.4
      vertex 10.1 26.8625 6.64746
      vertex 10.1 26.9113 6.80222
    endloop
  endfacet
  facet normal 0.186092 -0.937125 0.295241
    outer loop
      vertex 10.9 26.8625 6.14322
      vertex 19.0599 26.8625 1
      vertex 10.9 26.9069 6.28415
    endloop
  endfacet
  facet normal -0.831467 0.555574 0
    outer loop
      vertex 48.8132 4.18681 0
      vertex 49.0625 4.55991 19
      vertex 49.0625 4.55991 0
    endloop
  endfacet
  facet normal -0.831467 0.555574 0
    outer loop
      vertex 49.0625 4.55991 19
      vertex 48.8132 4.18681 0
      vertex 48.8132 4.18681 19
    endloop
  endfacet
  facet normal 1 0 0
    outer loop
      vertex 1.85001 25.8 19
      vertex 1.85001 23.5145 17
      vertex 1.85001 25.8 17
    endloop
  endfacet
  facet normal 1 0 0
    outer loop
      vertex 1.85001 23.5145 17
      vertex 1.85001 3.28553 17
      vertex 1.85001 23.5145 16
    endloop
  endfacet
  facet normal 1 0 0
    outer loop
      vertex 1.85001 25.8 19
      vertex 1.85001 3.28553 17
      vertex 1.85001 23.5145 17
    endloop
  endfacet
  facet normal 1 -0 0
    outer loop
      vertex 1.85001 1 19
      vertex 1.85001 3.28553 17
      vertex 1.85001 25.8 19
    endloop
  endfacet
  facet normal 1 0 0
    outer loop
      vertex 1.85001 3.28553 17
      vertex 1.85001 1 19
      vertex 1.85001 1 17
    endloop
  endfacet
  facet normal 1 -0 0
    outer loop
      vertex 1.85001 23.5145 16
      vertex 1.85001 25.8 11.4
      vertex 1.85001 25.8 16
    endloop
  endfacet
  facet normal 1 0 0
    outer loop
      vertex 1.85001 3.28553 16
      vertex 1.85001 23.5145 16
      vertex 1.85001 3.28553 17
    endloop
  endfacet
  facet normal 1 0 0
    outer loop
      vertex 1.85001 23.5145 16
      vertex 1.85001 3.28553 16
      vertex 1.85001 25.8 11.4
    endloop
  endfacet
  facet normal 1 0 0
    outer loop
      vertex 1.85001 1 11.4
      vertex 1.85001 3.28553 16
      vertex 1.85001 1 16
    endloop
  endfacet
  facet normal 1 0 0
    outer loop
      vertex 1.85001 3.28553 16
      vertex 1.85001 1 11.4
      vertex 1.85001 25.8 11.4
    endloop
  endfacet
  facet normal -0.707121 -0.707093 0
    outer loop
      vertex 44.8132 26.6132 0
      vertex 47.3809 24.0454 16
      vertex 44.8132 26.6132 16
    endloop
  endfacet
  facet normal -0.707082 -0.707131 -0
    outer loop
      vertex 48.8132 22.6132 19
      vertex 47.3809 24.0454 16
      vertex 48.8132 22.6132 0
    endloop
  endfacet
  facet normal -0.707107 -0.707107 -4.41942e-06
    outer loop
      vertex 48.8132 22.6132 0
      vertex 47.3809 24.0454 16
      vertex 44.8132 26.6132 0
    endloop
  endfacet
  facet normal -0.707121 -0.707093 0
    outer loop
      vertex 47.3809 24.0454 17
      vertex 44.8132 26.6132 19
      vertex 44.8132 26.6132 17
    endloop
  endfacet
  facet normal -0.707107 -0.707107 3.53553e-05
    outer loop
      vertex 47.3809 24.0454 17
      vertex 48.8132 22.6132 19
      vertex 44.8132 26.6132 19
    endloop
  endfacet
  facet normal -0.707082 -0.707131 0
    outer loop
      vertex 47.3809 24.0454 16
      vertex 48.8132 22.6132 19
      vertex 47.3809 24.0454 17
    endloop
  endfacet
  facet normal -0.555548 0.831484 0
    outer loop
      vertex 44.8132 0.186829 17
      vertex 44.4401 -0.0624542 19
      vertex 44.8132 0.186829 19
    endloop
  endfacet
  facet normal -0.555548 0.831484 0
    outer loop
      vertex 44.4401 -0.0624542 19
      vertex 44.8132 0.186829 17
      vertex 44.4401 -0.0624542 17
    endloop
  endfacet
  facet normal -0.555548 0.831484 0
    outer loop
      vertex 44.8132 0.186829 0
      vertex 44.4401 -0.0624542 16
      vertex 44.8132 0.186829 16
    endloop
  endfacet
  facet normal -0.555548 0.831484 0
    outer loop
      vertex 44.4401 -0.0624542 16
      vertex 44.8132 0.186829 0
      vertex 44.4401 -0.0624542 0
    endloop
  endfacet
  facet normal 0.502292 0.335631 0.796903
    outer loop
      vertex 18.4375 0.559921 1
      vertex 2.18683 0.186829 11.4
      vertex 18.6868 0.186829 1
    endloop
  endfacet
  facet normal 0.502296 0.335607 0.79691
    outer loop
      vertex 2.18683 0.186829 11.4
      vertex 18.4375 0.559921 1
      vertex 1.93755 0.559921 11.4
    endloop
  endfacet
  facet normal 0.555559 0.831477 -0
    outer loop
      vertex 2.55992 -0.0624542 11.4
      vertex 2.18683 0.186829 16
      vertex 2.55992 -0.0624542 16
    endloop
  endfacet
  facet normal 0.555559 0.831477 0
    outer loop
      vertex 2.18683 0.186829 16
      vertex 2.55992 -0.0624542 11.4
      vertex 2.18683 0.186829 11.4
    endloop
  endfacet
  facet normal 0.555559 0.831477 -0
    outer loop
      vertex 2.55992 -0.0624542 17
      vertex 2.18683 0.186829 19
      vertex 2.55992 -0.0624542 19
    endloop
  endfacet
  facet normal 0.555559 0.831477 0
    outer loop
      vertex 2.18683 0.186829 19
      vertex 2.55992 -0.0624542 17
      vertex 2.18683 0.186829 17
    endloop
  endfacet
  facet normal -0.195087 0.980786 0
    outer loop
      vertex 44.4401 -0.0624542 17
      vertex 44 -0.149994 19
      vertex 44.4401 -0.0624542 19
    endloop
  endfacet
  facet normal -0.195087 0.980786 0
    outer loop
      vertex 44 -0.149994 19
      vertex 44.4401 -0.0624542 17
      vertex 44 -0.149994 17
    endloop
  endfacet
  facet normal -0.195087 0.980786 0
    outer loop
      vertex 44.4401 -0.0624542 0
      vertex 44 -0.149994 16
      vertex 44.4401 -0.0624542 16
    endloop
  endfacet
  facet normal -0.195087 0.980786 0
    outer loop
      vertex 44 -0.149994 16
      vertex 44.4401 -0.0624542 0
      vertex 44 -0.149994 0
    endloop
  endfacet
  facet normal 0 1 -0
    outer loop
      vertex 44 -0.149994 0
      vertex 43.2145 -0.149994 16
      vertex 44 -0.149994 16
    endloop
  endfacet
  facet normal 0 1 0
    outer loop
      vertex 43.2145 -0.149994 16
      vertex 19.5 -0.149994 1
      vertex 4.98554 -0.149994 16
    endloop
  endfacet
  facet normal -0 1 0
    outer loop
      vertex 3 -0.149994 11.4
      vertex 4.98554 -0.149994 16
      vertex 19.5 -0.149994 1
    endloop
  endfacet
  facet normal 0 1 0
    outer loop
      vertex 4.98554 -0.149994 16
      vertex 3 -0.149994 11.4
      vertex 3 -0.149994 16
    endloop
  endfacet
  facet normal 0 1 0
    outer loop
      vertex 43.2145 -0.149994 16
      vertex 44 -0.149994 0
      vertex 19.5 -0.149994 1
    endloop
  endfacet
  facet normal 0 1 0
    outer loop
      vertex 19.5 -0.149994 1
      vertex 44 -0.149994 0
      vertex 19.5 -0.149994 0
    endloop
  endfacet
  facet normal 0 1 -0
    outer loop
      vertex 43.2145 -0.149994 16
      vertex 4.98554 -0.149994 17
      vertex 43.2145 -0.149994 17
    endloop
  endfacet
  facet normal 0 1 0
    outer loop
      vertex 4.98554 -0.149994 17
      vertex 43.2145 -0.149994 16
      vertex 4.98554 -0.149994 16
    endloop
  endfacet
  facet normal 0 1 0
    outer loop
      vertex 43.2145 -0.149994 17
      vertex 44 -0.149994 19
      vertex 44 -0.149994 17
    endloop
  endfacet
  facet normal 0 1 0
    outer loop
      vertex 4.98554 -0.149994 17
      vertex 44 -0.149994 19
      vertex 43.2145 -0.149994 17
    endloop
  endfacet
  facet normal 0 1 0
    outer loop
      vertex 44 -0.149994 19
      vertex 4.98554 -0.149994 17
      vertex 3 -0.149994 19
    endloop
  endfacet
  facet normal 0 1 0
    outer loop
      vertex 3 -0.149994 19
      vertex 4.98554 -0.149994 17
      vertex 3 -0.149994 17
    endloop
  endfacet
  facet normal 0.555584 -0.83146 0
    outer loop
      vertex 2.18683 26.6132 17
      vertex 2.55992 26.8625 19
      vertex 2.18683 26.6132 19
    endloop
  endfacet
  facet normal 0.555584 -0.83146 0
    outer loop
      vertex 2.55992 26.8625 19
      vertex 2.18683 26.6132 17
      vertex 2.55992 26.8625 17
    endloop
  endfacet
  facet normal 0.555584 -0.83146 0
    outer loop
      vertex 2.18683 26.6132 11.4
      vertex 2.55992 26.8625 16
      vertex 2.18683 26.6132 16
    endloop
  endfacet
  facet normal 0.555584 -0.83146 0
    outer loop
      vertex 2.55992 26.8625 16
      vertex 2.18683 26.6132 11.4
      vertex 2.55992 26.8625 11.4
    endloop
  endfacet
  facet normal 0.533222 0 0.845976
    outer loop
      vertex 10.1 25.8 6.2
      vertex 1.85001 25.8 11.4
      vertex 10.1 9 6.2
    endloop
  endfacet
  facet normal 0.533221 0 0.845976
    outer loop
      vertex 10.1 9 6.2
      vertex 18.35 1 1
      vertex 18.35 9 1
    endloop
  endfacet
  facet normal 0.533221 3.33263e-07 0.845976
    outer loop
      vertex 10.1 9 6.2
      vertex 1.85001 1 11.4
      vertex 18.35 1 1
    endloop
  endfacet
  facet normal 0.533222 -0 0.845976
    outer loop
      vertex 1.85001 1 11.4
      vertex 10.1 9 6.2
      vertex 1.85001 25.8 11.4
    endloop
  endfacet
  facet normal 0.533221 0 0.845976
    outer loop
      vertex 10.9 25.8 5.69576
      vertex 18.35 9.8 1
      vertex 18.35 25.8 1
    endloop
  endfacet
  facet normal 0.533221 0 0.845976
    outer loop
      vertex 18.35 9.8 1
      vertex 10.9 25.8 5.69576
      vertex 10.9 9.8 5.69576
    endloop
  endfacet
  facet normal -0.195002 -0.980803 0
    outer loop
      vertex 44 26.95 17
      vertex 44.4401 26.8625 19
      vertex 44 26.95 19
    endloop
  endfacet
  facet normal -0.195002 -0.980803 -0
    outer loop
      vertex 44.4401 26.8625 19
      vertex 44 26.95 17
      vertex 44.4401 26.8625 17
    endloop
  endfacet
  facet normal -0.195002 -0.980803 0
    outer loop
      vertex 44 26.95 0
      vertex 44.4401 26.8625 16
      vertex 44 26.95 16
    endloop
  endfacet
  facet normal -0.195002 -0.980803 -0
    outer loop
      vertex 44.4401 26.8625 16
      vertex 44 26.95 0
      vertex 44.4401 26.8625 0
    endloop
  endfacet
  facet normal -0.707105 0.707108 2.5879e-05
    outer loop
      vertex 48.8132 4.18681 19
      vertex 47.3809 2.75459 17
      vertex 44.8132 0.186829 19
    endloop
  endfacet
  facet normal -0.707087 0.707127 0
    outer loop
      vertex 48.8132 4.18681 19
      vertex 47.3809 2.75459 16
      vertex 47.3809 2.75459 17
    endloop
  endfacet
  facet normal -0.707087 0.707127 0
    outer loop
      vertex 48.8132 4.18681 0
      vertex 47.3809 2.75459 16
      vertex 48.8132 4.18681 19
    endloop
  endfacet
  facet normal -0.707105 0.707108 -3.23487e-06
    outer loop
      vertex 44.8132 0.186829 0
      vertex 47.3809 2.75459 16
      vertex 48.8132 4.18681 0
    endloop
  endfacet
  facet normal -0.707115 0.707098 0
    outer loop
      vertex 47.3809 2.75459 16
      vertex 44.8132 0.186829 0
      vertex 44.8132 0.186829 16
    endloop
  endfacet
  facet normal -0.707115 0.707098 0
    outer loop
      vertex 44.8132 0.186829 19
      vertex 47.3809 2.75459 17
      vertex 44.8132 0.186829 17
    endloop
  endfacet
  facet normal 0.186372 0.936929 0.295686
    outer loop
      vertex 3 -0.149994 11.4
      vertex 19.0599 -0.0624542 1
      vertex 2.55992 -0.0624542 11.4
    endloop
  endfacet
  facet normal -0.831467 -0.555574 0
    outer loop
      vertex 49.0625 22.2401 0
      vertex 48.8132 22.6132 19
      vertex 48.8132 22.6132 0
    endloop
  endfacet
  facet normal -0.831467 -0.555574 0
    outer loop
      vertex 48.8132 22.6132 19
      vertex 49.0625 22.2401 0
      vertex 49.0625 22.2401 19
    endloop
  endfacet
  facet normal 0.502298 -0.335597 0.796914
    outer loop
      vertex 2.18683 26.6132 11.4
      vertex 10.1 26.2401 6.25518
      vertex 10.1 26.6132 6.4123
    endloop
  endfacet
  facet normal 0.502297 -0.335601 0.796913
    outer loop
      vertex 10.1 26.2401 6.25518
      vertex 2.18683 26.6132 11.4
      vertex 1.93755 26.2401 11.4
    endloop
  endfacet
  facet normal 0.502293 -0.335625 0.796905
    outer loop
      vertex 10.9 26.6132 5.90806
      vertex 18.4375 26.2401 1
      vertex 18.6868 26.6132 1
    endloop
  endfacet
  facet normal 0.502295 -0.335615 0.796908
    outer loop
      vertex 18.4375 26.2401 1
      vertex 10.9 26.6132 5.90806
      vertex 10.9 26.2401 5.75093
    endloop
  endfacet
  facet normal 0.530247 -0.105477 0.841257
    outer loop
      vertex 1.93755 26.2401 11.4
      vertex 10.1 25.8 6.2
      vertex 10.1 26.2401 6.25518
    endloop
  endfacet
  facet normal 0.530248 -0.105471 0.841257
    outer loop
      vertex 10.1 25.8 6.2
      vertex 1.93755 26.2401 11.4
      vertex 1.85001 25.8 11.4
    endloop
  endfacet
  facet normal 0.530251 -0.105424 0.841261
    outer loop
      vertex 10.9 26.2401 5.75093
      vertex 18.35 25.8 1
      vertex 18.4375 26.2401 1
    endloop
  endfacet
  facet normal 0.530248 -0.105458 0.841258
    outer loop
      vertex 18.35 25.8 1
      vertex 10.9 26.2401 5.75093
      vertex 10.9 25.8 5.69576
    endloop
  endfacet
  facet normal 0.980784 0.195096 0
    outer loop
      vertex 1.93755 0.559921 16
      vertex 1.85001 1 11.4
      vertex 1.85001 1 16
    endloop
  endfacet
  facet normal 0.980784 0.195096 0
    outer loop
      vertex 1.85001 1 11.4
      vertex 1.93755 0.559921 16
      vertex 1.93755 0.559921 11.4
    endloop
  endfacet
  facet normal 0.980784 0.195096 0
    outer loop
      vertex 1.93755 0.559921 19
      vertex 1.85001 1 17
      vertex 1.85001 1 19
    endloop
  endfacet
  facet normal 0.980784 0.195096 0
    outer loop
      vertex 1.85001 1 17
      vertex 1.93755 0.559921 19
      vertex 1.93755 0.559921 17
    endloop
  endfacet
  facet normal 0.980786 -0.195087 0
    outer loop
      vertex 1.85001 25.8 16
      vertex 1.93755 26.2401 11.4
      vertex 1.93755 26.2401 16
    endloop
  endfacet
  facet normal 0.980786 -0.195087 0
    outer loop
      vertex 1.93755 26.2401 11.4
      vertex 1.85001 25.8 16
      vertex 1.85001 25.8 11.4
    endloop
  endfacet
  facet normal 0.980786 -0.195087 0
    outer loop
      vertex 1.85001 25.8 19
      vertex 1.93755 26.2401 17
      vertex 1.93755 26.2401 19
    endloop
  endfacet
  facet normal 0.980786 -0.195087 0
    outer loop
      vertex 1.93755 26.2401 17
      vertex 1.85001 25.8 19
      vertex 1.85001 25.8 17
    endloop
  endfacet
  facet normal 0.195096 0.980784 -0
    outer loop
      vertex 3 -0.149994 11.4
      vertex 2.55992 -0.0624542 16
      vertex 3 -0.149994 16
    endloop
  endfacet
  facet normal 0.195096 0.980784 0
    outer loop
      vertex 2.55992 -0.0624542 16
      vertex 3 -0.149994 11.4
      vertex 2.55992 -0.0624542 11.4
    endloop
  endfacet
  facet normal 0.195096 0.980784 -0
    outer loop
      vertex 3 -0.149994 17
      vertex 2.55992 -0.0624542 19
      vertex 3 -0.149994 19
    endloop
  endfacet
  facet normal 0.195096 0.980784 0
    outer loop
      vertex 2.55992 -0.0624542 19
      vertex 3 -0.149994 17
      vertex 2.55992 -0.0624542 17
    endloop
  endfacet
  facet normal 0.831488 -0.555543 0
    outer loop
      vertex 1.93755 26.2401 16
      vertex 2.18683 26.6132 11.4
      vertex 2.18683 26.6132 16
    endloop
  endfacet
  facet normal 0.831488 -0.555543 0
    outer loop
      vertex 2.18683 26.6132 11.4
      vertex 1.93755 26.2401 16
      vertex 1.93755 26.2401 11.4
    endloop
  endfacet
  facet normal 0.831488 -0.555543 0
    outer loop
      vertex 1.93755 26.2401 19
      vertex 2.18683 26.6132 17
      vertex 2.18683 26.6132 19
    endloop
  endfacet
  facet normal 0.831488 -0.555543 0
    outer loop
      vertex 2.18683 26.6132 17
      vertex 1.93755 26.2401 19
      vertex 1.93755 26.2401 17
    endloop
  endfacet
  facet normal 0.831482 0.555552 0
    outer loop
      vertex 2.18683 0.186829 16
      vertex 1.93755 0.559921 11.4
      vertex 1.93755 0.559921 16
    endloop
  endfacet
  facet normal 0.831482 0.555552 0
    outer loop
      vertex 1.93755 0.559921 11.4
      vertex 2.18683 0.186829 16
      vertex 2.18683 0.186829 11.4
    endloop
  endfacet
  facet normal 0.831482 0.555552 0
    outer loop
      vertex 2.18683 0.186829 19
      vertex 1.93755 0.559921 17
      vertex 1.93755 0.559921 19
    endloop
  endfacet
  facet normal 0.831482 0.555552 0
    outer loop
      vertex 1.93755 0.559921 17
      vertex 2.18683 0.186829 19
      vertex 2.18683 0.186829 17
    endloop
  endfacet
  facet normal 0.555574 -0.831467 0
    outer loop
      vertex 18.6868 26.6132 0
      vertex 19.0599 26.8625 1
      vertex 18.6868 26.6132 1
    endloop
  endfacet
  facet normal 0.555574 -0.831467 0
    outer loop
      vertex 19.0599 26.8625 1
      vertex 18.6868 26.6132 0
      vertex 19.0599 26.8625 0
    endloop
  endfacet
  facet normal 0.980803 -0.195002 0
    outer loop
      vertex 18.35 25.8 1
      vertex 18.4375 26.2401 0
      vertex 18.4375 26.2401 1
    endloop
  endfacet
  facet normal 0.980803 -0.195002 0
    outer loop
      vertex 18.4375 26.2401 0
      vertex 18.35 25.8 1
      vertex 18.35 25.8 0
    endloop
  endfacet
  facet normal 1 0 0
    outer loop
      vertex 18.35 25.8 1
      vertex 18.35 19 0.6
      vertex 18.35 25.8 0
    endloop
  endfacet
  facet normal 1 -0 0
    outer loop
      vertex 18.35 9.8 1
      vertex 18.35 19 0.6
      vertex 18.35 25.8 1
    endloop
  endfacet
  facet normal 1 0 0
    outer loop
      vertex 18.35 19 0.6
      vertex 18.35 9.8 1
      vertex 18.35 9.8 0.6
    endloop
  endfacet
  facet normal 1 0 0
    outer loop
      vertex 18.35 25.8 0
      vertex 18.35 19 0.6
      vertex 18.35 19 0
    endloop
  endfacet
  facet normal 1 -0 0
    outer loop
      vertex 18.35 1 1
      vertex 18.35 9 0
      vertex 18.35 9 1
    endloop
  endfacet
  facet normal 1 0 0
    outer loop
      vertex 18.35 9 0
      vertex 18.35 1 1
      vertex 18.35 1 0
    endloop
  endfacet
  facet normal 0.831461 0.555582 0
    outer loop
      vertex 18.6868 0.186829 1
      vertex 18.4375 0.559921 0
      vertex 18.4375 0.559921 1
    endloop
  endfacet
  facet normal 0.831461 0.555582 0
    outer loop
      vertex 18.4375 0.559921 0
      vertex 18.6868 0.186829 1
      vertex 18.6868 0.186829 0
    endloop
  endfacet
  facet normal 0.980801 0.195011 0
    outer loop
      vertex 18.4375 0.559921 1
      vertex 18.35 1 0
      vertex 18.35 1 1
    endloop
  endfacet
  facet normal 0.980801 0.195011 0
    outer loop
      vertex 18.35 1 0
      vertex 18.4375 0.559921 1
      vertex 18.4375 0.559921 0
    endloop
  endfacet
  facet normal 0.831467 -0.555574 0
    outer loop
      vertex 18.4375 26.2401 1
      vertex 18.6868 26.6132 0
      vertex 18.6868 26.6132 1
    endloop
  endfacet
  facet normal 0.831467 -0.555574 0
    outer loop
      vertex 18.6868 26.6132 0
      vertex 18.4375 26.2401 1
      vertex 18.4375 26.2401 0
    endloop
  endfacet
  facet normal 0.555548 0.831484 -0
    outer loop
      vertex 19.0599 -0.0624542 0
      vertex 18.6868 0.186829 1
      vertex 19.0599 -0.0624542 1
    endloop
  endfacet
  facet normal 0.555548 0.831484 0
    outer loop
      vertex 18.6868 0.186829 1
      vertex 19.0599 -0.0624542 0
      vertex 18.6868 0.186829 0
    endloop
  endfacet
  facet normal 0.195087 0.980786 -0
    outer loop
      vertex 19.5 -0.149994 0
      vertex 19.0599 -0.0624542 1
      vertex 19.5 -0.149994 1
    endloop
  endfacet
  facet normal 0.195087 0.980786 0
    outer loop
      vertex 19.0599 -0.0624542 1
      vertex 19.5 -0.149994 0
      vertex 19.0599 -0.0624542 0
    endloop
  endfacet
  facet normal 0.195002 -0.980803 0
    outer loop
      vertex 19.0599 26.8625 0
      vertex 19.5 26.95 1
      vertex 19.0599 26.8625 1
    endloop
  endfacet
  facet normal 0.195002 -0.980803 0
    outer loop
      vertex 19.5 26.95 1
      vertex 19.0599 26.8625 0
      vertex 19.5 26.95 0
    endloop
  endfacet
  facet normal 0 0 -1
    outer loop
      vertex 3 -0.149994 16
      vertex 5.13553 0 16
      vertex 4.98554 -0.149994 16
    endloop
  endfacet
  facet normal 0 0 -1
    outer loop
      vertex 1.85001 1 16
      vertex 3 -0.149994 16
      vertex 2.55992 -0.0624542 16
    endloop
  endfacet
  facet normal 0 0 -1
    outer loop
      vertex 1.85001 1 16
      vertex 2.55992 -0.0624542 16
      vertex 2.18683 0.186829 16
    endloop
  endfacet
  facet normal 0 0 -1
    outer loop
      vertex 1.85001 1 16
      vertex 2.18683 0.186829 16
      vertex 1.93755 0.559921 16
    endloop
  endfacet
  facet normal 0 0 -1
    outer loop
      vertex 3 -0.149994 16
      vertex 1.85001 1 16
      vertex 5.13553 0 16
    endloop
  endfacet
  facet normal 0 0 -1
    outer loop
      vertex 5.13553 0 16
      vertex 1.85001 1 16
      vertex 1.85001 3.28553 16
    endloop
  endfacet
  facet normal 0.707108 0.707106 0
    outer loop
      vertex 5.13553 0 17
      vertex 1.85001 3.28553 16
      vertex 1.85001 3.28553 17
    endloop
  endfacet
  facet normal 0.707108 0.707106 0
    outer loop
      vertex 1.85001 3.28553 16
      vertex 5.13553 0 17
      vertex 5.13553 0 16
    endloop
  endfacet
  facet normal 0.707116 -0.707097 0
    outer loop
      vertex 4.98554 -0.149994 17
      vertex 5.13553 0 16
      vertex 5.13553 0 17
    endloop
  endfacet
  facet normal 0.707116 -0.707097 0
    outer loop
      vertex 5.13553 0 16
      vertex 4.98554 -0.149994 17
      vertex 4.98554 -0.149994 16
    endloop
  endfacet
  facet normal 0 0 1
    outer loop
      vertex 5.13553 0 17
      vertex 3 -0.149994 17
      vertex 4.98554 -0.149994 17
    endloop
  endfacet
  facet normal 0 0 1
    outer loop
      vertex 1.85001 1 17
      vertex 3 -0.149994 17
      vertex 5.13553 0 17
    endloop
  endfacet
  facet normal 0 0 1
    outer loop
      vertex 3 -0.149994 17
      vertex 1.85001 1 17
      vertex 2.55992 -0.0624542 17
    endloop
  endfacet
  facet normal 0 0 1
    outer loop
      vertex 2.55992 -0.0624542 17
      vertex 1.85001 1 17
      vertex 2.18683 0.186829 17
    endloop
  endfacet
  facet normal -0 0 1
    outer loop
      vertex 1.85001 1 17
      vertex 5.13553 0 17
      vertex 1.85001 3.28553 17
    endloop
  endfacet
  facet normal 0 0 1
    outer loop
      vertex 2.18683 0.186829 17
      vertex 1.85001 1 17
      vertex 1.93755 0.559921 17
    endloop
  endfacet
  facet normal 0.707125 0.707089 -0
    outer loop
      vertex 47.3809 2.75459 16
      vertex 46.6 3.53553 17
      vertex 47.3809 2.75459 17
    endloop
  endfacet
  facet normal 0.707125 0.707089 0
    outer loop
      vertex 46.6 3.53553 17
      vertex 47.3809 2.75459 16
      vertex 46.6 3.53553 16
    endloop
  endfacet
  facet normal -0.707093 -0.707121 0
    outer loop
      vertex 43.2145 -0.149994 16
      vertex 43.0645 0 17
      vertex 43.0645 0 16
    endloop
  endfacet
  facet normal -0.707093 -0.707121 0
    outer loop
      vertex 43.0645 0 17
      vertex 43.2145 -0.149994 16
      vertex 43.2145 -0.149994 17
    endloop
  endfacet
  facet normal -0.70711 0.707104 0
    outer loop
      vertex 43.0645 0 16
      vertex 46.6 3.53553 17
      vertex 46.6 3.53553 16
    endloop
  endfacet
  facet normal -0.70711 0.707104 0
    outer loop
      vertex 46.6 3.53553 17
      vertex 43.0645 0 16
      vertex 43.0645 0 17
    endloop
  endfacet
  facet normal 0 0 -1
    outer loop
      vertex 44.8132 0.186829 16
      vertex 46.6 3.53553 16
      vertex 47.3809 2.75459 16
    endloop
  endfacet
  facet normal 0 0 -1
    outer loop
      vertex 44 -0.149994 16
      vertex 44.8132 0.186829 16
      vertex 44.4401 -0.0624542 16
    endloop
  endfacet
  facet normal 0 0 -1
    outer loop
      vertex 44.8132 0.186829 16
      vertex 44 -0.149994 16
      vertex 43.0645 0 16
    endloop
  endfacet
  facet normal 0 0 -1
    outer loop
      vertex 43.0645 0 16
      vertex 44 -0.149994 16
      vertex 43.2145 -0.149994 16
    endloop
  endfacet
  facet normal -0 0 -1
    outer loop
      vertex 44.8132 0.186829 16
      vertex 43.0645 0 16
      vertex 46.6 3.53553 16
    endloop
  endfacet
  facet normal 0 0 1
    outer loop
      vertex 46.6 3.53553 17
      vertex 44.8132 0.186829 17
      vertex 47.3809 2.75459 17
    endloop
  endfacet
  facet normal 0 0 1
    outer loop
      vertex 43.0645 0 17
      vertex 44.8132 0.186829 17
      vertex 46.6 3.53553 17
    endloop
  endfacet
  facet normal 0 -0 1
    outer loop
      vertex 44 -0.149994 17
      vertex 44.8132 0.186829 17
      vertex 43.0645 0 17
    endloop
  endfacet
  facet normal 0 0 1
    outer loop
      vertex 44.8132 0.186829 17
      vertex 44 -0.149994 17
      vertex 44.4401 -0.0624542 17
    endloop
  endfacet
  facet normal 0 0 1
    outer loop
      vertex 44 -0.149994 17
      vertex 43.0645 0 17
      vertex 43.2145 -0.149994 17
    endloop
  endfacet
  facet normal 0 0 -1
    outer loop
      vertex 5.13553 26.8 16
      vertex 3 26.95 16
      vertex 4.98554 26.95 16
    endloop
  endfacet
  facet normal 0 0 -1
    outer loop
      vertex 1.85001 25.8 16
      vertex 3 26.95 16
      vertex 5.13553 26.8 16
    endloop
  endfacet
  facet normal 0 0 -1
    outer loop
      vertex 3 26.95 16
      vertex 1.85001 25.8 16
      vertex 2.55992 26.8625 16
    endloop
  endfacet
  facet normal 0 0 -1
    outer loop
      vertex 2.55992 26.8625 16
      vertex 1.85001 25.8 16
      vertex 2.18683 26.6132 16
    endloop
  endfacet
  facet normal 0 0 -1
    outer loop
      vertex 1.85001 25.8 16
      vertex 5.13553 26.8 16
      vertex 1.85001 23.5145 16
    endloop
  endfacet
  facet normal 0 0 -1
    outer loop
      vertex 2.18683 26.6132 16
      vertex 1.85001 25.8 16
      vertex 1.93755 26.2401 16
    endloop
  endfacet
  facet normal 0.70713 0.707083 0
    outer loop
      vertex 5.13553 26.8 17
      vertex 4.98554 26.95 16
      vertex 4.98554 26.95 17
    endloop
  endfacet
  facet normal 0.70713 0.707083 0
    outer loop
      vertex 4.98554 26.95 16
      vertex 5.13553 26.8 17
      vertex 5.13553 26.8 16
    endloop
  endfacet
  facet normal 0.707105 -0.707109 0
    outer loop
      vertex 1.85001 23.5145 16
      vertex 5.13553 26.8 17
      vertex 1.85001 23.5145 17
    endloop
  endfacet
  facet normal 0.707105 -0.707109 0
    outer loop
      vertex 5.13553 26.8 17
      vertex 1.85001 23.5145 16
      vertex 5.13553 26.8 16
    endloop
  endfacet
  facet normal -0 0 1
    outer loop
      vertex 3 26.95 17
      vertex 5.13553 26.8 17
      vertex 4.98554 26.95 17
    endloop
  endfacet
  facet normal 0 0 1
    outer loop
      vertex 1.85001 25.8 17
      vertex 3 26.95 17
      vertex 2.55992 26.8625 17
    endloop
  endfacet
  facet normal 0 0 1
    outer loop
      vertex 1.85001 25.8 17
      vertex 2.55992 26.8625 17
      vertex 2.18683 26.6132 17
    endloop
  endfacet
  facet normal 0 0 1
    outer loop
      vertex 1.85001 25.8 17
      vertex 2.18683 26.6132 17
      vertex 1.93755 26.2401 17
    endloop
  endfacet
  facet normal 0 0 1
    outer loop
      vertex 3 26.95 17
      vertex 1.85001 25.8 17
      vertex 5.13553 26.8 17
    endloop
  endfacet
  facet normal 0 0 1
    outer loop
      vertex 5.13553 26.8 17
      vertex 1.85001 25.8 17
      vertex 1.85001 23.5145 17
    endloop
  endfacet
  facet normal 0.707107 -0.707107 0
    outer loop
      vertex 46.6 23.2645 17
      vertex 47.3809 24.0454 16
      vertex 47.3809 24.0454 17
    endloop
  endfacet
  facet normal 0.707107 -0.707107 0
    outer loop
      vertex 47.3809 24.0454 16
      vertex 46.6 23.2645 17
      vertex 46.6 23.2645 16
    endloop
  endfacet
  facet normal -0.707107 -0.707107 0
    outer loop
      vertex 46.6 23.2645 16
      vertex 43.0645 26.8 17
      vertex 43.0645 26.8 16
    endloop
  endfacet
  facet normal -0.707107 -0.707107 0
    outer loop
      vertex 43.0645 26.8 17
      vertex 46.6 23.2645 16
      vertex 46.6 23.2645 17
    endloop
  endfacet
  facet normal -0.707107 0.707107 0
    outer loop
      vertex 43.0645 26.8 16
      vertex 43.2145 26.95 17
      vertex 43.2145 26.95 16
    endloop
  endfacet
  facet normal -0.707107 0.707107 0
    outer loop
      vertex 43.2145 26.95 17
      vertex 43.0645 26.8 16
      vertex 43.0645 26.8 17
    endloop
  endfacet
  facet normal 0 0 -1
    outer loop
      vertex 46.6 23.2645 16
      vertex 44.8132 26.6132 16
      vertex 47.3809 24.0454 16
    endloop
  endfacet
  facet normal 0 0 -1
    outer loop
      vertex 43.0645 26.8 16
      vertex 44.8132 26.6132 16
      vertex 46.6 23.2645 16
    endloop
  endfacet
  facet normal 0 -0 -1
    outer loop
      vertex 44 26.95 16
      vertex 44.8132 26.6132 16
      vertex 43.0645 26.8 16
    endloop
  endfacet
  facet normal 0 0 -1
    outer loop
      vertex 44.8132 26.6132 16
      vertex 44 26.95 16
      vertex 44.4401 26.8625 16
    endloop
  endfacet
  facet normal -0 0 -1
    outer loop
      vertex 44 26.95 16
      vertex 43.0645 26.8 16
      vertex 43.2145 26.95 16
    endloop
  endfacet
  facet normal 0 0 1
    outer loop
      vertex 44.8132 26.6132 17
      vertex 46.6 23.2645 17
      vertex 47.3809 24.0454 17
    endloop
  endfacet
  facet normal 0 0 1
    outer loop
      vertex 44 26.95 17
      vertex 44.8132 26.6132 17
      vertex 44.4401 26.8625 17
    endloop
  endfacet
  facet normal 0 0 1
    outer loop
      vertex 44.8132 26.6132 17
      vertex 44 26.95 17
      vertex 43.0645 26.8 17
    endloop
  endfacet
  facet normal 0 0 1
    outer loop
      vertex 43.0645 26.8 17
      vertex 44 26.95 17
      vertex 43.2145 26.95 17
    endloop
  endfacet
  facet normal 0 0 1
    outer loop
      vertex 44.8132 26.6132 17
      vertex 43.0645 26.8 17
      vertex 46.6 23.2645 17
    endloop
  endfacet
  facet normal 1 0 0
    outer loop
      vertex 10.9 10 17
      vertex 10.9 9.8 17
      vertex 10.9 10 16
    endloop
  endfacet
  facet normal 1 0 0
    outer loop
      vertex 10.9 25.8 5.69576
      vertex 10.9 26.95 6.42061
      vertex 10.9 26.95 17
    endloop
  endfacet
  facet normal 1 0 -0
    outer loop
      vertex 10.9 26.2401 5.75093
      vertex 10.9 26.95 6.42061
      vertex 10.9 25.8 5.69576
    endloop
  endfacet
  facet normal 1 0 0
    outer loop
      vertex 10.9 26.95 6.42061
      vertex 10.9 26.2401 5.75093
      vertex 10.9 26.9069 6.28415
    endloop
  endfacet
  facet normal 1 0 -0
    outer loop
      vertex 10.9 26.6132 5.90806
      vertex 10.9 26.9069 6.28415
      vertex 10.9 26.2401 5.75093
    endloop
  endfacet
  facet normal 1 0 0
    outer loop
      vertex 10.9 26.9069 6.28415
      vertex 10.9 26.6132 5.90806
      vertex 10.9 26.8625 6.14322
    endloop
  endfacet
  facet normal 1 0 0
    outer loop
      vertex 10.9 15.5 16
      vertex 10.9 26.95 17
      vertex 10.9 15.5 17
    endloop
  endfacet
  facet normal 1 0 0
    outer loop
      vertex 10.9 26.95 17
      vertex 10.9 15.5 16
      vertex 10.9 25.8 5.69576
    endloop
  endfacet
  facet normal 1 0 0
    outer loop
      vertex 10.9 9.8 5.69576
      vertex 10.9 15.5 16
      vertex 10.9 10 16
    endloop
  endfacet
  facet normal 1 0 0
    outer loop
      vertex 10.9 15.5 16
      vertex 10.9 9.8 5.69576
      vertex 10.9 25.8 5.69576
    endloop
  endfacet
  facet normal 1 0 0
    outer loop
      vertex 10.9 9.8 5.69576
      vertex 10.9 10 16
      vertex 10.9 9.8 17
    endloop
  endfacet
  facet normal 0 -1 0
    outer loop
      vertex 10.1 9 6.2
      vertex 19.9 9 17
      vertex 10.1 9 17
    endloop
  endfacet
  facet normal 0 -1 0
    outer loop
      vertex 18.35 9 1
      vertex 19.9 9 17
      vertex 10.1 9 6.2
    endloop
  endfacet
  facet normal 0 -1 0
    outer loop
      vertex 19.9 9 0
      vertex 18.35 9 1
      vertex 18.35 9 0
    endloop
  endfacet
  facet normal 0 -1 0
    outer loop
      vertex 18.35 9 1
      vertex 19.9 9 0
      vertex 19.9 9 17
    endloop
  endfacet
  facet normal -1 0 0
    outer loop
      vertex 10.1 9 6.2
      vertex 10.1 15.5 16
      vertex 10.1 25.8 6.2
    endloop
  endfacet
  facet normal -1 -0 0
    outer loop
      vertex 10.1 15.5 16
      vertex 10.1 9 6.2
      vertex 10.1 10 16
    endloop
  endfacet
  facet normal -1 0 0
    outer loop
      vertex 10.1 9 17
      vertex 10.1 10 16
      vertex 10.1 9 6.2
    endloop
  endfacet
  facet normal -1 0 0
    outer loop
      vertex 10.1 10 16
      vertex 10.1 9 17
      vertex 10.1 10 17
    endloop
  endfacet
  facet normal -1 0 0
    outer loop
      vertex 10.1 26.2401 6.25518
      vertex 10.1 26.95 6.92485
      vertex 10.1 26.9113 6.80222
    endloop
  endfacet
  facet normal -1 0 0
    outer loop
      vertex 10.1 26.6132 6.4123
      vertex 10.1 26.9113 6.80222
      vertex 10.1 26.8625 6.64746
    endloop
  endfacet
  facet normal -1 0 0
    outer loop
      vertex 10.1 26.9113 6.80222
      vertex 10.1 26.6132 6.4123
      vertex 10.1 26.2401 6.25518
    endloop
  endfacet
  facet normal -1 0 0
    outer loop
      vertex 10.1 26.95 6.92485
      vertex 10.1 26.2401 6.25518
      vertex 10.1 25.8 6.2
    endloop
  endfacet
  facet normal -1 -0 0
    outer loop
      vertex 10.1 26.95 6.92485
      vertex 10.1 25.8 6.2
      vertex 10.1 26.95 17
    endloop
  endfacet
  facet normal -1 0 0
    outer loop
      vertex 10.1 15.5 16
      vertex 10.1 26.95 17
      vertex 10.1 25.8 6.2
    endloop
  endfacet
  facet normal -1 -0 0
    outer loop
      vertex 10.1 26.95 17
      vertex 10.1 15.5 16
      vertex 10.1 15.5 17
    endloop
  endfacet
  facet normal 0 0 1
    outer loop
      vertex 10.9 10 17
      vertex 10.1 10 17
      vertex 10.9 9.8 17
    endloop
  endfacet
  facet normal 0 0 1
    outer loop
      vertex 19.1 9.8 17
      vertex 19.9 19 17
      vertex 19.1 19 17
    endloop
  endfacet
  facet normal 0 0 1
    outer loop
      vertex 19.9 19 17
      vertex 19.1 9.8 17
      vertex 19.9 9 17
    endloop
  endfacet
  facet normal -0 0 1
    outer loop
      vertex 10.9 9.8 17
      vertex 19.9 9 17
      vertex 19.1 9.8 17
    endloop
  endfacet
  facet normal 0 0 1
    outer loop
      vertex 10.9 9.8 17
      vertex 10.1 9 17
      vertex 19.9 9 17
    endloop
  endfacet
  facet normal 0 0 1
    outer loop
      vertex 10.1 9 17
      vertex 10.9 9.8 17
      vertex 10.1 10 17
    endloop
  endfacet
  facet normal -0 0 1
    outer loop
      vertex 10.1 26.95 17
      vertex 10.9 15.5 17
      vertex 10.9 26.95 17
    endloop
  endfacet
  facet normal 0 0 1
    outer loop
      vertex 10.9 15.5 17
      vertex 10.1 26.95 17
      vertex 10.1 15.5 17
    endloop
  endfacet
  facet normal 0 1 0
    outer loop
      vertex 19.1 9.8 17
      vertex 10.9 9.8 5.69576
      vertex 10.9 9.8 17
    endloop
  endfacet
  facet normal 0 1 0
    outer loop
      vertex 19.1 9.8 17
      vertex 18.35 9.8 1
      vertex 10.9 9.8 5.69576
    endloop
  endfacet
  facet normal 0 1 -0
    outer loop
      vertex 19.1 9.8 0.6
      vertex 18.35 9.8 1
      vertex 19.1 9.8 17
    endloop
  endfacet
  facet normal 0 1 0
    outer loop
      vertex 18.35 9.8 1
      vertex 19.1 9.8 0.6
      vertex 18.35 9.8 0.6
    endloop
  endfacet
  facet normal 1 -0 0
    outer loop
      vertex 19.9 9 17
      vertex 19.9 19 0
      vertex 19.9 19 17
    endloop
  endfacet
  facet normal 1 0 0
    outer loop
      vertex 19.9 19 0
      vertex 19.9 9 17
      vertex 19.9 9 0
    endloop
  endfacet
  facet normal 0 1 0
    outer loop
      vertex 19.9 19 17
      vertex 19.1 19 0.6
      vertex 19.1 19 17
    endloop
  endfacet
  facet normal 0 1 -0
    outer loop
      vertex 19.9 19 0
      vertex 19.1 19 0.6
      vertex 19.9 19 17
    endloop
  endfacet
  facet normal 0 1 0
    outer loop
      vertex 18.35 19 0
      vertex 19.1 19 0.6
      vertex 19.9 19 0
    endloop
  endfacet
  facet normal 0 1 0
    outer loop
      vertex 19.1 19 0.6
      vertex 18.35 19 0
      vertex 18.35 19 0.6
    endloop
  endfacet
  facet normal -1 0 0
    outer loop
      vertex 19.1 9.8 0.6
      vertex 19.1 19 17
      vertex 19.1 19 0.6
    endloop
  endfacet
  facet normal -1 -0 0
    outer loop
      vertex 19.1 19 17
      vertex 19.1 9.8 0.6
      vertex 19.1 9.8 17
    endloop
  endfacet
  facet normal -0 0 1
    outer loop
      vertex 18.35 19 0.6
      vertex 19.1 9.8 0.6
      vertex 19.1 19 0.6
    endloop
  endfacet
  facet normal 0 0 1
    outer loop
      vertex 19.1 9.8 0.6
      vertex 18.35 19 0.6
      vertex 18.35 9.8 0.6
    endloop
  endfacet
  facet normal 0 -1 0
    outer loop
      vertex 10.1 15.5 16
      vertex 10.9 15.5 17
      vertex 10.1 15.5 17
    endloop
  endfacet
  facet normal 0 -1 -0
    outer loop
      vertex 10.9 15.5 17
      vertex 10.1 15.5 16
      vertex 10.9 15.5 16
    endloop
  endfacet
  facet normal 0 1 -0
    outer loop
      vertex 10.9 10 16
      vertex 10.1 10 17
      vertex 10.9 10 17
    endloop
  endfacet
  facet normal 0 1 0
    outer loop
      vertex 10.1 10 17
      vertex 10.9 10 16
      vertex 10.1 10 16
    endloop
  endfacet
  facet normal -0 0 1
    outer loop
      vertex 10.1 15.5 16
      vertex 10.9 10 16
      vertex 10.9 15.5 16
    endloop
  endfacet
  facet normal 0 0 1
    outer loop
      vertex 10.9 10 16
      vertex 10.1 15.5 16
      vertex 10.1 10 16
    endloop
  endfacet
endsolid OpenSCAD_Model
